<svg xmlns="http://www.w3.org/2000/svg">
<defs>
<font id="PTSerif-Italic" horiz-adv-x="524" >
  <font-face 
    font-family="PT Serif"
    font-weight="400"
    font-style="italic"
    font-stretch="normal"
    units-per-em="1000"
    panose-1="2 10 6 3 4 5 5 9 2 4"
    ascent="800"
    descent="-200"
    x-height="507"
    cap-height="700"
    bbox="-274 -272 1108 992"
    underline-thickness="50"
    underline-position="-50"
    slope="-12"
    unicode-range="U+0020-U+FB02"
  />
<missing-glyph horiz-adv-x="709" 
d="M50 700h650v-700h-650v700zM570 650l-195 -217l-195 217l-50 -50l197 -220l-197 -220l50 -50l195 217l195 -217l50 50l-198 220l198 220zM162 68h-35v-7h13v-35h9v35h13v7zM271 58h-2q-1 0 -2 1q-4 0 -9 -5v4h-7v-32h8v20q3 5 7 5q2 0 4 -1zM276 65q0 -5 4 -5q5 0 5 4
q0 5 -5 5q-4 0 -4 -4zM276 26h9v32h-9v-32zM291 51h5v-25h8v25h8v7h-8q0 2 1 3t3 1h3h3l1 6q0 1 -4 1h-5h-4q-1 0 -3 -1.5t-2 -2.5q-1 -2 -1 -5v-2h-5v-7zM331 45q0 -25 23 -25q11 0 17.5 6t6.5 19q0 23 -24 23q-10 0 -16.5 -6t-6.5 -17zM338 45q0 17 16 17q17 0 17 -17
q0 -18 -17 -18q-16 0 -16 18zM361 40q-2 -1 -4 -1q-5 0 -5 6q0 4 5 4h3l3 5q-4 2 -9 2q-10 0 -10 -11q0 -13 10 -13q5 0 9 2zM402 27h9v14h5q7 0 12.5 3t5.5 11q0 10 -6 12t-13 2h-13v-42zM416 62q9 0 9 -6t-2.5 -6.5t-7.5 -0.5h-4v13h5zM440 51q3 1 5.5 1.5t5.5 0.5
q5 0 5 -5v-2q-1 0 -2 0.5t-3 0.5q-15 0 -15 -12q0 -9 10 -9q7 0 10 6l3 -5h7q-1 1 -1 8v13q0 12 -12 12q-5 0 -9 -1.5t-6 -2.5zM450 33q-5 0 -5 5q0 4 6 4q2 0 3 -0.5t2 -0.5v-3q-1 -5 -6 -5zM494 59q-2 1 -5 1q-5 0 -7 -6h-1l-1 5h-7v-32h9v20q0 5 7 5q1 0 1 -0.5t1 -0.5h1
zM499 51q10 2 11 2q6 0 6 -5v-2q-2 0 -3 0.5t-3 0.5q-15 0 -15 -12q0 -9 10 -9q8 0 11 6h1l1 -5h7q-1 1 -1 8v13q0 12 -12 12q-5 0 -8 -1.5t-6 -2.5zM509 33q-5 0 -5 5q0 4 6 4q2 0 3 -0.5t3 -0.5v-3q-3 -5 -7 -5zM557 69h-36v-7h14v-35h8v35h14v7zM567 59h-10l14 -32
q-2 -5 -5 -5l-2 1l-2 -7q1 -1 6 -1q7 0 11 15l12 29h-9l-6 -18v-6h-1l-1 6zM595 15h9v13q2 -2 6 -2q16 0 16 18q0 16 -13 16q-6 0 -10 -5h-2l-1 4h-5v-44zM611 53q6 0 6 -9q0 -11 -9 -11q-2 0 -4 2v12q0 6 7 6zM656 35q-2 -2 -8 -2q-8 0 -8 7h21v7q0 13 -14 13

<glyph glyph-name="fi" unicode="fi" horiz-adv-x="528" 
d="M284 500q21 0 46 1t49.5 2.5t47 4t38.5 4.5l18 -12l-84 -444h74v-26q-21 -16 -49 -26t-55 -10q-29 0 -41.5 13t-12.5 30q0 20 3 39t8 42l64 332h-176l-64 -407q-11 -71 -37 -118t-55.5 -76t-57.5 -43t-43 -18l-9 22q12 6 29 21.5t33.5 41.5t31 63.5t22.5 87.5l65 426h-73
v26q20 11 42.5 19.5t42.5 13.5l7 35q13 62 36 102.5t53 64t67 32.5t78 9q42 0 79 -13t59 -29q-2 -22 -17.5 -49.5t-39.5 -38.5l-80 90q-24 0 -46 -6t-41.5 -23.5t-35 -49t-26.5 -83.5l-10 -50h60z" />
    <glyph glyph-name="fl" unicode="fl" horiz-adv-x="546" 
d="M335 118l34 169.5l26 131.5l19 98t13 70q11 67 14 89q-15 17 -34 27t-42 10q-20 0 -38.5 -6t-35.5 -23.5t-31.5 -49.5t-25.5 -84l-10 -50h109q5 -25 -10 -50h-109l-28 -179l-28 -180q-15 -87 -40 -142.5t-53.5 -89t-57 -49t-50.5 -22.5l-9 22q12 6 29 21.5t33.5 41.5
t31 63.5t22.5 87.5l65 426h-73v26q20 11 42.5 19.5t42.5 13.5l7 35q21 97 74 152.5t145 55.5q18 0 39 -3.5t38 -10.5q20 5 39.5 9t35.5 5l20 -11l-128 -685h73v-26q-20 -16 -48.5 -26t-55.5 -10q-29 0 -42.5 13t-13.5 30q0 20 3 39t8 42z" />
    <glyph glyph-name=".notdef" horiz-adv-x="709" 
d="M50 700h650v-700h-650v700zM570 650l-195 -217l-195 217l-50 -50l197 -220l-197 -220l50 -50l195 217l195 -217l50 50l-198 220l198 220zM162 68h-35v-7h13v-35h9v35h13v7zM271 58h-2q-1 0 -2 1q-4 0 -9 -5v4h-7v-32h8v20q3 5 7 5q2 0 4 -1zM276 65q0 -5 4 -5q5 0 5 4
q0 5 -5 5q-4 0 -4 -4zM276 26h9v32h-9v-32zM291 51h5v-25h8v25h8v7h-8q0 2 1 3t3 1h3h3l1 6q0 1 -4 1h-5h-4q-1 0 -3 -1.5t-2 -2.5q-1 -2 -1 -5v-2h-5v-7zM331 45q0 -25 23 -25q11 0 17.5 6t6.5 19q0 23 -24 23q-10 0 -16.5 -6t-6.5 -17zM338 45q0 17 16 17q17 0 17 -17
q0 -18 -17 -18q-16 0 -16 18zM361 40q-2 -1 -4 -1q-5 0 -5 6q0 4 5 4h3l3 5q-4 2 -9 2q-10 0 -10 -11q0 -13 10 -13q5 0 9 2zM402 27h9v14h5q7 0 12.5 3t5.5 11q0 10 -6 12t-13 2h-13v-42zM416 62q9 0 9 -6t-2.5 -6.5t-7.5 -0.5h-4v13h5zM440 51q3 1 5.5 1.5t5.5 0.5
q5 0 5 -5v-2q-1 0 -2 0.5t-3 0.5q-15 0 -15 -12q0 -9 10 -9q7 0 10 6l3 -5h7q-1 1 -1 8v13q0 12 -12 12q-5 0 -9 -1.5t-6 -2.5zM450 33q-5 0 -5 5q0 4 6 4q2 0 3 -0.5t2 -0.5v-3q-1 -5 -6 -5zM494 59q-2 1 -5 1q-5 0 -7 -6h-1l-1 5h-7v-32h9v20q0 5 7 5q1 0 1 -0.5t1 -0.5h1
zM499 51q10 2 11 2q6 0 6 -5v-2q-2 0 -3 0.5t-3 0.5q-15 0 -15 -12q0 -9 10 -9q8 0 11 6h1l1 -5h7q-1 1 -1 8v13q0 12 -12 12q-5 0 -8 -1.5t-6 -2.5zM509 33q-5 0 -5 5q0 4 6 4q2 0 3 -0.5t3 -0.5v-3q-3 -5 -7 -5zM557 69h-36v-7h14v-35h8v35h14v7zM567 59h-10l14 -32
q-2 -5 -5 -5l-2 1l-2 -7q1 -1 6 -1q7 0 11 15l12 29h-9l-6 -18v-6h-1l-1 6zM595 15h9v13q2 -2 6 -2q16 0 16 18q0 16 -13 16q-6 0 -10 -5h-2l-1 4h-5v-44zM611 53q6 0 6 -9q0 -11 -9 -11q-2 0 -4 2v12q0 6 7 6zM656 35q-2 -2 -8 -2q-8 0 -8 7h21v7q0 13 -14 13
q-16 0 -16 -18q0 -16 16 -16q8 0 12 4zM647 53q7 0 6 -7h-13q0 7 7 7zM92 27h9v14h5q7 0 12.5 3t5.5 11q0 10 -6 12t-13 2h-13v-42zM106 62q9 0 9 -6t-2.5 -6.5t-7.5 -0.5h-4v13h5zM200 38q0 -5 -8 -5q-3 0 -5 0.5t-6 2.5l-3 -9q4 -1 7 -1.5t8 -0.5q16 0 16 14q0 5 -3.5 7.5
t-7 4l-7 3t-3.5 4.5t7 3q3 0 5.5 -0.5t5.5 -1.5l2 8q-4 1 -7 1.5t-6 0.5q-16 0 -16 -13q0 -5 3.5 -7.5t7 -4l7 -3t3.5 -3.5zM239 34q-2 -2 -8 -2q-8 0 -8 7h21v7q0 13 -14 13q-16 0 -16 -18q0 -16 16 -16q8 0 12 4zM230 52q7 0 6 -7h-13q0 7 7 7z" />
    <glyph glyph-name=".null" horiz-adv-x="0" 
 />
    <glyph glyph-name="nonmarkingreturn" horiz-adv-x="243" 
 />
    <glyph glyph-name="space" unicode=" " horiz-adv-x="243" 
 />
    <glyph glyph-name="exclam" unicode="!" horiz-adv-x="327" 
d="M146 218l4 176l60 296q24 11 50 11t46 -11l-66 -296l-68 -176h-26zM68 57q0 30 19 48t49 18q31 0 50 -18t19 -48q0 -29 -19 -47t-50 -18q-30 0 -49 18t-19 47z" />
    <glyph glyph-name="quotedbl" unicode="&#x22;" horiz-adv-x="341" 
d="M209 670q8 13 20 21.5t29 8.5q31 0 36 -30l-64 -166h-20zM89 670q8 13 20 21.5t29 8.5q31 0 36 -30l-64 -166h-20z" />
    <glyph glyph-name="numbersign" unicode="#" 
d="M307 233h-143l-78 -175h-53l79 175h-81l25 46h76l68 150h-77l24 46h73l76 167h52l-75 -167h142l76 167h52l-76 -167h80l-27 -46h-73l-68 -150h77l-28 -46h-69l-79 -175h-52zM185 279h142l68 150h-142z" />
    <glyph glyph-name="dollar" unicode="$" 
d="M188 -12q-26 1 -52.5 7t-49.5 14.5t-41.5 17.5t-27.5 17q8 33 19.5 63t23.5 50h26l40 -97q19 -19 73 -20l61 281l-51 34.5t-44.5 40t-32 51t-12.5 67.5q0 36 14 70.5t41.5 61.5t69 44.5t96.5 20.5l11 49h52l-11 -49q49 -2 84 -11t60 -21q-9 -33 -25 -55.5t-31 -37.5h-26
l-36 68q-8 1 -17 2t-19 3l-54 -257l48.5 -33.5t44 -41.5t31.5 -56t12 -75q0 -39 -15.5 -74t-44.5 -62.5t-71 -46t-94 -23.5l-12 -60h-52zM213 543q0 -41 20 -66.5t50 -45.5l49 228q-54 -4 -86.5 -34t-32.5 -82zM371 167q0 42 -19.5 71t-48.5 52l-53 -247q24 4 45.5 14
t38.5 25.5t27 36.5t10 48z" />
    <glyph glyph-name="percent" unicode="%" horiz-adv-x="782" 
d="M706 710l35 -31l-665 -686l-34 32zM63 500q0 46 18 85t48 67t69 44t81 16q69 0 106 -36t37 -93q0 -52 -19.5 -91.5t-50 -66t-69 -40t-76.5 -13.5q-30 0 -56.5 9.5t-46 26.5t-30.5 40.5t-11 51.5zM146 499q0 -18 3.5 -34t12 -28.5t21.5 -20t31 -7.5q22 0 44.5 11t40.5 34
t29 58t11 83q0 15 -3.5 29t-11.5 25.5t-21 18t-33 6.5q-22 0 -44 -13.5t-40 -36.5t-29 -55.5t-11 -69.5zM354 117q0 46 18 85t48 67t69 44t81 16q69 0 106 -36t37 -93q0 -52 -19.5 -91.5t-50 -66t-69 -40t-76.5 -13.5q-30 0 -56.5 9.5t-46 26.5t-30.5 40.5t-11 51.5z
M437 116q0 -18 3.5 -34t12 -28.5t21.5 -20t31 -7.5q22 0 44.5 11t40.5 34t29 58t11 83q0 15 -3.5 29t-11.5 25.5t-21 18t-33 6.5q-22 0 -44 -13.5t-40 -36.5t-29 -55.5t-11 -69.5z" />
    <glyph glyph-name="ampersand" unicode="&#x26;" horiz-adv-x="872" 
d="M480 123q-25 27 -52.5 63.5t-53 74.5t-46 73t-30.5 58q-53 -42 -88 -95.5t-36 -126.5q1 -57 37 -93.5t99 -36.5q45 0 88 20.5t82 62.5zM317 564q0 -34 14 -69t34 -64q21 15 40.5 33t35.5 38.5t25.5 43.5t9.5 49q0 35 -14 55t-48 19q-22 1 -40 -8t-30.5 -23.5t-19.5 -33.5
t-7 -40zM611 0l-46.5 34.5t-57.5 57.5q-18 -19 -43 -37.5t-56.5 -33.5t-68.5 -24t-77 -9q-49 0 -85.5 13t-61 35.5t-36.5 52t-12 62.5q0 51 25 94.5t59.5 79t70 60.5t57.5 38q-22 32 -30 65t-8 68q0 32 15 60.5t40 49.5t58 33.5t69 12.5q127 0 127 -101q0 -34 -16.5 -64
t-42 -55.5t-55.5 -47l-56 -38.5q30 -51 72.5 -105t90.5 -108q10 11 28 37t36 61t33.5 76.5t21.5 82.5q-32 6 -54 24l5 26h203l-6 -26q-32 -17 -71 -24q-22 -59 -46 -107t-46.5 -84.5t-41.5 -62t-30 -37.5q32 -31 62.5 -57.5t70.5 -52.5l51 -24l-6 -25h-142z" />
    <glyph glyph-name="quotesingle" unicode="'" horiz-adv-x="221" 
d="M89 670q8 13 20 21.5t29 8.5q31 0 36 -30l-64 -166h-20z" />
    <glyph glyph-name="parenleft" unicode="(" horiz-adv-x="343" 
d="M220 -210q-86 74 -122.5 154.5t-36.5 172.5q0 112 33.5 203t85 163t114.5 126.5t123 92.5l17 -18q-49 -42 -100 -99t-93 -126.5t-68.5 -152.5t-25.5 -177q-1 -90 21 -168.5t81 -150.5z" />
    <glyph glyph-name="parenright" unicode=")" horiz-adv-x="343" 
d="M-80 -190q44 36 94.5 92t93 128.5t71 160.5t28.5 188q0 43 -4.5 80t-16 73t-31.5 73t-51 79l26 18q86 -78 123.5 -158.5t37.5 -174.5q0 -104 -31 -193.5t-81 -162.5t-112.5 -129.5t-126.5 -93.5z" />
    <glyph glyph-name="asterisk" unicode="*" horiz-adv-x="465" 
d="M145 616q-3 7 -1 17.5t8 21t14.5 18.5t17.5 10l100 -87q0 -19 -14 -26zM183 444q-8 1 -16 8.5t-14 18t-9 21.5t0 19l125 43q15 -9 15 -24zM354 389q-5 -7 -15 -9.5t-22 -2.5t-23 2.5t-16 8.5l23 130q16 8 32 0zM485 511q4 -7 1.5 -18t-8.5 -21.5t-14 -18.5t-17 -9l-98 84
q0 16 13 25zM448 683q8 -1 16 -8.5t14 -18t8.5 -21.5t-0.5 -20l-124 -47q-14 10 -14 26zM277 737q4 7 14.5 10t22.5 3t23 -3t16 -10l-22 -130q-15 -10 -31 0z" />
    <glyph glyph-name="plus" unicode="+" 
d="M37 370h198v210h53v-210h199v-53h-199v-215h-53v215h-198v53z" />
    <glyph glyph-name="comma" unicode="," horiz-adv-x="283" 
d="M-36 -149q21 7 41 21.5t36.5 32.5t27 39.5t13.5 42.5q-10 11 -27.5 22t-31.5 16q-1 19 7 37t20 32t25.5 22.5t24.5 9.5q34 -5 51 -24t17 -57t-16.5 -74t-43 -66t-61 -52t-70.5 -32z" />
    <glyph glyph-name="hyphen" unicode="-" horiz-adv-x="425" 
d="M85 313h282l-13 -63h-283z" />
    <glyph glyph-name="period" unicode="." horiz-adv-x="271" 
d="M29 57q0 30 19 48t49 18q31 0 50 -18t19 -48q0 -29 -19 -47t-50 -18q-30 0 -49 18t-19 47z" />
    <glyph glyph-name="slash" unicode="/" horiz-adv-x="344" 
d="M327 712l42 -18l-365 -824l-41 19z" />
    <glyph glyph-name="zero" unicode="0" 
d="M19 203q0 59 9 120t26.5 117.5t44 106t62 86.5t80 58t97.5 21q59 0 95.5 -21.5t57 -54t27.5 -69.5t7 -68q0 -89 -20 -179.5t-59.5 -164.5t-99.5 -120.5t-140 -46.5q-59 0 -96 21.5t-57 54t-27 70t-7 69.5zM115 199q0 -29 4.5 -59t15.5 -54.5t30 -40.5t48 -16
q54 0 94.5 43t67.5 111.5t40.5 152t13.5 164.5q0 30 -4.5 60t-15.5 54.5t-30 40t-48 16.5q-55 -1 -95.5 -45.5t-67.5 -113.5t-40 -152t-13 -161z" />
    <glyph glyph-name="one" unicode="1" 
d="M378 0h-292l6 29q27 12 54.5 20t55.5 14l104 491l19 59q-29 -11 -62 -15.5t-65 -3.5v24q49 15 103 37t103 57h25l-137 -649q49 -11 92 -34z" />
    <glyph glyph-name="two" unicode="2" 
d="M182 505h-25q-5 29 -8.5 68t-2.5 74q42 29 88 47t103 18q50 0 83.5 -11t54 -30.5t29.5 -45t9 -54.5q0 -58 -34.5 -119.5t-87 -121t-114.5 -114t-116 -97.5l-50 -39v-4l56 6h172l73 112h25q-1 -24 -4 -50.5t-7.5 -52.5t-9.5 -49.5l-9 -41.5h-413l7 32l72 60l88.5 79.5
t92.5 93.5t82.5 101.5t59.5 103.5t23 100q0 40 -24.5 65t-72.5 25q-42 0 -76 -12z" />
    <glyph glyph-name="three" unicode="3" 
d="M204 35q41 0 73 16.5t53.5 43.5t32.5 61.5t10 70.5q1 61 -32.5 86.5t-94.5 25.5h-60l1 25l212 227l45 35v4l-54 -6h-162l-61 -102h-25q1 43 4.5 92.5t11.5 85.5h386l-1 -31l-206 -223l-59 -44v-2l35 7q81 -7 118.5 -48t37.5 -114q0 -51 -16.5 -98t-51.5 -82t-90 -56
t-133 -21q-23 0 -48.5 3.5t-49 10.5t-43 16t-31.5 21l46 90h20l13 -18l17 -23l17.5 -24l14.5 -21q10 -2 27 -5t43 -3z" />
    <glyph glyph-name="four" unicode="4" 
d="M415 0h-259l5 29q26 8 50 14t48 10l29 140h-305l5 23l475 496h27l-99 -467h128l-12 -52h-127l-30 -140q17 -4 35 -10t35 -14zM354 502l29 72h-3l-53 -72l-217 -231l-47 -33l73 7h164z" />
    <glyph glyph-name="five" unicode="5" 
d="M541 755h25q-3 -15 -8.5 -33.5t-12 -37t-14 -35.5t-13.5 -28h-247l-64 -193h49q96 0 148.5 -43t52.5 -126q0 -60 -20 -110t-56.5 -86t-88 -55.5t-115.5 -19.5q-24 0 -47.5 3.5t-45.5 10.5t-39.5 16.5t-29.5 20.5l47 90h20q5 -7 11.5 -18l13.5 -23l14 -24t13 -21
q10 -2 22 -5t30 -3q48 0 83 16.5t57.5 44.5t33.5 64t11 74q0 66 -43.5 94t-121.5 26l-71 -1l113 347h239z" />
    <glyph glyph-name="six" unicode="6" 
d="M500 264q0 -47 -16.5 -96t-50.5 -89t-86 -65.5t-123 -25.5q-35 0 -68.5 9.5t-59.5 32.5t-41.5 60t-15.5 93q0 81 33 164.5t95 157t150.5 130t199.5 83.5l4 -30q-132 -48 -221.5 -132.5t-134.5 -211.5q24 29 68.5 50.5t98.5 21.5q87 0 127.5 -42t40.5 -110zM404 255
q0 53 -24.5 81t-84.5 28q-45 0 -83 -23t-61 -53q-3 -8 -6 -21.5t-5 -27.5t-3.5 -27.5t-1.5 -20.5q0 -31 4.5 -59.5t16.5 -50t32.5 -34.5t51.5 -13q43 0 74 22.5t51 56t29.5 72t9.5 70.5z" />
    <glyph glyph-name="seven" unicode="7" 
d="M129 521h-25q2 43 6 93t11 86h414v-29q-71 -86 -124 -166.5t-95 -161.5t-76 -165.5t-67 -177.5h-100q62 143 144 288.5t193 291.5l40 48l-53 -5h-207z" />
    <glyph glyph-name="eight" unicode="8" 
d="M12 136q0 74 52.5 130t152.5 85q-49 35 -73.5 73t-24.5 87q0 42 15.5 79t44.5 64t71 42.5t95 15.5q85 0 126 -37t41 -99q0 -30 -12.5 -59t-35.5 -55t-56 -47t-73 -35q28 -19 50 -37.5t37.5 -40t24 -47.5t8.5 -60q0 -38 -16 -75.5t-48 -66.5t-80.5 -47t-112.5 -18
q-88 0 -137 40.5t-49 107.5zM369 180q0 26 -10 47t-27 39.5t-41 35.5t-52 34q-44 -23 -71.5 -49t-43 -52t-21 -50.5t-5.5 -43.5q0 -48 30 -77.5t81 -29.5q43 0 73.5 13.5t49.5 34.5t28 47t9 51zM205 528q0 -20 9.5 -39t24.5 -36.5t34.5 -32.5t40.5 -27q60 45 86.5 90
t25.5 87q1 40 -21 67.5t-75 27.5q-30 0 -53.5 -11t-39.5 -30t-24 -44t-8 -52z" />
    <glyph glyph-name="nine" unicode="9" 
d="M61 442q0 47 16.5 96t50.5 89t85.5 65.5t122.5 25.5q35 0 68.5 -9.5t59.5 -32.5t42 -60.5t16 -92.5q0 -81 -33 -164.5t-95.5 -157t-151 -130t-199.5 -83.5l-4 29q133 48 222 132.5t134 211.5q-24 -29 -68 -50.5t-98 -21.5q-88 0 -128 42t-40 111zM157 451q0 -53 24 -81.5
t84 -28.5q45 0 83 23.5t61 53.5q3 8 6 21.5t5.5 27.5t4 27t1.5 21q0 31 -5 59.5t-17 50t-32.5 34t-51.5 12.5q-43 0 -74 -22.5t-50.5 -55.5t-29 -71.5t-9.5 -70.5z" />
    <glyph glyph-name="colon" unicode=":" horiz-adv-x="323" 
d="M126 442q0 30 19 48t49 18q31 0 50 -18t19 -48q0 -29 -19 -47t-50 -18q-30 0 -49 18t-19 47zM76 57q0 30 19 48t49 18q31 0 50 -18t19 -48q0 -29 -19 -47t-50 -18q-30 0 -49 18t-19 47z" />
    <glyph glyph-name="semicolon" unicode=";" horiz-adv-x="312" 
d="M121 442q0 30 19 48t49 18q31 0 50 -18t19 -48q0 -29 -19 -47t-50 -18q-30 0 -49 18t-19 47zM-3 -149q21 7 41 21.5t36.5 32.5t27 39.5t13.5 42.5q-10 11 -27.5 22t-31.5 16q-1 19 7 37t20 32t25.5 22.5t24.5 9.5q34 -5 51 -24t17 -57t-16.5 -74t-43 -66t-61 -52
t-70.5 -32z" />
    <glyph glyph-name="less" unicode="&#x3c;" 
d="M44 324v31l385 235l25 -44l-250 -151l-86 -40l85 -31l265 -156l-40 -65z" />
    <glyph glyph-name="equal" unicode="=" 
d="M13 450h450v-53h-450v53zM13 290h450v-53h-450v53z" />
    <glyph glyph-name="greater" unicode="&#x3e;" 
d="M480 369v-31l-385 -235l-24 44l250 151l85 40l-84 31l-266 156l40 65z" />
    <glyph glyph-name="question" unicode="?" horiz-adv-x="494" 
d="M194 519h-25l-4.5 32t-4.5 38t-2 40.5t2 40.5q43 23 86.5 32.5t94.5 9.5q80 0 123 -35.5t43 -98.5q0 -50 -21 -86.5t-53 -66t-70 -55t-72 -53t-59 -60.5t-30 -77h-20q-4 52 11.5 91t40.5 70.5t56 58t57.5 53t44.5 55t19 65.5q-1 45 -26.5 66t-66.5 21q-32 0 -53.5 -5
t-31.5 -13zM118 57q0 30 19 48t49 18q31 0 50 -18t19 -48q0 -29 -19 -47t-50 -18q-30 0 -49 18t-19 47z" />
    <glyph glyph-name="at" unicode="@" horiz-adv-x="1007" 
d="M655 474q37 17 75 16l-51 -286q-6 -33 -8.5 -60t0 -46.5t11 -30t25.5 -10.5q33 0 68 18.5t64.5 53.5t48 85t18.5 112q0 76 -28.5 138t-79 105.5t-118 67t-144.5 23.5q-92 0 -165.5 -32.5t-125.5 -89t-80 -133t-28 -163.5q0 -89 29 -157.5t81.5 -116t125 -72t159.5 -24.5
q29 0 66 7t67 21l16 -44q-35 -20 -77 -28t-93 -8q-86 0 -164 26t-137.5 78t-94.5 130t-35 182q0 109 36 197t98.5 150t146.5 95.5t180 33.5q90 0 167.5 -26.5t134.5 -76t88.5 -121t31.5 -162.5q0 -65 -22 -123t-60.5 -102t-88.5 -70t-105 -26q-30 0 -51 9.5t-32 31
t-11.5 55.5t10.5 82h-4q-11 -32 -30.5 -63.5t-44.5 -57t-53.5 -41.5t-57.5 -16q-60 0 -92.5 41.5t-32.5 110.5q0 64 21.5 125t58 109t84.5 77t101 29q36 0 57 -6t45 -17zM638 426q-16 10 -32.5 15t-42.5 4q-38 1 -72 -25.5t-59 -67.5t-39.5 -89.5t-14.5 -93.5q0 -48 15 -75
t57 -27q19 0 41 18.5t43.5 48.5t42 67.5t36.5 75.5z" />
    <glyph glyph-name="A" unicode="A" horiz-adv-x="674" 
d="M176 0h-225l6 29q39 16 78 24l395 659h26l113 -659q18 -4 36.5 -9.5t33.5 -14.5l-5 -29h-254l5 29q45 17 88 24l-30 183h-235l-107 -183q43 -6 80 -24zM237 288h198l-32 212l-2 86h-2l-40 -88z" />
    <glyph glyph-name="B" unicode="B" horiz-adv-x="605" 
d="M-20 0l5 29q45 19 88 24l125 593q-20 4 -39 10.5t-38 14.5l7 29h106q37 0 74 3t93 3q40 0 76 -7t63 -22t43 -39.5t16 -60.5q0 -35 -10.5 -66.5t-32.5 -58t-55.5 -46.5t-78.5 -32v-4q23 -2 47 -10t43.5 -23.5t31.5 -39t12 -55.5q0 -53 -20 -98t-59.5 -78.5t-99.5 -52.5
t-140 -19q-35 0 -77.5 3t-83.5 3h-96zM256 46q41 -1 78 11t65 35t44.5 56.5t16.5 76.5q0 33 -11.5 54t-33 32t-51.5 15t-67 4h-76l-58 -276q13 -4 32 -6.5t61 -1.5zM282 382q17 0 40.5 1.5t40.5 3.5q79 28 109.5 75.5t30.5 103.5q0 39 -28 63.5t-94 24.5q-32 0 -54.5 -1.5
t-37.5 -3.5l-57 -267h50z" />
    <glyph glyph-name="C" unicode="C" horiz-adv-x="635" 
d="M557 182h25q0 -28 -5.5 -70.5t-16.5 -82.5q-20 -11 -43 -19t-48 -13t-49 -7t-45 -2q-85 0 -144 24t-95.5 63t-53 87t-16.5 96q0 102 29 185.5t82.5 143t130 92.5t172.5 33q66 0 112 -9t77 -25q-3 -16 -8.5 -37.5t-13 -45.5t-15.5 -47l-15 -42h-26l-21 144
q-13 5 -39.5 7.5t-51.5 2.5q-66 0 -122 -25.5t-97 -75.5t-64 -125t-23 -174q0 -62 21.5 -104.5t54 -68.5t70.5 -37t72 -10q34 -1 57.5 5t34.5 13z" />
    <glyph glyph-name="D" unicode="D" horiz-adv-x="702" 
d="M-20 0l5 29q41 17 88 24l125 593q-22 5 -41.5 11.5t-35.5 13.5l7 29h101q17 0 40.5 1t48 2.5l47.5 3t38 1.5q80 0 136 -19t90.5 -51.5t50 -77t15.5 -95.5t-8.5 -106.5t-28.5 -108t-53.5 -99.5t-84 -82.5t-119.5 -56.5t-159 -21q-15 0 -35.5 1.5t-43.5 3l-46 3t-42 1.5
h-95zM383 656q-26 0 -53 -1t-41 -3l-128 -606q10 -1 24.5 -1.5l29 -1t26 -1t17.5 0.5q94 -1 157.5 37t102 99.5t54.5 138t16 153.5q0 39 -9 73t-32 58.5t-62.5 39t-101.5 14.5z" />
    <glyph glyph-name="E" unicode="E" horiz-adv-x="572" 
d="M601 700q-8 -40 -19 -81t-26 -81h-26l-17 110h-219l-55 -265h162l55 74h25q-8 -50 -18.5 -100.5t-24.5 -101.5h-25l-23 76h-163l-58 -279h229l75 120h25q-2 -39 -8 -83.5t-17 -88.5h-493l5 29q41 17 88 24l125 593q-20 5 -39 11t-38 14l7 29h473z" />
    <glyph glyph-name="F" unicode="F" horiz-adv-x="535" 
d="M159 53q42 -6 80 -24l-5 -29h-254l5 29q18 8 38 14t40 10l125 593q-20 6 -37 12t-30 13l7 29h469q-9 -39 -20 -80t-26 -82h-26l-17 110h-224l-60 -285h175l54 74h25q-5 -45 -16.5 -100.5t-25.5 -101.5h-25l-22 77h-176z" />
    <glyph glyph-name="G" unicode="G" horiz-adv-x="679" 
d="M571 48q-22 -13 -50 -24t-57.5 -19t-59 -12.5t-54.5 -4.5q-133 0 -208.5 70.5t-75.5 200.5q0 101 28.5 184.5t82.5 143t131.5 92.5t175.5 33q66 0 113 -8.5t78 -25.5q-3 -15 -8.5 -37t-13 -46l-15.5 -47.5t-15 -41.5h-26l-21 144q-18 5 -45 7.5t-52 2.5
q-77 0 -134.5 -31.5t-95.5 -85.5t-57 -126.5t-19 -155.5q0 -71 20 -114.5t49.5 -67.5t63 -32t61.5 -7q40 -1 74 12t47 23l44 202q-26 2 -48 9t-43 15l7 29h245l-6 -29q-11 -7 -27 -13t-41 -11z" />
    <glyph glyph-name="H" unicode="H" horiz-adv-x="719" 
d="M233 0h-253l5 29q22 10 44 15.5t44 8.5l125 593q-45 9 -77 25l7 29h253l-6 -29q-17 -9 -39 -15t-42 -10l-55 -261h314l56 261q-20 5 -37.5 10.5t-33.5 14.5l7 29h253l-6 -29q-20 -10 -42.5 -15.5t-44.5 -9.5l-126 -593q45 -8 76 -24l-5 -29h-253l5 29q19 8 39.5 14
t41.5 10l59 280h-315l-58 -280q18 -4 36 -10t33 -14z" />
    <glyph glyph-name="I" unicode="I" horiz-adv-x="343" 
d="M255 0h-256l5 29q44 18 86 24l125 593q-20 4 -38 10.5t-37 14.5l7 29h256l-6 -29q-20 -8 -43 -14.5t-43 -10.5l-125 -593q20 -4 39.5 -10t34.5 -14z" />
    <glyph glyph-name="J" unicode="J" horiz-adv-x="331" 
d="M136 700h255l-5 -29q-20 -9 -43 -15t-43 -10l-118 -560q-15 -69 -40.5 -114t-55 -72.5t-59 -41t-52.5 -18.5l-7 15q20 16 36.5 32.5t30.5 41t26 59.5t23 87l120 571q-43 10 -74 25z" />
    <glyph glyph-name="K" unicode="K" horiz-adv-x="637" 
d="M476 700h227l-7 -29q-18 -9 -40 -15t-41 -10l-259 -270l41.5 -73l50 -83l55 -87l56.5 -84l43 -24l-5 -25h-121l-29 24q-45 69 -87 149t-79 162h-53l-59 -282q41 -8 69 -24l-5 -29h-253l5 29q45 18 88 24l125 593q-22 4 -41.5 10t-35.5 15l7 29h253l-6 -29
q-34 -16 -81 -25l-58 -277l60 14l240 263q-20 5 -36 10.5t-31 14.5z" />
    <glyph glyph-name="L" unicode="L" horiz-adv-x="538" 
d="M128 700h274l-7 -29q-25 -9 -50.5 -15.5t-50.5 -9.5l-125 -594h229l93 161h26q-2 -21 -5 -48.5t-7.5 -57t-10 -57.5t-11.5 -50h-503l5 29q27 11 48 16t40 8l125 593q-47 9 -77 25z" />
    <glyph glyph-name="M" unicode="M" horiz-adv-x="857" 
d="M787 0h-248l5 29q22 8 43 13.5t44 10.5l94 450l30 117h-8l-54 -107l-316 -513h-26l-87 513l-11 117h-9l-26 -127l-95 -450q18 -4 36 -10t35 -14l-6 -29h-208l5 29q40 17 87 25l125 592q-20 4 -40 10.5t-37 14.5l6 29h208l71 -457l12 -103h1l52 105l282 455h184l-7 -29
q-39 -17 -81 -25l-126 -594q20 -4 38 -9.5t32 -13.5z" />
    <glyph glyph-name="N" unicode="N" horiz-adv-x="723" 
d="M588 700h213l-6 -29q-20 -14 -44 -24t-46 -16l-137 -643h-54l-251 551l-21 78h-3l-10 -78l-100 -475q18 -5 36 -14t33 -21l-6 -29h-212l5 29q43 26 90 35l122 573q-19 8 -36.5 17t-31.5 18l5 28h166l215 -475l30 -86h4l16 86l86 406q-40 17 -69 40z" />
    <glyph glyph-name="O" unicode="O" horiz-adv-x="730" 
d="M66 278q0 91 27.5 170t79.5 137.5t125 92.5t165 34q73 0 123 -24t80.5 -63t44 -89.5t13.5 -104.5q0 -80 -22.5 -159.5t-69.5 -142.5t-118.5 -102t-169.5 -39q-72 0 -124.5 23.5t-86.5 63t-50.5 92t-16.5 111.5zM173 277q0 -55 14.5 -99t40 -75t60 -47.5t75.5 -15.5
q73 -1 121.5 35.5t78 94t42 127t12.5 135.5q0 51 -11.5 93t-34.5 72t-56.5 46.5t-77.5 16.5q-69 0 -119 -36t-82.5 -92t-47.5 -124t-15 -131z" />
    <glyph glyph-name="P" unicode="P" horiz-adv-x="585" 
d="M169 53q26 -3 48.5 -9.5t41.5 -14.5l-5 -29h-274l5 29q23 10 44.5 15t43.5 9l125 593q-22 4 -41 10.5t-36 14.5l7 29h90q40 0 87.5 4t90.5 4q48 0 88.5 -9.5t69 -30t44.5 -51t16 -72.5q0 -59 -21.5 -109t-62 -87t-97.5 -58t-127 -21h-16.5t-25 0.5t-27 1.5t-22.5 2z
M370 656q-24 0 -42.5 -1.5t-32.5 -3.5l-68 -324q5 -1 14.5 -2t20 -1.5t20 -1t15.5 -0.5q104 0 157 59.5t53 162.5q0 25 -5.5 45.5t-21 35.5t-42 23t-68.5 8z" />
    <glyph glyph-name="Q" unicode="Q" horiz-adv-x="750" 
d="M742 -115q-48 -36 -95 -61.5t-96 -24.5q-41 0 -82.5 15t-88 36l-99.5 44t-116 40l35 20q47 6 90.5 0t85 -18t83.5 -25.5t86 -22t92 -7.5t103 18zM66 278q0 91 27.5 170t79.5 137.5t125 92.5t165 34q73 0 123 -24t80.5 -63t44 -89.5t13.5 -104.5q0 -80 -22.5 -159.5
t-69.5 -142.5t-118.5 -102t-169.5 -39q-72 0 -124.5 23.5t-86.5 63t-50.5 92t-16.5 111.5zM173 277q0 -55 14.5 -99t40 -75t60 -47.5t75.5 -15.5q73 -1 121.5 35.5t78 94t42 127t12.5 135.5q0 51 -11.5 93t-34.5 72t-56.5 46.5t-77.5 16.5q-69 0 -119 -36t-82.5 -92
t-47.5 -124t-15 -131z" />
    <glyph glyph-name="R" unicode="R" horiz-adv-x="627" 
d="M169 53q44 -8 79 -24l-5 -29h-263l5 29q24 10 45.5 15t42.5 9l125 593q-24 6 -43.5 12t-33.5 13l7 29h88q40 0 88.5 4t92.5 4q99 0 147.5 -42.5t48.5 -120.5q0 -39 -13.5 -75t-38 -65t-60 -50.5t-80.5 -32.5q29 -68 63.5 -135l71.5 -133l47 -29l-5 -25h-114l-34 28
q-21 35 -37.5 69t-30 68t-24 70t-19.5 75h-96zM364 656q-23 0 -39.5 -1.5t-30.5 -3.5l-62 -298h71q53 -1 89.5 16t59 45.5t33 64.5t10.5 74q1 54 -30.5 78.5t-100.5 24.5z" />
    <glyph glyph-name="S" unicode="S" horiz-adv-x="527" 
d="M121 69q11 -9 37 -19.5t55 -9.5q33 -1 64 5t56 21t40 39.5t15 61.5q0 41 -19.5 69t-48.5 49.5t-62.5 41t-62.5 43.5t-48.5 56.5t-19.5 80.5q0 46 16.5 83.5t49 64.5t79.5 42t107 15q61 0 109 -9.5t75 -23.5q-4 -17 -11.5 -39.5l-15.5 -46.5t-17 -46.5l-16 -39.5h-26
l-12 137q-17 8 -43.5 12t-57.5 4q-30 0 -56.5 -7t-46 -21.5t-30.5 -36.5t-11 -52q0 -40 19.5 -66.5t48.5 -47.5t62.5 -40.5t62.5 -44.5t48.5 -60.5t19.5 -87.5q0 -47 -18.5 -85t-53 -65.5t-85 -42.5t-114.5 -15q-32 0 -61.5 4t-54 11t-43.5 15.5t-29 16.5q4 18 11.5 42.5
t16.5 49.5l18 48.5t17 40.5h26z" />
    <glyph glyph-name="T" unicode="T" horiz-adv-x="610" 
d="M401 0h-281l5 29q24 9 47.5 14.5t51.5 9.5l126 595h-153l-83 -143h-26q1 20 4.5 45.5t7.5 52t8.5 52t9.5 45.5h580q-4 -20 -10 -45t-13 -51.5t-14.5 -52t-14.5 -46.5h-26l-21 143h-153l-126 -595q24 -5 45.5 -10t40.5 -14z" />
    <glyph glyph-name="U" unicode="U" horiz-adv-x="666" 
d="M112 700h254l-6 -29q-39 -17 -81 -25l-85 -397q-11 -53 -6 -90.5t24 -61.5t50 -35t72 -11q81 0 129.5 45t68.5 142l85 399q-44 15 -72 34l6 29h214l-7 -29q-17 -11 -40 -20t-45 -14l-85 -401q-28 -131 -98.5 -188t-181.5 -57q-66 0 -111.5 19t-71.5 52.5t-33 80t5 100.5
l86 403q-20 4 -41 10.5t-36 14.5z" />
    <glyph glyph-name="V" unicode="V" horiz-adv-x="674" 
d="M634 646q-23 5 -43 11t-38 14l7 29h222l-6 -29q-17 -8 -35.5 -14t-41.5 -11l-362 -646l-55 -12l-116 658q-23 5 -40.5 11.5t-30.5 13.5l6 29h263l-6 -29q-18 -8 -41 -14t-46 -11l73 -457l5 -80h2l37 82z" />
    <glyph glyph-name="W" unicode="W" horiz-adv-x="925" 
d="M887 646q-20 4 -41.5 10t-38.5 15l6 29h220l-6 -29q-19 -10 -38.5 -15l-38.5 -10l-304 -646l-64 -12l-46 544l-271 -532l-62 -12l-37 658q-39 9 -71 25l6 29h258l-6 -29q-20 -8 -41.5 -14t-45.5 -11l13 -405l-3 -130h2l61 132l233 457h35l42 -457l5 -130h2l53 132z" />
    <glyph glyph-name="X" unicode="X" horiz-adv-x="661" 
d="M499 700h230l-7 -29q-18 -8 -38.5 -14t-41.5 -11l-238 -271l137 -322q46 -8 75 -24l-5 -29h-266l5 29q38 18 81 24l-101 251l-210 -252q20 -3 39.5 -7.5t36.5 -15.5l-6 -29h-230l6 29q20 10 40 15t40 9l262 299l-124 294q-20 5 -38 10.5t-36 14.5l6 29h266l-6 -29
q-31 -14 -82 -25l89 -226l187 226l-38 10t-39 15z" />
    <glyph glyph-name="Y" unicode="Y" horiz-adv-x="635" 
d="M520 700h223l-7 -29q-20 -10 -40 -15.5t-40 -9.5l-263 -348l-52 -245q37 -5 70 -24l-5 -29h-254l5 29q40 18 88 24l52 244l-129 349q-22 4 -40.5 10.5t-35.5 14.5l7 29h264l-6 -29l-36 -13t-46 -12l101 -294l212 294q-21 5 -39.5 11t-34.5 14z" />
    <glyph glyph-name="Z" unicode="Z" horiz-adv-x="603" 
d="M529 192h26q-2 -21 -5 -46t-7 -50.5t-8.5 -50.5t-9.5 -45h-520v51l526 597h-291l-91 -140h-26q1 21 4.5 46t7.5 51t8.5 50.5t9.5 44.5h497v-52l-526 -596h314z" />
    <glyph glyph-name="bracketleft" unicode="[" horiz-adv-x="307" 
d="M190 700h189l-9 -43h-104l-180 -844h104l-8 -43h-189z" />
    <glyph glyph-name="backslash" unicode="\" horiz-adv-x="382" 
d="M409 -107l-41 -23l-415 820l42 22z" />
    <glyph glyph-name="bracketright" unicode="]" horiz-adv-x="307" 
d="M131 -230h-188l9 43h103l180 844h-104l8 43h189z" />
    <glyph glyph-name="asciicircum" unicode="^" horiz-adv-x="519" 
d="M291 711h33l170 -277h-89l-88 151l-23 67l-33 -68l-99 -150h-57z" />
    <glyph glyph-name="underscore" unicode="_" horiz-adv-x="410" 
d="M-45 -143h410v-53h-410v53z" />
    <glyph glyph-name="grave" unicode="`" horiz-adv-x="323" 
d="M325 593l-22 -17l-166 149v20q6 5 19.5 9.5t29.5 7.5t30.5 4.5t22.5 0.5z" />
    <glyph glyph-name="a" unicode="a" horiz-adv-x="535" 
d="M189 50q27 0 54 25.5t51 61.5t43 75t30 65l32 171q-14 10 -27 14t-36 4q-46 0 -83.5 -28.5t-64 -73.5t-41 -100t-14.5 -108q0 -51 12.5 -78.5t43.5 -27.5zM347 196q-13 -36 -32.5 -73t-45 -67t-56.5 -49t-66 -19q-104 0 -104 151q0 70 20 136.5t58 118.5t92.5 83.5
t123.5 31.5q25 0 40 -4.5t36 -13.5q40 21 84 21l-90 -457h73v-25q-20 -16 -48 -26t-55 -10q-29 0 -41.5 12.5t-12.5 26.5q0 18 7 59t21 104h-4z" />
    <glyph glyph-name="b" unicode="b" horiz-adv-x="526" 
d="M164 682l-70 9v23q16 6 35 12t38.5 11.5t38.5 9t35 5.5l21 -11l-88 -417h5q18 36 39.5 70t46 60t51.5 42t57 16q53 0 84 -37t31 -115q0 -77 -21.5 -144.5t-60.5 -118t-94 -80t-122 -29.5q-49 0 -91.5 12.5t-62.5 29.5zM331 450q-26 0 -51 -23t-46.5 -55.5t-39 -68
l-29.5 -59.5l-38 -192q15 -10 37.5 -15.5t44.5 -5.5q39 0 73.5 27t60.5 71t41 99.5t14 112.5q1 48 -15 78.5t-52 30.5z" />
    <glyph glyph-name="c" unicode="c" horiz-adv-x="428" 
d="M382 89q-11 -19 -28 -37t-40 -32.5t-51.5 -23t-62.5 -8.5q-74 0 -117 47t-43 128q0 72 23 135.5t62.5 111t93 75t114.5 27.5q38 0 62 -6t36 -17q1 -11 -1.5 -24.5t-8 -26.5t-14 -24t-17.5 -15l-68 70q-34 -1 -67.5 -21t-60 -57t-43 -89.5t-15.5 -118.5q-1 -69 27.5 -101
t77.5 -32q21 0 39.5 6t34.5 15t29 19l23 18z" />
    <glyph glyph-name="d" unicode="d" horiz-adv-x="535" 
d="M191 50q27 0 54 25.5t51 61.5t43 75t30 65l32 171q-15 10 -27.5 13.5t-35.5 4.5q-48 -1 -86 -29.5t-64 -73t-39.5 -99.5t-13.5 -108q0 -51 12.5 -78.5t43.5 -27.5zM349 196q-13 -36 -33 -73t-45.5 -67t-56 -49t-65.5 -19q-104 0 -104 152q0 71 20 137.5t58 118t92 82.5
t123 31q26 0 39 -3.5t33 -12.5l38 189l-70 9v25q15 6 33 11.5t37.5 10t39.5 8.5t37 6l21 -8l-137 -689h73v-25q-20 -16 -48 -26t-55 -10q-29 0 -41.5 12.5t-12.5 26.5q0 18 7 59t21 104h-4z" />
    <glyph glyph-name="e" unicode="e" horiz-adv-x="454" 
d="M392 89q-9 -19 -26 -37t-40 -32.5t-52 -23t-62 -8.5q-83 0 -127.5 47.5t-44.5 131.5q0 71 20 134t56 110t87.5 74t114.5 27q48 0 82.5 -24.5t34.5 -72.5q0 -71 -70.5 -112t-227.5 -53q-4 -17 -5.5 -33t-1.5 -31q0 -60 30.5 -98t89.5 -38q19 0 37.5 6t35 15t30 19l23.5 18
zM287 469q-43 -1 -80 -40.5t-63 -135.5q97 3 151 33.5t54 84.5q0 21 -12.5 39t-49.5 19z" />
    <glyph glyph-name="f" unicode="f" horiz-adv-x="297" 
d="M129 450h-73v26q20 11 42.5 19.5t42.5 13.5l7 35q13 62 35.5 102.5t52.5 64t66 32.5t77 9q17 0 40.5 -4t39.5 -12q-2 -22 -10.5 -45.5t-28.5 -40.5l-76 62q-18 -5 -33 -11t-28.5 -22.5t-25.5 -46.5t-23 -82l-10 -50h111q5 -25 -10 -50h-111l-64 -407q-11 -71 -37 -118
t-55.5 -76t-57.5 -43t-43 -18l-9 22q12 6 29 21.5t33.5 41.5t31 63.5t22.5 87.5z" />
    <glyph glyph-name="g" unicode="g" horiz-adv-x="489" 
d="M280 512q48 0 78.5 -12t47.5 -26q9 8 24 16t32 15t35 13l34 11q3 -5 5 -15t1.5 -22t-4 -24.5t-10.5 -22.5l-103 7q3 -9 6 -20.5t3 -25.5q0 -40 -16.5 -74t-45.5 -58.5t-67.5 -38.5t-81.5 -14q-17 0 -27.5 0.5t-23.5 3.5q-9 -10 -24.5 -23.5t-15.5 -29.5q0 -17 22 -26
t55.5 -16.5l72.5 -16t72.5 -23t55.5 -37.5t22 -61q0 -47 -26.5 -84.5t-70 -64t-99 -41t-112.5 -14.5q-46 0 -79 9.5t-54 26t-31 37.5t-10 44q0 28 12.5 52t33.5 45.5t48 39.5t56 34q-15 8 -24.5 21.5t-9.5 30.5q0 15 10 31.5t23.5 31.5t27 26t20.5 16q-12 3 -24.5 11
t-23.5 21t-18 30t-7 38q0 39 16.5 72t45.5 56.5t67 37t82 13.5zM165 -169q31 0 61.5 9t55 25.5t40 41t15.5 55.5q0 30 -24.5 46.5t-59.5 26.5t-72.5 16.5t-64.5 15.5q-47 -34 -64.5 -71t-16.5 -69q-1 -45 34.5 -70.5t95.5 -25.5zM272 472q-29 0 -51.5 -11t-38.5 -29.5
t-24 -43.5t-8 -53q0 -38 24.5 -56t52.5 -18q30 0 51.5 10.5t36 28.5t21.5 41t7 48q0 37 -17.5 60t-53.5 23z" />
    <glyph glyph-name="h" unicode="h" horiz-adv-x="543" 
d="M103 691v23q15 6 33.5 12.5t38.5 12t39 9t36 4.5l21 -9l-90 -420h5q19 40 43 74.5t50.5 60t55.5 40t59 14.5q46 0 66.5 -26.5t20.5 -65.5q0 -27 -5 -58t-12 -60l-57 -246h74v-26q-20 -16 -48 -26t-56 -10q-29 0 -40 12t-11 26q0 18 5 40.5l10 45.5l36 167q7 31 12.5 58
t5.5 52q0 23 -10 39t-27 16q-31 0 -60 -22t-54 -53t-44 -64.5t-29 -55.5l-53 -255h-84l137 682z" />
    <glyph glyph-name="i" unicode="i" horiz-adv-x="277" 
d="M71 451v25q15 6 34 12.5t39 11.5t38 8.5t32 3.5l18 -12l-94 -444h74v-26q-21 -16 -49 -26t-55 -10q-29 0 -41.5 13t-12.5 30q0 20 3 39t8 42l70 323zM151 673q0 26 16 41t42 15q28 0 44 -15t16 -41q0 -25 -16 -39t-44 -14q-26 0 -42 14t-16 39z" />
    <glyph glyph-name="j" unicode="j" horiz-adv-x="275" 
d="M133 442l-60 9v25q31 14 69 25t69 11l20 -12l-97 -457q-15 -71 -41.5 -118t-55.5 -76t-55.5 -43t-42.5 -18l-12 22q12 6 28 20.5t32 40t31.5 63.5t26.5 90zM146 673q0 26 16 41t42 15q28 0 44 -15t16 -41q0 -25 -16 -39t-44 -14q-26 0 -42 14t-16 39z" />
    <glyph glyph-name="k" unicode="k" horiz-adv-x="481" 
d="M299 45q-32 54 -54 102.5l-42 90.5l-36 10l-47 -248h-86l136 682l-70 9v25q29 13 70.5 23.5t76.5 12.5l21 -11l-94 -467h29q21 13 43.5 32t43 39t36.5 38.5t25 31.5q1 7 1.5 19t0 24.5l-1 24t-1.5 17.5q37 13 72 13q36 0 60 -13q-13 -33 -40 -66t-58 -61.5t-61 -52
t-48 -36.5q7 -19 22.5 -49.5t34 -63.5t39 -64t37.5 -51h63v-26q-20 -16 -43.5 -26t-49.5 -10q-24 0 -43 11t-36 40z" />
    <glyph glyph-name="l" unicode="l" horiz-adv-x="277" 
d="M174 682l-71 9v25q14 6 32.5 12t39 11.5t40.5 9t36 3.5l20 -11l-138 -685h73v-26q-20 -16 -48.5 -26t-55.5 -10q-29 0 -42.5 13t-13.5 30q0 20 3 39t8 42z" />
    <glyph glyph-name="m" unicode="m" horiz-adv-x="800" 
d="M633 300q6 24 11.5 50t6.5 43q-1 26 -8.5 41.5t-30.5 15.5q-24 0 -49 -19t-47.5 -48t-41 -63t-30.5 -64l-61 -256h-80l63 281q7 31 12 59.5t5 59.5q0 23 -8 36.5t-28 13.5t-44 -19t-47 -48t-42.5 -63t-31.5 -65l-53 -255h-86l93 442l-61 9v25q33 17 71.5 26.5t66.5 9.5
l21 -12l-44 -177h4q12 28 33.5 61t49.5 61.5t60 47.5t64 19q12 0 24 -4t21 -14.5t15 -28.5t6 -46q0 -22 -4.5 -47t-10.5 -49q15 34 38 67.5t50 60.5t57.5 44t62.5 17q38 0 57.5 -24t19.5 -66q0 -32 -6 -60.5l-13 -61.5l-65 -244h74v-26q-20 -16 -49 -26t-55 -10
q-29 0 -40 13t-11 31q0 29 14 80z" />
    <glyph glyph-name="n" unicode="n" horiz-adv-x="552" 
d="M386 285l12.5 57.5t5.5 52.5q0 23 -10.5 39t-33.5 16q-27 0 -55 -22t-52 -53t-43.5 -64.5t-29.5 -55.5l-53 -255h-84l88 442l-61 9l2 25q14 7 31.5 13.5t36 11.5t36 8t32.5 3l20 -12l-38 -177h5q19 40 43.5 74.5t52 60t57.5 40t61 14.5q42 0 61.5 -26.5t19.5 -66.5
q0 -22 -5 -55t-12 -62l-57 -246h74v-26q-20 -16 -48.5 -26t-55.5 -10q-29 0 -40 12t-11 26q0 19 5 41.5l10 45.5z" />
    <glyph glyph-name="o" unicode="o" horiz-adv-x="509" 
d="M41 186q0 53 16.5 110.5t50.5 105.5t85 79t119 31q78 0 117.5 -48t39.5 -142q0 -66 -19 -126.5t-53 -106.5t-82 -73.5t-106 -27.5q-77 0 -122.5 49.5t-45.5 148.5zM292 469q-49 -1 -80 -32t-49 -77t-25 -99t-7 -97q0 -59 26 -96t70 -37q35 0 62.5 26.5t47 70t30 98.5
t10.5 111q0 59 -20.5 95t-64.5 37z" />
    <glyph glyph-name="p" unicode="p" horiz-adv-x="542" 
d="M97 -146q35 -6 70 -25v-29h-157l-9 9l43 199l93 434l-61 9v25q33 14 69.5 25t68.5 11l20 -12l-41 -176h4q18 40 39.5 74t46.5 59.5t54 40t62 14.5q22 0 42 -8.5t35 -26t23.5 -43.5t8.5 -60q0 -77 -23 -147t-62.5 -123t-92.5 -84.5t-114 -31.5q-17 0 -29 1t-21 3.5
t-17.5 6.5l-18.5 9zM352 450q-29 0 -55 -22.5t-48.5 -54.5t-40.5 -67.5t-29 -62.5l-39 -189q14 -12 29.5 -17.5t49.5 -5.5q40 0 75.5 29.5t62 75.5t42 102.5t15.5 111.5q0 48 -16.5 74t-45.5 26z" />
    <glyph glyph-name="q" unicode="q" horiz-adv-x="515" 
d="M354 -146q33 -6 70 -25v-29h-157l-9 8l89 387h-4q-13 -35 -32.5 -72t-45 -67t-56 -49t-65.5 -19q-104 0 -104 152q0 71 19 137.5t56.5 118t93 82.5t129.5 31q22 0 44.5 -3t42.5 -7.5t36.5 -10t26.5 -10.5zM186 50q27 0 53.5 25.5t50.5 61.5t43 74.5t30 64.5l33 176
q-11 8 -26 11t-38 3q-51 0 -89 -28.5t-63.5 -73.5t-38 -100t-11.5 -108q-1 -51 12 -78.5t44 -27.5z" />
    <glyph glyph-name="r" unicode="r" horiz-adv-x="385" 
d="M305 439q-26 -10 -58.5 -50.5t-57.5 -109.5l-60 -279h-86l93 442l-61 9v25q34 16 71 24.5t67 11.5l20 -12l-28 -133h4q29 66 71 105.5t90 39.5q13 0 26 -2.5t25 -9.5q0 -9 -3 -23.5t-8.5 -29.5t-12 -28.5t-13.5 -20.5z" />
    <glyph glyph-name="s" unicode="s" horiz-adv-x="418" 
d="M255 118q-1 24 -13.5 41.5t-32 33.5t-41.5 32t-41.5 35.5t-32 45t-12.5 61.5t14 63t38.5 45t59 27.5t75.5 9.5q26 0 58.5 -4.5t61.5 -21.5q0 -11 -4 -25.5t-10.5 -28t-14.5 -25t-17 -15.5l-74 77q-21 -1 -39 -5t-31.5 -13t-21 -23.5t-7.5 -36.5q0 -26 13 -44.5t32.5 -35
t42 -32t42 -35t32.5 -45t13 -60.5q0 -36 -16.5 -64t-45 -47.5t-66 -29.5t-79.5 -10t-76.5 8.5t-54.5 21.5q5 26 12 50.5t29 45.5l90 -83q21 0 41.5 5t37 16t27 27t11.5 39z" />
    <glyph glyph-name="t" unicode="t" horiz-adv-x="337" 
d="M54 476q20 11 42.5 20t44.5 14l16 76q14 11 32.5 19.5t38.5 16.5l21 -12l-24 -110h124q2 -12 0 -25t-10 -25h-124l-63 -290q-4 -19 -6 -33.5t-2 -26.5q0 -26 15 -38t33 -12q25 0 53.5 9.5t52.5 21.5l11 -18q-9 -13 -27 -26t-40.5 -24t-47 -18t-46.5 -7q-44 0 -69 20
t-25 62q0 14 2.5 31t6.5 35l66 314h-76z" />
    <glyph glyph-name="u" unicode="u" horiz-adv-x="542" 
d="M488 55v-25q-20 -16 -48.5 -26t-55.5 -10q-29 0 -41.5 12t-12.5 26q0 18 5 60.5t22 103.5h-4q-13 -28 -32.5 -64t-46.5 -68t-61.5 -54t-76.5 -22q-35 0 -59 24.5t-24 69.5q0 22 7 65t17 94l21.5 104.5l20.5 96.5l-61 9v25q16 6 34.5 12t37 11t35.5 8.5t31 4.5l22 -12
q-16 -75 -32.5 -142.5t-30.5 -142.5q-5 -24 -10.5 -53.5t-5.5 -64.5q0 -21 11.5 -34t26.5 -13q22 0 44 13t41.5 34t37 46.5t31.5 50.5t23.5 46.5t14.5 34.5l44 225h83l-82 -445h74z" />
    <glyph glyph-name="v" unicode="v" horiz-adv-x="447" 
d="M249 151q36 60 64 116.5t48 113.5q0 11 -2.5 28.5l-5 35.5t-5.5 33.5t-5 21.5q29 12 59.5 12.5t53.5 -12.5q-15 -62 -41 -126.5t-59.5 -128.5t-73 -126t-82.5 -119l-47 -12l-74 454l-64 8v25q6 4 18 10.5t26.5 12.5t30 10t29.5 4q22 0 31.5 -11t12.5 -27l46 -325l5 -63h2
z" />
    <glyph glyph-name="w" unicode="w" horiz-adv-x="687" 
d="M493 151q37 60 63 116t45 113q0 11 -2.5 29l-5 36t-5.5 33.5t-5 21.5q14 6 30 9t31 3q30 0 53 -12q-15 -62 -40 -126.5t-57 -128.5t-70 -126t-81 -119l-47 -12l-42 284v82h-3l-40 -82l-67 -136.5l-68 -135.5l-55 -12l-48 454l-64 8v25q6 4 18 10.5t26.5 12.5t30 10
t29.5 4q22 0 33.5 -10.5t13.5 -27.5l27 -316l-4 -72h2l30 73l162 329l34 12l20 -140.5t11 -81.5l16 -120l1 -72h2z" />
    <glyph glyph-name="x" unicode="x" horiz-adv-x="454" 
d="M201 213q-11 -12 -25.5 -26t-28.5 -29t-26 -30t-19 -28q-2 -7 -2.5 -20t-1 -27.5t-0.5 -27t1 -18.5q-17 -7 -34.5 -10t-33.5 -3q-33 0 -55 13q9 30 37 67t62 72t66 63.5l48 42.5l-68 184l-64 8v25q6 4 17.5 10.5t26 12.5t29.5 10t29 4q22 0 32 -11.5t16 -26.5l49 -174
l50.5 52t41.5 55q1 7 1 20t-1 27.5t-2 27t-2 18.5q17 6 33.5 9.5t33.5 3.5q32 0 56 -13q-6 -20 -20 -43t-33 -46t-40.5 -45.5l-41.5 -42t-37.5 -35l-27.5 -24.5l72 -195l65 -8v-25q-6 -4 -17.5 -10t-25 -12t-29 -10t-28.5 -4q-21 0 -32 11t-16 27z" />
    <glyph glyph-name="y" unicode="y" horiz-adv-x="455" 
d="M88 442l-64 8v25q5 4 16.5 10t26.5 12t31 10.5t30 4.5q21 0 30.5 -10.5t14.5 -27.5l83 -350l3 -60h2l23 59q13 28 26.5 61.5l26.5 67.5t24 67t19 61q0 11 -2.5 29t-5.5 36t-6 33.5t-5 21.5q14 6 30 9t31 3q30 0 53 -12q-31 -124 -84.5 -248t-118.5 -252
q-54 -105 -108 -157t-122 -52q-15 0 -28.5 4t-28.5 12q-1 11 2 25t9.5 28t17 26t23.5 19l81 -42q7 5 18 14.5t23 26t24 40t23 56.5z" />
    <glyph glyph-name="z" unicode="z" horiz-adv-x="436" 
d="M116 180l220 243q-45 -3 -97.5 1.5t-108.5 13.5l-46 -72l-25 6l14 102q6 39 54 39q36 0 104.5 -10.5t163.5 -15.5l23 25q13 -2 24.5 -10t13.5 -22l-344 -379q59 -11 115 -29.5t104 -44.5l58 66l24 -14l-35 -102q-5 -15 -18 -25t-32 -10t-47 12.5l-63.5 28.5t-76.5 32
t-86 23l-41 -44q-13 2 -25 10t-13 23z" />
    <glyph glyph-name="braceleft" unicode="{" horiz-adv-x="351" 
d="M111 112q5 23 5 39q0 33 -16 51.5t-46 18.5l6 30q19 0 35.5 8t30 22.5t23 33.5t14.5 41l51 238q10 48 40 77t78 29h90l-8 -43h-49q-27 0 -42.5 -13.5t-22.5 -45.5l-49 -232q-7 -33 -22.5 -56t-34.5 -37.5t-40 -22t-39 -9.5l-2 -6q15 -2 30 -8.5t27.5 -18.5t20.5 -29.5
t8 -41.5q0 -15 -3 -31l-50 -235q-3 -12 -3 -23q0 -37 43 -35h48l-9 -43h-90q-37 0 -57.5 18t-20.5 54q0 17 4 33z" />
    <glyph glyph-name="bar" unicode="|" horiz-adv-x="237" 
d="M122 700h52v-830h-52v830z" />
    <glyph glyph-name="braceright" unicode="}" horiz-adv-x="351" 
d="M259 360q-5 -23 -5 -39q0 -70 62 -70l-6 -30q-19 0 -35.5 -8.5t-30 -22.5t-23 -33t-14.5 -41l-51 -240q-10 -48 -40 -77t-78 -29h-90l9 43h48q27 0 42.5 13t22.5 45l50 235q7 33 21 56t31.5 37.5t37 22t37.5 9.5l1 6q-14 1 -28 7.5t-25 17.5t-17.5 28t-6.5 40q0 19 4 36
l49 232q3 12 3 22q1 38 -43 37h-47l8 43h91q37 0 57 -18.5t20 -53.5q0 -17 -4 -33z" />
    <glyph glyph-name="asciitilde" unicode="~" 
d="M66 322q36 54 69 74.5t63 20.5q25 0 49 -10.5t47 -23.5t46.5 -23.5t48.5 -10.5q18 0 37.5 7.5t39.5 26.5l13 -21q-29 -42 -57.5 -59.5t-55.5 -17.5q-26 0 -50.5 10.5t-48.5 23.5t-48 23.5t-48 10.5q-22 0 -44.5 -12t-45.5 -43z" />
    <glyph glyph-name="uni00A0" unicode="&#xa0;" horiz-adv-x="243" 
 />
    <glyph glyph-name="exclamdown" unicode="&#xa1;" horiz-adv-x="327" 
d="M197 286l-5 -176l-59 -296q-12 -6 -25 -8.5t-25 -2.5q-14 0 -25.5 2.5t-20.5 8.5l65 296l69 176h26zM142 446q0 30 19 48t49 18q31 0 50 -18t19 -48q0 -29 -19 -47t-50 -18q-30 0 -49 18t-19 47z" />
    <glyph glyph-name="cent" unicode="&#xa2;" 
d="M430 89q-11 -18 -27 -34.5t-37 -30t-47 -23t-56 -11.5l-33 -160h-52l34 160q-85 8 -125 56t-40 125q0 63 21.5 119t58.5 100.5t87 74t107 40.5l34 155h52l-32 -149q3 0 6 0.5t6 -0.5q18 0 39 -1.5t39.5 -4.5t33 -7t20.5 -9q1 -11 -1.5 -24.5t-8 -26.5t-13.5 -24t-17 -15
l-68 69q-25 0 -47 -3l-88 -413q51 2 85 20t54 36zM143 179q-1 -54 21.5 -84.5t60.5 -39.5l86 396q-39 -15 -70.5 -41t-53.5 -61t-33.5 -78t-10.5 -92z" />
    <glyph glyph-name="sterling" unicode="&#xa3;" 
d="M52 381h85q-8 32 -11.5 63.5t-3.5 53.5q0 49 13.5 88.5t44 67.5t78.5 43t117 15q61 0 110.5 -10t76.5 -24q-4 -16 -11.5 -38.5l-16 -46l-17.5 -46.5l-16 -40h-25l-11 137q-19 8 -44.5 12t-57.5 4q-47 0 -80 -15t-50 -48q-10 -20 -14 -45.5t-3 -46.5q1 -33 4.5 -60
t9.5 -64h156l-11 -52h-138q1 -11 2 -19.5t1.5 -17t0 -18t-2.5 -24.5q-2 -33 -24 -72.5t-64 -69.5l-39 -28v-4l55 6h200l73 112h25q-2 -22 -5.5 -48t-7.5 -52.5t-8.5 -51t-8.5 -42.5h-460l6 31q26 10 46 21t36 23.5t29.5 27.5t27.5 34q19 25 30 55t11 53q0 28 -3.5 48.5
t-8.5 35.5h-107z" />
    <glyph glyph-name="currency" unicode="&#xa4;" 
d="M31 170l83 82l35 11q-14 17 -20 38t-6 45q0 23 6 44.5t20 38.5l-35 11l-82 83l54 54l82 -83l12 -34q17 13 38 20t44 7q50 -2 83 -27l12 34l82 82l54 -54l-83 -82l-33 -11q12 -17 18 -38.5t6 -44.5q0 -48 -24 -84l33 -10l82 -83l-54 -54l-82 82l-11 34q-35 -24 -83 -24
q-23 0 -44 6.5t-40 17.5l-10 -33l-83 -82zM262 264q36 0 60.5 23t24.5 59t-24.5 59.5t-60.5 23.5q-36 1 -60.5 -23t-24.5 -60t24.5 -59t60.5 -23z" />
    <glyph glyph-name="yen" unicode="&#xa5;" 
d="M447 700h221l-6 -29q-43 -19 -81 -25l-227 -311h144l-10 -52h-163l-14 -63h163l-10 -52h-163l-24 -115q38 -5 69 -24l-5 -29h-254l5 29q40 18 89 24l24 115h-163l10 52h163l14 63h-163l11 52h142l-105 311q-22 5 -40.5 11t-35.5 14l6 29h263l-6 -29q-16 -6 -36 -12
t-46 -13l91 -295l207 295q-21 5 -40.5 11t-35.5 14z" />
    <glyph glyph-name="brokenbar" unicode="&#xa6;" horiz-adv-x="237" 
d="M120 190h52v-320h-52v320zM172 380h-52v320h52v-320z" />
    <glyph glyph-name="section" unicode="&#xa7;" horiz-adv-x="527" 
d="M379 44q1 30 -20.5 48t-53.5 31.5t-69.5 26t-69.5 31t-53.5 47.5t-21.5 76q0 50 37.5 86t93.5 59q-21 10 -39 22t-31.5 28.5t-21.5 38t-8 49.5q0 27 12 50t33.5 39.5t51.5 26t67 9.5q54 0 93 -5.5t71 -17.5q-2 -16 -4.5 -27.5t-5.5 -22.5l-6.5 -23l-8.5 -28h-25l-56 72
q-12 5 -22.5 6.5t-26.5 2.5q-43 -1 -63.5 -24t-19.5 -49q-1 -30 20.5 -49.5t53.5 -34.5t69.5 -28.5t69.5 -32.5t53.5 -46t21.5 -68q0 -29 -12 -52.5t-31 -42.5t-42 -33.5t-44 -24.5q20 -9 37.5 -19.5t31 -24.5t21.5 -31.5t8 -40.5q0 -70 -53 -110t-142 -40q-84 0 -162 29
q1 18 3 30.5t5 24t7.5 23t9.5 27.5h25l64 -79q11 -9 21.5 -10.5t23.5 -1.5q49 0 79 24.5t29 58.5zM410 313q1 24 -11.5 41.5t-32.5 30t-46 23l-53 21.5q-33 -16 -60 -43.5t-26 -59.5q-1 -26 11.5 -45t33 -33t46.5 -25t53 -21q17 10 32.5 24t27.5 28.5t19 29.5t6 29z" />
    <glyph glyph-name="dieresis" unicode="&#xa8;" horiz-adv-x="488" 
d="M179 662q0 24 15 38.5t40 14.5q24 0 39 -14.5t15 -38.5q0 -23 -15 -37t-39 -14q-25 0 -40 14t-15 37zM381 662q0 24 15 38.5t39 14.5q25 0 40 -14.5t15 -38.5q0 -23 -15 -37t-40 -14q-24 0 -39 14t-15 37z" />
    <glyph glyph-name="copyright" unicode="&#xa9;" horiz-adv-x="807" 
d="M51 290q0 83 29.5 148.5t78.5 110.5t112.5 69t132.5 24t132.5 -24t112 -69t78 -110.5t29.5 -148.5t-29.5 -148.5t-78 -110.5t-112 -69t-132.5 -24q-72 0 -136.5 24t-112.5 69t-76 110.5t-28 148.5zM103 290q0 -69 23.5 -125.5t64.5 -96t96 -61.5t117 -22t117 22
t95.5 61.5t64 96t23.5 125.5t-25 125.5t-66.5 96t-96 61.5t-112.5 22q-66 0 -121.5 -22t-95 -62t-62 -96t-22.5 -125zM510 206h25q4 -15 6 -45.5t-1 -54.5q-9 -7 -22.5 -11.5t-28.5 -7.5t-31 -4t-29 -1q-49 0 -89.5 13.5t-70 40t-46 65.5t-16.5 90q0 52 18.5 91t48 65
t67 39.5t75.5 13.5q39 0 70 -5.5t51 -15.5q1 -9 1 -23.5t-1 -30.5t-3 -31t-5 -25h-25l-30 83q-7 5 -22 5.5t-29 1.5q-57 -1 -88.5 -45.5t-31.5 -122.5q0 -33 7 -63.5t22.5 -54t40.5 -37t60 -13.5q20 0 32.5 4t16.5 8z" />
    <glyph glyph-name="ordfeminine" unicode="&#xaa;" horiz-adv-x="430" 
d="M283 488q-7 -14 -20 -33t-32 -36t-43 -29t-52 -12q-46 0 -71.5 30.5t-25.5 85.5q0 49 17 89.5t46 69t67 44t80 15.5q20 0 41.5 -4.5t38.5 -14.5l60 15l17 -8l-57 -269l51 -9v-18q-16 -11 -41 -18.5t-55 -7.5q-20 0 -26.5 11t-4.5 25l14 74h-4zM171 428q18 0 36.5 11.5
t35.5 28t31 36t22 36.5l23 115q-14 6 -29.5 12t-32.5 6q-25 0 -49 -11t-43 -33t-30.5 -54.5t-11.5 -74.5q0 -31 12 -51.5t36 -20.5z" />
    <glyph glyph-name="guillemotleft" unicode="&#xab;" horiz-adv-x="461" 
d="M240 259l212 205l21 -19l-148 -187l76 -181l-29 -20zM46 259l257 207l21 -20l-181 -189l109 -181l-30 -21z" />
    <glyph glyph-name="logicalnot" unicode="&#xac;" horiz-adv-x="500" 
d="M37 387h425v-189h-62v126h-363v63z" />
    <glyph glyph-name="uni00AD" unicode="&#xad;" horiz-adv-x="425" 
d="M85 313h282l-13 -63h-283z" />
    <glyph glyph-name="registered" unicode="&#xae;" horiz-adv-x="697" 
d="M127 451q0 64 21.5 113.5t58 83.5t85 51.5t102.5 17.5q56 0 104.5 -17.5t84.5 -51.5t57 -83.5t21 -113.5q0 -65 -21.5 -114.5t-58 -83.5t-85 -51.5t-102.5 -17.5q-56 0 -104.5 17.5t-84.5 51.5t-57 83.5t-21 114.5zM174 451q0 -52 17.5 -93.5t47.5 -71t70 -45t85 -14.5
q47 -1 87.5 14.5t70 44.5t46 70.5t16.5 94.5q0 52 -17.5 93.5t-47.5 70.5t-70 45t-85 15q-48 1 -88 -15t-69.5 -45t-46 -70.5t-16.5 -93.5zM360 342q13 -1 21.5 -3.5t15.5 -5.5v-24h-124v24q17 6 35 9v233q-11 1 -19 3.5t-16 7.5v22h38q18 0 43 2t41 2q22 0 42.5 -4.5
t36.5 -15t25 -26.5t9 -38q0 -31 -21.5 -49t-49.5 -27l34.5 -56.5t45.5 -53.5l23 -12v-21h-50l-28 11q-25 30 -40 62t-26 61h-36v-101zM390 580q-11 0 -17.5 -0.5t-12.5 -2.5v-105h32q60 0 58 56q-1 26 -17.5 39t-42.5 13z" />
    <glyph glyph-name="macron" unicode="&#xaf;" horiz-adv-x="464" 
d="M206 637l10 52h254l-11 -52h-253z" />
    <glyph glyph-name="macron" unicode="&#x2c9;" horiz-adv-x="464" 
d="M206 637l10 52h254l-11 -52h-253z" />
    <glyph glyph-name="degree" unicode="&#xb0;" horiz-adv-x="414" 
d="M127 571q0 31 11 57t30.5 44.5t45.5 29t55 10.5t55 -9t45 -26.5t30 -44t11 -61.5q0 -33 -11 -59t-30 -44.5t-45 -28t-55 -9.5t-55 9.5t-45.5 28t-30.5 44.5t-11 59zM183 571q0 -41 25.5 -66.5t60.5 -25.5q38 0 61.5 24t23.5 68q0 42 -23.5 67t-61.5 25q-39 0 -62.5 -25
t-23.5 -67z" />
    <glyph glyph-name="plusminus" unicode="&#xb1;" 
d="M37 490h198v210h53v-210h199v-53h-199v-154h-53v154h-198v53zM37 230h450v-53h-450v53z" />
    <glyph glyph-name="twosuperior" unicode="&#xb2;" horiz-adv-x="421" 
d="M196 639h-22q-3 10 -7 27t-7 36t-4.5 36t-1.5 27q20 11 38.5 20t38 15t41.5 9.5t51 3.5q40 0 67 -7.5t43 -21t23 -31.5t7 -38q0 -37 -21.5 -73t-59 -70t-88 -65t-109.5 -59v-6l31 6h137l59 68h22q-1 -14 -3 -31.5t-4.5 -36t-5.5 -35t-6 -27.5h-339l8 33q61 34 115 70.5
t94 73.5t63 74t23 71q0 26 -16 41.5t-56 15.5q-19 0 -35 -3.5t-33 -11.5z" />
    <glyph glyph-name="threesuperior" unicode="&#xb3;" horiz-adv-x="421" 
d="M250 423q30 0 51 10t33.5 24.5t18.5 31.5t6 31q0 28 -18 43t-73 15h-34l6 26l106 109l56 42l1 2l-63 -5h-89l-56 -91h-22q-2 13 -2.5 32.5t0.5 40.5t2 40t3 30h306l-7 -36l-111 -106l-49 -40l-1 -1l32 4q42 -3 69.5 -26t27.5 -68q0 -32 -12 -60t-37.5 -49t-65.5 -33
t-97 -12q-19 0 -40.5 3.5t-41.5 10t-37 15t-28 17.5l54 92h18q4 -5 8 -15t8 -21.5l8 -23.5t7 -22q8 -3 24 -6.5t39 -3.5z" />
    <glyph glyph-name="acute" unicode="&#xb4;" horiz-adv-x="512" 
d="M352 767q8 1 21 -0.5t27 -4.5t26 -7.5t18 -9.5v-19l-197 -151l-22 18z" />
    <glyph glyph-name="mu" unicode="&#xb5;" horiz-adv-x="574" 
d="M157 15l4 -190l-5 -25q-51 -13 -91 0l135 642l-60 8v26q35 13 70 22t67 14l23 -11l-15 -68l-14.5 -63l-15.5 -68.5l-18 -85.5q-8 -39 -12 -70t-2.5 -52.5t10.5 -32.5t28 -11q22 0 48 17t51.5 47t49.5 70.5t42 88.5l42 223l85 5l-83 -445l74 -1l-1 -26
q-23 -14 -42.5 -27.5t-39.5 -14.5q-13 0 -23 7l-53 37l29 164h-4q-51 -108 -103.5 -157.5t-112.5 -49.5q-17 0 -29 6t-28 21h-6z" />
    <glyph glyph-name="mu" unicode="&#x3bc;" horiz-adv-x="574" 
d="M157 15l4 -190l-5 -25q-51 -13 -91 0l135 642l-60 8v26q35 13 70 22t67 14l23 -11l-15 -68l-14.5 -63l-15.5 -68.5l-18 -85.5q-8 -39 -12 -70t-2.5 -52.5t10.5 -32.5t28 -11q22 0 48 17t51.5 47t49.5 70.5t42 88.5l42 223l85 5l-83 -445l74 -1l-1 -26
q-23 -14 -42.5 -27.5t-39.5 -14.5q-13 0 -23 7l-53 37l29 164h-4q-51 -108 -103.5 -157.5t-112.5 -49.5q-17 0 -29 6t-28 21h-6z" />
    <glyph glyph-name="paragraph" unicode="&#xb6;" horiz-adv-x="511" 
d="M404 94q0 -67 -9 -109.5t-26 -68t-40.5 -37.5t-51.5 -18q-20 -32 -47 -48.5t-53 -24.5l-11 20q22 9 40.5 24.5t32 40.5t21 62t7.5 89v286q-32 0 -63.5 10t-57 32.5t-41.5 59t-16 88.5q0 42 12.5 78.5t37 63.5t62.5 42.5t89 15.5h190v-30q-17 -8 -35 -14t-41 -10v-552z
M288 -116q42 17 56 69t14 141v557h-44v-627q0 -40 -6 -77t-20 -63z" />
    <glyph glyph-name="periodcentered" unicode="&#xb7;" horiz-adv-x="230" 
d="M60 307q0 30 19 48t49 18q31 0 50 -18t19 -48q0 -29 -19 -47t-50 -18q-30 0 -49 18t-19 47z" />
    <glyph glyph-name="cedilla" unicode="&#xb8;" horiz-adv-x="445" 
d="M196 -68q42 -2 60 -19.5t20 -46.5q1 -31 -17.5 -53.5t-46.5 -37t-60.5 -21t-59.5 -5.5v30q19 3 38 8.5t34 13.5t24 19.5t8 25.5q0 9 -2.5 17t-9 14.5t-18.5 11t-32 6.5l56 106h46z" />
    <glyph glyph-name="onesuperior" unicode="&#xb9;" horiz-adv-x="421" 
d="M393 386h-280l5 21q58 24 109 34l52 247l15 45q-25 -7 -56.5 -9.5t-59.5 -1.5l6 29q44 9 86 25.5t83 36.5h31l-79 -372q25 -6 49 -14t44 -20z" />
    <glyph glyph-name="ordmasculine" unicode="&#xba;" horiz-adv-x="436" 
d="M39 500q0 46 18 85t48 67t69 44t81 16q69 0 106 -36t37 -93q0 -52 -19.5 -91.5t-50 -66t-69 -40t-76.5 -13.5q-30 0 -56.5 9.5t-46 26.5t-30.5 40.5t-11 51.5zM122 499q0 -18 3.5 -34t12 -28.5t21.5 -20t31 -7.5q22 0 44.5 11t40.5 34t29 58t11 83q0 15 -3.5 29
t-11.5 25.5t-21 18t-33 6.5q-22 0 -44 -13.5t-40 -36.5t-29 -55.5t-11 -69.5z" />
    <glyph glyph-name="guillemotright" unicode="&#xbb;" horiz-adv-x="461" 
d="M261 262l-213 -205l-20 19l147 187l-75 181l28 20zM454 262l-256 -207l-21 20l181 189l-109 181l30 21z" />
    <glyph glyph-name="onequarter" unicode="&#xbc;" horiz-adv-x="929" 
d="M818 710l35 -31l-665 -686l-34 32zM349 282h-280l5 21q58 24 109 34l52 247l15 45q-25 -7 -56.5 -9.5t-59.5 -1.5l6 29q44 9 86 25.5t83 36.5h31l-79 -372q25 -6 49 -14t44 -20zM836 0h-210l5 21q18 9 37.5 14.5t40.5 9.5l15 72h-240l4 24l345 286h35l-56 -263h94l-9 -47
h-94l-15 -72q14 -3 26.5 -8t26.5 -16zM761 294l21 43h-3l-42 -43l-132 -114l-40 -23l64 7h105z" />
    <glyph glyph-name="onehalf" unicode="&#xbd;" horiz-adv-x="994" 
d="M818 710l35 -31l-665 -686l-34 32zM349 282h-280l5 21q58 24 109 34l52 247l15 45q-25 -7 -56.5 -9.5t-59.5 -1.5l6 29q44 9 86 25.5t83 36.5h31l-79 -372q25 -6 49 -14t44 -20zM696 253h-22q-3 10 -7 27t-7 36t-4.5 36t-1.5 27q20 11 38.5 20t38 15t41.5 9.5t51 3.5
q40 0 67 -7.5t43 -21t23 -31.5t7 -38q0 -37 -21.5 -73t-59 -70t-88 -65t-109.5 -59v-6l31 6h137l59 68h22q-1 -14 -3 -31.5t-4.5 -36t-5.5 -35t-6 -27.5h-339l8 33q61 34 115 70.5t94 73.5t63 74t23 71q0 26 -16 41.5t-56 15.5q-19 0 -35 -3.5t-33 -11.5z" />
    <glyph glyph-name="threequarters" unicode="&#xbe;" horiz-adv-x="981" 
d="M868 710l35 -31l-665 -686l-34 32zM240 319q30 0 51 10t33.5 24.5t18.5 31.5t6 31q0 28 -18 43t-73 15h-34l6 26l106 109l56 42l1 2l-63 -5h-89l-56 -91h-22q-2 13 -2.5 32.5t0.5 40.5t2 40t3 30h306l-7 -36l-111 -106l-49 -40l-1 -1l32 4q42 -3 69.5 -26t27.5 -68
q0 -32 -12 -60t-37.5 -49t-65.5 -33t-97 -12q-19 0 -40.5 3.5t-41.5 10t-37 15t-28 17.5l54 92h18q4 -5 8 -15t8 -21.5l8 -23.5t7 -22q8 -3 24 -6.5t39 -3.5zM894 0h-210l5 21q18 9 37.5 14.5t40.5 9.5l15 72h-240l4 24l345 286h35l-56 -263h94l-9 -47h-94l-15 -72
q14 -3 26.5 -8t26.5 -16zM819 294l21 43h-3l-42 -43l-132 -114l-40 -23l64 7h105z" />
    <glyph glyph-name="questiondown" unicode="&#xbf;" horiz-adv-x="473" 
d="M299 -15h25l7 -50.5t4 -60.5q0 -11 -0.5 -20.5t-1.5 -19.5q-43 -23 -86 -32.5t-95 -9.5q-80 0 -123 35t-43 98q0 50 21 87t53 66.5t70 55t72 53t59 60t31 76.5h19q4 -52 -11 -91t-40.5 -70.5t-56 -57.5t-57.5 -52.5t-45 -55.5t-19 -65q1 -45 27 -66.5t67 -20.5
q32 -1 53 4.5t31 13.5zM242 446q0 30 19 48t49 18q31 0 50 -18t19 -48q0 -29 -19 -47t-50 -18q-30 0 -49 18t-19 47z" />
    <glyph glyph-name="Agrave" unicode="&#xc0;" horiz-adv-x="674" 
d="M176 0h-225l6 29q39 16 78 24l395 659h26l113 -659q18 -4 36.5 -9.5t33.5 -14.5l-5 -29h-254l5 29q45 17 88 24l-30 183h-235l-107 -183q43 -6 80 -24zM237 288h198l-32 212l-2 86h-2l-40 -88zM485 769l-17 -19l-226 91v20q6 7 19 13.5t28 11t29 6.5t22 1z" />
    <glyph glyph-name="Aacute" unicode="&#xc1;" horiz-adv-x="674" 
d="M176 0h-225l6 29q39 16 78 24l395 659h26l113 -659q18 -4 36.5 -9.5t33.5 -14.5l-5 -29h-254l5 29q45 17 88 24l-30 183h-235l-107 -183q43 -6 80 -24zM237 288h198l-32 212l-2 86h-2l-40 -88zM567 893q9 1 23 -1t28.5 -6.5t27 -11t18.5 -13.5v-20l-226 -91l-17 19z" />
    <glyph glyph-name="Acircumflex" unicode="&#xc2;" horiz-adv-x="674" 
d="M176 0h-225l6 29q39 16 78 24l395 659h26l113 -659q18 -4 36.5 -9.5t33.5 -14.5l-5 -29h-254l5 29q45 17 88 24l-30 183h-235l-107 -183q43 -6 80 -24zM237 288h198l-32 212l-2 86h-2l-40 -88zM312 752l-14 19l167 112q5 4 14 4q8 0 12 -4l85 -109l-15 -21l-100 56z" />
    <glyph glyph-name="Atilde" unicode="&#xc3;" horiz-adv-x="674" 
d="M176 0h-225l6 29q39 16 78 24l395 659h26l113 -659q18 -4 36.5 -9.5t33.5 -14.5l-5 -29h-254l5 29q45 17 88 24l-30 183h-235l-107 -183q43 -6 80 -24zM237 288h198l-32 212l-2 86h-2l-40 -88zM628 821q-32 -32 -59 -44t-52 -12q-19 0 -35.5 5.5t-32.5 11.5l-31 11.5
t-31 5.5q-14 0 -28 -5.5t-30 -19.5l-19 29q38 34 67.5 46.5t53.5 12.5q18 0 34.5 -5t31.5 -11t30 -11t31 -5q13 0 27 4.5t30 15.5z" />
    <glyph glyph-name="Adieresis" unicode="&#xc4;" horiz-adv-x="674" 
d="M176 0h-225l6 29q39 16 78 24l395 659h26l113 -659q18 -4 36.5 -9.5t33.5 -14.5l-5 -29h-254l5 29q45 17 88 24l-30 183h-235l-107 -183q43 -6 80 -24zM237 288h198l-32 212l-2 86h-2l-40 -88zM283 789q0 24 16.5 36t40.5 12q25 0 41 -12t16 -36q0 -23 -16 -35t-41 -12
q-24 0 -40.5 12t-16.5 35zM506 789q0 24 16 36t41 12q24 0 40 -12t17 -36q-1 -23 -17 -35t-40 -12q-25 0 -41 12t-16 35z" />
    <glyph glyph-name="Aring" unicode="&#xc5;" horiz-adv-x="674" 
d="M346 778q0 20 11 37.5t29 30.5t42 20.5t51 7.5q17 0 33.5 -3t29 -11.5t20.5 -22.5t8 -35q0 -19 -9.5 -35t-25.5 -28.5t-36.5 -20t-42.5 -9.5l113 -656q18 -4 36.5 -9.5t33.5 -14.5l-5 -29h-254l5 29q45 17 88 24l-30 183h-235l-107 -183q43 -6 80 -24l-5 -29h-225l6 29
q39 16 78 24l393 656q-38 2 -60 19.5t-22 49.5zM237 288h198l-32 212l-2 86h-2l-40 -88zM402 781q0 -17 13 -24t32 -7q29 0 48 13.5t19 33.5t-13 28t-32 8q-29 0 -48 -14.5t-19 -37.5z" />
    <glyph glyph-name="AE" unicode="&#xc6;" horiz-adv-x="913" 
d="M943 700q-15 -77 -46 -162h-26l-17 110h-219l-55 -265h162l55 74h25q-7 -50 -17 -102t-26 -100h-24l-24 76h-162l-60 -280h230l75 121h25q-2 -41 -8 -84.5t-17 -87.5h-493l5 29q41 17 88 24l43 203h-193l-157 -203q21 -3 40 -9t39 -15l-5 -29h-230l6 29q39 16 78 24
l479 599q-29 6 -54 19l7 29h476zM304 307h164l65 304h-2l-59 -93z" />
    <glyph glyph-name="Ccedilla" unicode="&#xc7;" horiz-adv-x="635" 
d="M557 182h25q0 -28 -5.5 -70.5t-16.5 -82.5q-38 -22 -86 -31t-90 -10l-37 -63q55 -1 73.5 -21.5t18.5 -51.5q0 -32 -20.5 -55.5t-50.5 -38.5t-65 -22.5t-64 -7.5v33q19 3 39.5 8.5t36.5 14.5t26 22t10 31q0 10 -3 18.5t-10.5 14t-20.5 9t-35 5.5l53 106q-74 6 -125 31.5
t-83 63t-46.5 83t-14.5 90.5q0 102 29 185.5t82.5 143t130 92.5t172.5 33q66 0 112 -9t77 -25q-3 -16 -8.5 -37.5t-13 -45.5t-15.5 -47l-15 -42h-26l-21 144q-13 5 -39.5 7.5t-51.5 2.5q-66 0 -122 -25.5t-97 -75.5t-64 -125t-23 -174q0 -62 21.5 -104.5t54 -68.5t70.5 -37
t72 -10q34 -1 57.5 5t34.5 13z" />
    <glyph glyph-name="Egrave" unicode="&#xc8;" horiz-adv-x="572" 
d="M601 700q-8 -40 -19 -81t-26 -81h-26l-17 110h-219l-55 -265h162l55 74h25q-8 -50 -18.5 -100.5t-24.5 -101.5h-25l-23 76h-163l-58 -279h229l75 120h25q-2 -39 -8 -83.5t-17 -88.5h-493l5 29q41 17 88 24l125 593q-20 5 -39 11t-38 14l7 29h473zM458 769l-17 -19
l-226 91v20q6 7 19 13.5t28 11t29 6.5t22 1z" />
    <glyph glyph-name="Eacute" unicode="&#xc9;" horiz-adv-x="572" 
d="M601 700q-8 -40 -19 -81t-26 -81h-26l-17 110h-219l-55 -265h162l55 74h25q-8 -50 -18.5 -100.5t-24.5 -101.5h-25l-23 76h-163l-58 -279h229l75 120h25q-2 -39 -8 -83.5t-17 -88.5h-493l5 29q41 17 88 24l125 593q-20 5 -39 11t-38 14l7 29h473zM464 893q9 1 23 -1
t28.5 -6.5t27 -11t18.5 -13.5v-20l-226 -91l-17 19z" />
    <glyph glyph-name="Ecircumflex" unicode="&#xca;" horiz-adv-x="572" 
d="M601 700q-8 -40 -19 -81t-26 -81h-26l-17 110h-219l-55 -265h162l55 74h25q-8 -50 -18.5 -100.5t-24.5 -101.5h-25l-23 76h-163l-58 -279h229l75 120h25q-2 -39 -8 -83.5t-17 -88.5h-493l5 29q41 17 88 24l125 593q-20 5 -39 11t-38 14l7 29h473zM277 752l-14 19l167 112
q5 4 14 4q8 0 12 -4l85 -109l-15 -21l-100 56z" />
    <glyph glyph-name="Edieresis" unicode="&#xcb;" horiz-adv-x="572" 
d="M601 700q-8 -40 -19 -81t-26 -81h-26l-17 110h-219l-55 -265h162l55 74h25q-8 -50 -18.5 -100.5t-24.5 -101.5h-25l-23 76h-163l-58 -279h229l75 120h25q-2 -39 -8 -83.5t-17 -88.5h-493l5 29q41 17 88 24l125 593q-20 5 -39 11t-38 14l7 29h473zM229 789q0 24 16.5 36
t40.5 12q25 0 41 -12t16 -36q0 -23 -16 -35t-41 -12q-24 0 -40.5 12t-16.5 35zM452 789q0 24 16 36t41 12q24 0 40 -12t17 -36q-1 -23 -17 -35t-40 -12q-25 0 -41 12t-16 35z" />
    <glyph glyph-name="Igrave" unicode="&#xcc;" horiz-adv-x="343" 
d="M255 0h-256l5 29q44 18 86 24l125 593q-20 4 -38 10.5t-37 14.5l7 29h256l-6 -29q-20 -8 -43 -14.5t-43 -10.5l-125 -593q20 -4 39.5 -10t34.5 -14zM359 769l-17 -19l-226 91v20q6 7 19 13.5t28 11t29 6.5t22 1z" />
    <glyph glyph-name="Iacute" unicode="&#xcd;" horiz-adv-x="343" 
d="M255 0h-256l5 29q44 18 86 24l125 593q-20 4 -38 10.5t-37 14.5l7 29h256l-6 -29q-20 -8 -43 -14.5t-43 -10.5l-125 -593q20 -4 39.5 -10t34.5 -14zM340 893q9 1 23 -1t28.5 -6.5t27 -11t18.5 -13.5v-20l-226 -91l-17 19z" />
    <glyph glyph-name="Icircumflex" unicode="&#xce;" horiz-adv-x="343" 
d="M255 0h-256l5 29q44 18 86 24l125 593q-20 4 -38 10.5t-37 14.5l7 29h256l-6 -29q-20 -8 -43 -14.5t-43 -10.5l-125 -593q20 -4 39.5 -10t34.5 -14zM152 752l-14 19l167 112q5 4 14 4q8 0 12 -4l85 -109l-15 -21l-100 56z" />
    <glyph glyph-name="Idieresis" unicode="&#xcf;" horiz-adv-x="343" 
d="M255 0h-256l5 29q44 18 86 24l125 593q-20 4 -38 10.5t-37 14.5l7 29h256l-6 -29q-20 -8 -43 -14.5t-43 -10.5l-125 -593q20 -4 39.5 -10t34.5 -14zM113 789q0 24 16.5 36t40.5 12q25 0 41 -12t16 -36q0 -23 -16 -35t-41 -12q-24 0 -40.5 12t-16.5 35zM336 789
q0 24 16 36t41 12q24 0 40 -12t17 -36q-1 -23 -17 -35t-40 -12q-25 0 -41 12t-16 35z" />
    <glyph glyph-name="Eth" unicode="&#xd0;" horiz-adv-x="702" 
d="M-20 0l5 29q41 17 88 24l59 278h-90l11 52h89l56 263q-22 5 -41.5 11.5t-35.5 13.5l7 29h101q17 0 40.5 1t48 2.5l47.5 3t38 1.5q80 0 136 -19t90.5 -51.5t50 -77t15.5 -95.5t-8.5 -106.5t-28.5 -108t-53.5 -99.5t-84 -82.5t-119.5 -56.5t-159 -21q-15 0 -35.5 1.5
t-43.5 3l-46 3t-42 1.5h-95zM383 656q-26 0 -53 -1t-41 -3l-57 -269h167l-11 -52h-167l-60 -285q10 -1 24.5 -1.5l29 -1t26 -1t17.5 0.5q94 -1 157.5 37t102 99.5t54.5 138t16 153.5q0 39 -9 73t-32 58.5t-62.5 39t-101.5 14.5z" />
    <glyph glyph-name="Ntilde" unicode="&#xd1;" horiz-adv-x="723" 
d="M588 700h213l-6 -29q-20 -14 -44 -24t-46 -16l-137 -643h-54l-251 551l-21 78h-3l-10 -78l-100 -475q18 -5 36 -14t33 -21l-6 -29h-212l5 29q43 26 90 35l122 573q-19 8 -36.5 17t-31.5 18l5 28h166l215 -475l30 -86h4l16 86l86 406q-40 17 -69 40zM631 821
q-32 -32 -59 -44t-52 -12q-19 0 -35.5 5.5t-32.5 11.5l-31 11.5t-31 5.5q-14 0 -28 -5.5t-30 -19.5l-19 29q38 34 67.5 46.5t53.5 12.5q18 0 34.5 -5t31.5 -11t30 -11t31 -5q13 0 27 4.5t30 15.5z" />
    <glyph glyph-name="Ograve" unicode="&#xd2;" horiz-adv-x="730" 
d="M66 278q0 91 27.5 170t79.5 137.5t125 92.5t165 34q73 0 123 -24t80.5 -63t44 -89.5t13.5 -104.5q0 -80 -22.5 -159.5t-69.5 -142.5t-118.5 -102t-169.5 -39q-72 0 -124.5 23.5t-86.5 63t-50.5 92t-16.5 111.5zM173 277q0 -55 14.5 -99t40 -75t60 -47.5t75.5 -15.5
q73 -1 121.5 35.5t78 94t42 127t12.5 135.5q0 51 -11.5 93t-34.5 72t-56.5 46.5t-77.5 16.5q-69 0 -119 -36t-82.5 -92t-47.5 -124t-15 -131zM536 769l-17 -19l-226 91v20q6 7 19 13.5t28 11t29 6.5t22 1z" />
    <glyph glyph-name="Oacute" unicode="&#xd3;" horiz-adv-x="730" 
d="M66 278q0 91 27.5 170t79.5 137.5t125 92.5t165 34q73 0 123 -24t80.5 -63t44 -89.5t13.5 -104.5q0 -80 -22.5 -159.5t-69.5 -142.5t-118.5 -102t-169.5 -39q-72 0 -124.5 23.5t-86.5 63t-50.5 92t-16.5 111.5zM173 277q0 -55 14.5 -99t40 -75t60 -47.5t75.5 -15.5
q73 -1 121.5 35.5t78 94t42 127t12.5 135.5q0 51 -11.5 93t-34.5 72t-56.5 46.5t-77.5 16.5q-69 0 -119 -36t-82.5 -92t-47.5 -124t-15 -131zM538 893q9 1 23 -1t28.5 -6.5t27 -11t18.5 -13.5v-20l-226 -91l-17 19z" />
    <glyph glyph-name="Ocircumflex" unicode="&#xd4;" horiz-adv-x="730" 
d="M66 278q0 91 27.5 170t79.5 137.5t125 92.5t165 34q73 0 123 -24t80.5 -63t44 -89.5t13.5 -104.5q0 -80 -22.5 -159.5t-69.5 -142.5t-118.5 -102t-169.5 -39q-72 0 -124.5 23.5t-86.5 63t-50.5 92t-16.5 111.5zM173 277q0 -55 14.5 -99t40 -75t60 -47.5t75.5 -15.5
q73 -1 121.5 35.5t78 94t42 127t12.5 135.5q0 51 -11.5 93t-34.5 72t-56.5 46.5t-77.5 16.5q-69 0 -119 -36t-82.5 -92t-47.5 -124t-15 -131zM340 752l-14 19l167 112q5 4 14 4q8 0 12 -4l85 -109l-15 -21l-100 56z" />
    <glyph glyph-name="Otilde" unicode="&#xd5;" horiz-adv-x="730" 
d="M66 278q0 91 27.5 170t79.5 137.5t125 92.5t165 34q73 0 123 -24t80.5 -63t44 -89.5t13.5 -104.5q0 -80 -22.5 -159.5t-69.5 -142.5t-118.5 -102t-169.5 -39q-72 0 -124.5 23.5t-86.5 63t-50.5 92t-16.5 111.5zM173 277q0 -55 14.5 -99t40 -75t60 -47.5t75.5 -15.5
q73 -1 121.5 35.5t78 94t42 127t12.5 135.5q0 51 -11.5 93t-34.5 72t-56.5 46.5t-77.5 16.5q-69 0 -119 -36t-82.5 -92t-47.5 -124t-15 -131zM633 821q-32 -32 -59 -44t-52 -12q-19 0 -35.5 5.5t-32.5 11.5l-31 11.5t-31 5.5q-14 0 -28 -5.5t-30 -19.5l-19 29
q38 34 67.5 46.5t53.5 12.5q18 0 34.5 -5t31.5 -11t30 -11t31 -5q13 0 27 4.5t30 15.5z" />
    <glyph glyph-name="Odieresis" unicode="&#xd6;" horiz-adv-x="730" 
d="M66 278q0 91 27.5 170t79.5 137.5t125 92.5t165 34q73 0 123 -24t80.5 -63t44 -89.5t13.5 -104.5q0 -80 -22.5 -159.5t-69.5 -142.5t-118.5 -102t-169.5 -39q-72 0 -124.5 23.5t-86.5 63t-50.5 92t-16.5 111.5zM173 277q0 -55 14.5 -99t40 -75t60 -47.5t75.5 -15.5
q73 -1 121.5 35.5t78 94t42 127t12.5 135.5q0 51 -11.5 93t-34.5 72t-56.5 46.5t-77.5 16.5q-69 0 -119 -36t-82.5 -92t-47.5 -124t-15 -131zM299 789q0 24 16.5 36t40.5 12q25 0 41 -12t16 -36q0 -23 -16 -35t-41 -12q-24 0 -40.5 12t-16.5 35zM522 789q0 24 16 36t41 12
q24 0 40 -12t17 -36q-1 -23 -17 -35t-40 -12q-25 0 -41 12t-16 35z" />
    <glyph glyph-name="multiply" unicode="&#xd7;" 
d="M83 204l140 140l-138 139l37 37l139 -138l140 140l37 -37l-140 -140l143 -143l-38 -38l-143 143l-140 -140z" />
    <glyph glyph-name="Oslash" unicode="&#xd8;" horiz-adv-x="730" 
d="M66 278q0 91 27.5 170t79.5 137.5t125 92.5t165 34q52 0 91.5 -12t68.5 -33l39 46l40 -32l-41 -49q34 -39 48.5 -92t14.5 -109q0 -80 -22.5 -159.5t-69.5 -142.5t-118.5 -102t-169.5 -39q-57 0 -101 14.5t-77 40.5l-47 -56l-39 33l49 58q-32 40 -47.5 91.5t-15.5 108.5z
M363 40q48 -1 85.5 15.5t65.5 45t47.5 66.5t31.5 81t17.5 88.5t6.5 89.5q-1 70 -24 125l-370 -441q52 -71 140 -70zM437 660q-69 0 -118.5 -35.5t-81.5 -90t-47.5 -121.5t-16.5 -130q0 -35 6 -66.5t17 -57.5l371 441q-23 29 -55.5 44.5t-74.5 15.5z" />
    <glyph glyph-name="Ugrave" unicode="&#xd9;" horiz-adv-x="666" 
d="M112 700h254l-6 -29q-39 -17 -81 -25l-85 -397q-11 -53 -6 -90.5t24 -61.5t50 -35t72 -11q81 0 129.5 45t68.5 142l85 399q-44 15 -72 34l6 29h214l-7 -29q-17 -11 -40 -20t-45 -14l-85 -401q-28 -131 -98.5 -188t-181.5 -57q-66 0 -111.5 19t-71.5 52.5t-33 80t5 100.5
l86 403q-20 4 -41 10.5t-36 14.5zM504 769l-17 -19l-226 91v20q6 7 19 13.5t28 11t29 6.5t22 1z" />
    <glyph glyph-name="Uacute" unicode="&#xda;" horiz-adv-x="666" 
d="M112 700h254l-6 -29q-39 -17 -81 -25l-85 -397q-11 -53 -6 -90.5t24 -61.5t50 -35t72 -11q81 0 129.5 45t68.5 142l85 399q-44 15 -72 34l6 29h214l-7 -29q-17 -11 -40 -20t-45 -14l-85 -401q-28 -131 -98.5 -188t-181.5 -57q-66 0 -111.5 19t-71.5 52.5t-33 80t5 100.5
l86 403q-20 4 -41 10.5t-36 14.5zM569 893q9 1 23 -1t28.5 -6.5t27 -11t18.5 -13.5v-20l-226 -91l-17 19z" />
    <glyph glyph-name="Ucircumflex" unicode="&#xdb;" horiz-adv-x="666" 
d="M112 700h254l-6 -29q-39 -17 -81 -25l-85 -397q-11 -53 -6 -90.5t24 -61.5t50 -35t72 -11q81 0 129.5 45t68.5 142l85 399q-44 15 -72 34l6 29h214l-7 -29q-17 -11 -40 -20t-45 -14l-85 -401q-28 -131 -98.5 -188t-181.5 -57q-66 0 -111.5 19t-71.5 52.5t-33 80t5 100.5
l86 403q-20 4 -41 10.5t-36 14.5zM326 752l-14 19l167 112q5 4 14 4q8 0 12 -4l85 -109l-15 -21l-100 56z" />
    <glyph glyph-name="Udieresis" unicode="&#xdc;" horiz-adv-x="666" 
d="M112 700h254l-6 -29q-39 -17 -81 -25l-85 -397q-11 -53 -6 -90.5t24 -61.5t50 -35t72 -11q81 0 129.5 45t68.5 142l85 399q-44 15 -72 34l6 29h214l-7 -29q-17 -11 -40 -20t-45 -14l-85 -401q-28 -131 -98.5 -188t-181.5 -57q-66 0 -111.5 19t-71.5 52.5t-33 80t5 100.5
l86 403q-20 4 -41 10.5t-36 14.5zM302 789q0 24 16.5 36t40.5 12q25 0 41 -12t16 -36q0 -23 -16 -35t-41 -12q-24 0 -40.5 12t-16.5 35zM525 789q0 24 16 36t41 12q24 0 40 -12t17 -36q-1 -23 -17 -35t-40 -12q-25 0 -41 12t-16 35z" />
    <glyph glyph-name="Yacute" unicode="&#xdd;" horiz-adv-x="635" 
d="M520 700h223l-7 -29q-20 -10 -40 -15.5t-40 -9.5l-263 -348l-52 -245q37 -5 70 -24l-5 -29h-254l5 29q40 18 88 24l52 244l-129 349q-22 4 -40.5 10.5t-35.5 14.5l7 29h264l-6 -29l-36 -13t-46 -12l101 -294l212 294q-21 5 -39.5 11t-34.5 14zM526 893q9 1 23 -1
t28.5 -6.5t27 -11t18.5 -13.5v-20l-226 -91l-17 19z" />
    <glyph glyph-name="Thorn" unicode="&#xde;" horiz-adv-x="584" 
d="M169 53q26 -4 48.5 -10t41.5 -15l-5 -28h-274l5 28q23 11 44.5 16t43.5 9l125 594q-20 4 -39 10t-38 15l7 28h258l-6 -28q-20 -9 -43 -15t-43 -10l-10 -49q23 2 46 3t44 1q105 0 162.5 -41t57.5 -127q0 -45 -19 -91t-58 -83.5t-100 -61t-145 -23.5h-15.5t-22.5 0.5
t-23 1.5t-16 2zM343 550q-25 0 -40.5 -1t-29.5 -5l-67 -312q5 -2 14.5 -2.5t20 -1.5t20 -1h15.5q49 0 88.5 14t66.5 40t41.5 62.5t14.5 80.5q0 66 -32.5 96t-111.5 30z" />
    <glyph glyph-name="germandbls" unicode="&#xdf;" horiz-adv-x="611" 
d="M282 387q0 33 13 63.5t38.5 57.5t62.5 48t85 34q4 22 0.5 43t-15.5 37.5t-31.5 27t-45.5 11.5q-23 -1 -47 -8t-45.5 -25t-38 -48.5t-24.5 -77.5l-84 -507q-11 -71 -37 -118t-55.5 -76t-57.5 -43t-43 -18l-9 22q12 6 29 21.5t33.5 41.5t31 63.5t22.5 87.5l65 426h-73v26
q20 11 42.5 19.5t42.5 13.5l7 35q12 62 42 102.5t67.5 64t77 32.5t72.5 9q45 0 76.5 -11t51 -29.5t28 -43.5t8.5 -52q0 -10 -1 -20.5t-3 -21.5q-39 -5 -74.5 -17.5t-62.5 -32t-43.5 -47.5t-16.5 -65q0 -24 13 -43.5t32.5 -37t42 -34.5t42 -38.5t32.5 -48t13 -61.5
q0 -36 -16.5 -65.5t-45 -51t-66 -33t-79.5 -11.5t-76 8t-54 21q5 27 12 51t29 44l89 -81q20 0 41 6.5t37.5 19.5t27 31t11.5 41q-1 29 -13.5 50.5t-32 39t-41.5 33.5t-41.5 35t-32 42.5t-12.5 57.5z" />
    <glyph glyph-name="agrave" unicode="&#xe0;" horiz-adv-x="535" 
d="M189 50q27 0 54 25.5t51 61.5t43 75t30 65l32 171q-14 10 -27 14t-36 4q-46 0 -83.5 -28.5t-64 -73.5t-41 -100t-14.5 -108q0 -51 12.5 -78.5t43.5 -27.5zM347 196q-13 -36 -32.5 -73t-45 -67t-56.5 -49t-66 -19q-104 0 -104 151q0 70 20 136.5t58 118.5t92.5 83.5
t123.5 31.5q25 0 40 -4.5t36 -13.5q40 21 84 21l-90 -457h73v-25q-20 -16 -48 -26t-55 -10q-29 0 -41.5 12.5t-12.5 26.5q0 18 7 59t21 104h-4zM374 593l-22 -17l-166 149v20q6 5 19.5 9.5t29.5 7.5t30.5 4.5t22.5 0.5z" />
    <glyph glyph-name="aacute" unicode="&#xe1;" horiz-adv-x="535" 
d="M189 50q27 0 54 25.5t51 61.5t43 75t30 65l32 171q-14 10 -27 14t-36 4q-46 0 -83.5 -28.5t-64 -73.5t-41 -100t-14.5 -108q0 -51 12.5 -78.5t43.5 -27.5zM347 196q-13 -36 -32.5 -73t-45 -67t-56.5 -49t-66 -19q-104 0 -104 151q0 70 20 136.5t58 118.5t92.5 83.5
t123.5 31.5q25 0 40 -4.5t36 -13.5q40 21 84 21l-90 -457h73v-25q-20 -16 -48 -26t-55 -10q-29 0 -41.5 12.5t-12.5 26.5q0 18 7 59t21 104h-4zM413 767q8 1 21 -0.5t27 -4.5t26 -7.5t18 -9.5v-19l-197 -151l-22 18z" />
    <glyph glyph-name="acircumflex" unicode="&#xe2;" horiz-adv-x="535" 
d="M189 50q27 0 54 25.5t51 61.5t43 75t30 65l32 171q-14 10 -27 14t-36 4q-46 0 -83.5 -28.5t-64 -73.5t-41 -100t-14.5 -108q0 -51 12.5 -78.5t43.5 -27.5zM347 196q-13 -36 -32.5 -73t-45 -67t-56.5 -49t-66 -19q-104 0 -104 151q0 70 20 136.5t58 118.5t92.5 83.5
t123.5 31.5q25 0 40 -4.5t36 -13.5q40 21 84 21l-90 -457h73v-25q-20 -16 -48 -26t-55 -10q-29 0 -41.5 12.5t-12.5 26.5q0 18 7 59t21 104h-4zM245 590l-29 16l151 186q5 4 13 4t12 -4l73 -185l-27 -17l-78 107z" />
    <glyph glyph-name="atilde" unicode="&#xe3;" horiz-adv-x="535" 
d="M189 50q27 0 54 25.5t51 61.5t43 75t30 65l32 171q-14 10 -27 14t-36 4q-46 0 -83.5 -28.5t-64 -73.5t-41 -100t-14.5 -108q0 -51 12.5 -78.5t43.5 -27.5zM347 196q-13 -36 -32.5 -73t-45 -67t-56.5 -49t-66 -19q-104 0 -104 151q0 70 20 136.5t58 118.5t92.5 83.5
t123.5 31.5q25 0 40 -4.5t36 -13.5q40 21 84 21l-90 -457h73v-25q-20 -16 -48 -26t-55 -10q-29 0 -41.5 12.5t-12.5 26.5q0 18 7 59t21 104h-4zM494 672q-32 -32 -58.5 -44.5t-49.5 -12.5q-18 0 -34 5.5t-31 11.5l-29.5 11.5t-29.5 5.5q-13 0 -26.5 -5t-29.5 -19l-19 28
q37 35 66 47t52 12q18 0 33.5 -5t29.5 -11t28.5 -11t29.5 -5q13 0 26 4.5t29 15.5z" />
    <glyph glyph-name="adieresis" unicode="&#xe4;" horiz-adv-x="535" 
d="M189 50q27 0 54 25.5t51 61.5t43 75t30 65l32 171q-14 10 -27 14t-36 4q-46 0 -83.5 -28.5t-64 -73.5t-41 -100t-14.5 -108q0 -51 12.5 -78.5t43.5 -27.5zM347 196q-13 -36 -32.5 -73t-45 -67t-56.5 -49t-66 -19q-104 0 -104 151q0 70 20 136.5t58 118.5t92.5 83.5
t123.5 31.5q25 0 40 -4.5t36 -13.5q40 21 84 21l-90 -457h73v-25q-20 -16 -48 -26t-55 -10q-29 0 -41.5 12.5t-12.5 26.5q0 18 7 59t21 104h-4zM194 662q0 24 15 38.5t40 14.5q24 0 39 -14.5t15 -38.5q0 -23 -15 -37t-39 -14q-25 0 -40 14t-15 37zM396 662q0 24 15 38.5
t39 14.5q25 0 40 -14.5t15 -38.5q0 -23 -15 -37t-40 -14q-24 0 -39 14t-15 37z" />
    <glyph glyph-name="aring" unicode="&#xe5;" horiz-adv-x="535" 
d="M189 50q27 0 54 25.5t51 61.5t43 75t30 65l32 171q-14 10 -27 14t-36 4q-46 0 -83.5 -28.5t-64 -73.5t-41 -100t-14.5 -108q0 -51 12.5 -78.5t43.5 -27.5zM347 196q-13 -36 -32.5 -73t-45 -67t-56.5 -49t-66 -19q-104 0 -104 151q0 70 20 136.5t58 118.5t92.5 83.5
t123.5 31.5q25 0 40 -4.5t36 -13.5q40 21 84 21l-90 -457h73v-25q-20 -16 -48 -26t-55 -10q-29 0 -41.5 12.5t-12.5 26.5q0 18 7 59t21 104h-4zM262 666q0 23 8 44t23 36.5t36 24.5t47 9q38 0 59 -21t21 -54q0 -24 -9 -44.5t-24 -35.5t-35.5 -23.5t-43.5 -8.5q-38 0 -60 19
t-22 54zM314 670q0 -18 10.5 -27t23.5 -9q19 0 37 18.5t18 53.5q0 33 -29 33q-31 0 -45.5 -22.5t-14.5 -46.5z" />
    <glyph glyph-name="ae" unicode="&#xe6;" horiz-adv-x="739" 
d="M197 50q22 0 42.5 10.5t37 27t29 37t19.5 40.5q-1 16 0.5 38t3.5 38q-51 6 -89 -2t-63 -24.5t-37 -39t-12 -45.5q0 -44 21 -62t48 -18zM332 106q-28 -53 -71 -85.5t-102 -32.5q-27 0 -50.5 9.5t-41 26.5t-28 42t-10.5 55q0 38 21.5 69.5t62 53.5t97.5 31.5t128 3.5
q12 42 18 77t1.5 60t-20 39t-45.5 14q-14 0 -31.5 -1.5t-35.5 -8.5l-53 -110h-26q-19 55 -20 114q43 23 91.5 36t105.5 13q56 0 83.5 -17t33.5 -42q32 27 73 43t89 16t82.5 -24.5t34.5 -72.5q0 -71 -70.5 -112t-227.5 -53q-4 -17 -5.5 -33t-1.5 -31q0 -60 30.5 -98t89.5 -38
q19 0 37.5 6t35 15t30 19l23.5 18l16 -19q-9 -19 -26 -37t-40 -32.5t-52 -23t-62 -8.5q-64 0 -106 29.5t-58 88.5zM571 469q-43 0 -80 -40t-63 -136q97 3 151 33.5t54 84.5q0 21 -12.5 39.5t-49.5 18.5z" />
    <glyph glyph-name="ccedilla" unicode="&#xe7;" horiz-adv-x="428" 
d="M382 89q-19 -33 -57.5 -62t-94.5 -37l-33 -58q42 -2 60 -19.5t20 -46.5q1 -31 -17.5 -53.5t-46.5 -37t-60.5 -21t-59.5 -5.5v30q19 3 38 8.5t34 13.5t24 19.5t8 25.5q0 9 -2.5 17t-9 14.5t-18.5 11t-32 6.5l50 94q-67 5 -106 50.5t-39 123.5q0 72 23 135.5t62.5 111
t93 75t114.5 27.5q38 0 62 -6t36 -17q1 -11 -1.5 -24.5t-8 -26.5t-14 -24t-17.5 -15l-68 70q-34 -1 -67.5 -21t-60 -57t-43 -89.5t-15.5 -118.5q-1 -69 27.5 -101t77.5 -31q21 -1 39.5 5t34.5 15t29 19l23 18z" />
    <glyph glyph-name="egrave" unicode="&#xe8;" horiz-adv-x="454" 
d="M392 89q-9 -19 -26 -37t-40 -32.5t-52 -23t-62 -8.5q-83 0 -127.5 47.5t-44.5 131.5q0 71 20 134t56 110t87.5 74t114.5 27q48 0 82.5 -24.5t34.5 -72.5q0 -71 -70.5 -112t-227.5 -53q-4 -17 -5.5 -33t-1.5 -31q0 -60 30.5 -98t89.5 -38q19 0 37.5 6t35 15t30 19l23.5 18
zM287 469q-43 -1 -80 -40.5t-63 -135.5q97 3 151 33.5t54 84.5q0 21 -12.5 39t-49.5 19zM364 593l-22 -17l-166 149v20q6 5 19.5 9.5t29.5 7.5t30.5 4.5t22.5 0.5z" />
    <glyph glyph-name="eacute" unicode="&#xe9;" horiz-adv-x="454" 
d="M392 89q-9 -19 -26 -37t-40 -32.5t-52 -23t-62 -8.5q-83 0 -127.5 47.5t-44.5 131.5q0 71 20 134t56 110t87.5 74t114.5 27q48 0 82.5 -24.5t34.5 -72.5q0 -71 -70.5 -112t-227.5 -53q-4 -17 -5.5 -33t-1.5 -31q0 -60 30.5 -98t89.5 -38q19 0 37.5 6t35 15t30 19l23.5 18
zM287 469q-43 -1 -80 -40.5t-63 -135.5q97 3 151 33.5t54 84.5q0 21 -12.5 39t-49.5 19zM382 767q8 1 21 -0.5t27 -4.5t26 -7.5t18 -9.5v-19l-197 -151l-22 18z" />
    <glyph glyph-name="ecircumflex" unicode="&#xea;" horiz-adv-x="454" 
d="M392 89q-9 -19 -26 -37t-40 -32.5t-52 -23t-62 -8.5q-83 0 -127.5 47.5t-44.5 131.5q0 71 20 134t56 110t87.5 74t114.5 27q48 0 82.5 -24.5t34.5 -72.5q0 -71 -70.5 -112t-227.5 -53q-4 -17 -5.5 -33t-1.5 -31q0 -60 30.5 -98t89.5 -38q19 0 37.5 6t35 15t30 19l23.5 18
zM287 469q-43 -1 -80 -40.5t-63 -135.5q97 3 151 33.5t54 84.5q0 21 -12.5 39t-49.5 19zM216 590l-29 16l151 186q5 4 13 4t12 -4l73 -185l-27 -17l-78 107z" />
    <glyph glyph-name="edieresis" unicode="&#xeb;" horiz-adv-x="454" 
d="M392 89q-9 -19 -26 -37t-40 -32.5t-52 -23t-62 -8.5q-83 0 -127.5 47.5t-44.5 131.5q0 71 20 134t56 110t87.5 74t114.5 27q48 0 82.5 -24.5t34.5 -72.5q0 -71 -70.5 -112t-227.5 -53q-4 -17 -5.5 -33t-1.5 -31q0 -60 30.5 -98t89.5 -38q19 0 37.5 6t35 15t30 19l23.5 18
zM287 469q-43 -1 -80 -40.5t-63 -135.5q97 3 151 33.5t54 84.5q0 21 -12.5 39t-49.5 19zM162 662q0 24 15 38.5t40 14.5q24 0 39 -14.5t15 -38.5q0 -23 -15 -37t-39 -14q-25 0 -40 14t-15 37zM364 662q0 24 15 38.5t39 14.5q25 0 40 -14.5t15 -38.5q0 -23 -15 -37t-40 -14
q-24 0 -39 14t-15 37z" />
    <glyph glyph-name="igrave" unicode="&#xec;" horiz-adv-x="277" 
d="M71 451v25q15 6 34 12.5t39 11.5t38 8.5t32 3.5l18 -12l-94 -444h74v-26q-21 -16 -49 -26t-55 -10q-29 0 -41.5 13t-12.5 30q0 20 3 39t8 42l70 323zM241 593l-22 -17l-166 149v20q6 5 19.5 9.5t29.5 7.5t30.5 4.5t22.5 0.5z" />
    <glyph glyph-name="iacute" unicode="&#xed;" horiz-adv-x="277" 
d="M71 451v25q15 6 34 12.5t39 11.5t38 8.5t32 3.5l18 -12l-94 -444h74v-26q-21 -16 -49 -26t-55 -10q-29 0 -41.5 13t-12.5 30q0 20 3 39t8 42l70 323zM279 767q8 1 21 -0.5t27 -4.5t26 -7.5t18 -9.5v-19l-197 -151l-22 18z" />
    <glyph glyph-name="icircumflex" unicode="&#xee;" horiz-adv-x="277" 
d="M71 451v25q15 6 34 12.5t39 11.5t38 8.5t32 3.5l18 -12l-94 -444h74v-26q-21 -16 -49 -26t-55 -10q-29 0 -41.5 13t-12.5 30q0 20 3 39t8 42l70 323zM115 590l-29 16l151 186q5 4 13 4t12 -4l73 -185l-27 -17l-78 107z" />
    <glyph glyph-name="idieresis" unicode="&#xef;" horiz-adv-x="277" 
d="M71 451v25q15 6 34 12.5t39 11.5t38 8.5t32 3.5l18 -12l-94 -444h74v-26q-21 -16 -49 -26t-55 -10q-29 0 -41.5 13t-12.5 30q0 20 3 39t8 42l70 323zM45 662q0 24 15 38.5t40 14.5q24 0 39 -14.5t15 -38.5q0 -23 -15 -37t-39 -14q-25 0 -40 14t-15 37zM247 662
q0 24 15 38.5t39 14.5q25 0 40 -14.5t15 -38.5q0 -23 -15 -37t-40 -14q-24 0 -39 14t-15 37z" />
    <glyph glyph-name="eth" unicode="&#xf0;" horiz-adv-x="496" 
d="M227 609l111 50q-21 27 -47 44.5t-53 25.5v21h90q18 -7 39.5 -21.5t41.5 -37.5l99 45l21 -38l-95 -44q20 -33 32.5 -79t12.5 -108q0 -102 -24.5 -189.5t-65.5 -152t-96.5 -101t-116.5 -36.5q-72 0 -109.5 47.5t-37.5 132.5q0 61 20.5 121.5t59 108.5t93 78t122.5 30
q18 0 36 -4t29 -12q0 40 -7.5 72.5t-21.5 59.5l-110 -50zM314 463q-55 0 -92 -30.5t-60 -75.5t-33 -97t-10 -97q0 -23 3 -46t12 -42.5t25 -31.5t42 -12q33 0 66.5 31.5t60.5 87t44 130.5t17 163q-22 12 -39 16t-36 4z" />
    <glyph glyph-name="ntilde" unicode="&#xf1;" horiz-adv-x="552" 
d="M386 285l12.5 57.5t5.5 52.5q0 23 -10.5 39t-33.5 16q-27 0 -55 -22t-52 -53t-43.5 -64.5t-29.5 -55.5l-53 -255h-84l88 442l-61 9l2 25q14 7 31.5 13.5t36 11.5t36 8t32.5 3l20 -12l-38 -177h5q19 40 43.5 74.5t52 60t57.5 40t61 14.5q42 0 61.5 -26.5t19.5 -66.5
q0 -22 -5 -55t-12 -62l-57 -246h74v-26q-20 -16 -48.5 -26t-55.5 -10q-29 0 -40 12t-11 26q0 19 5 41.5l10 45.5zM500 672q-32 -32 -58.5 -44.5t-49.5 -12.5q-18 0 -34 5.5t-31 11.5l-29.5 11.5t-29.5 5.5q-13 0 -26.5 -5t-29.5 -19l-19 28q37 35 66 47t52 12q18 0 33.5 -5
t29.5 -11t28.5 -11t29.5 -5q13 0 26 4.5t29 15.5z" />
    <glyph glyph-name="ograve" unicode="&#xf2;" horiz-adv-x="509" 
d="M41 186q0 53 16.5 110.5t50.5 105.5t85 79t119 31q78 0 117.5 -48t39.5 -142q0 -66 -19 -126.5t-53 -106.5t-82 -73.5t-106 -27.5q-77 0 -122.5 49.5t-45.5 148.5zM292 469q-49 -1 -80 -32t-49 -77t-25 -99t-7 -97q0 -59 26 -96t70 -37q35 0 62.5 26.5t47 70t30 98.5
t10.5 111q0 59 -20.5 95t-64.5 37zM351 593l-22 -17l-166 149v20q6 5 19.5 9.5t29.5 7.5t30.5 4.5t22.5 0.5z" />
    <glyph glyph-name="oacute" unicode="&#xf3;" horiz-adv-x="509" 
d="M41 186q0 53 16.5 110.5t50.5 105.5t85 79t119 31q78 0 117.5 -48t39.5 -142q0 -66 -19 -126.5t-53 -106.5t-82 -73.5t-106 -27.5q-77 0 -122.5 49.5t-45.5 148.5zM292 469q-49 -1 -80 -32t-49 -77t-25 -99t-7 -97q0 -59 26 -96t70 -37q35 0 62.5 26.5t47 70t30 98.5
t10.5 111q0 59 -20.5 95t-64.5 37zM388 767q8 1 21 -0.5t27 -4.5t26 -7.5t18 -9.5v-19l-197 -151l-22 18z" />
    <glyph glyph-name="ocircumflex" unicode="&#xf4;" horiz-adv-x="509" 
d="M41 186q0 53 16.5 110.5t50.5 105.5t85 79t119 31q78 0 117.5 -48t39.5 -142q0 -66 -19 -126.5t-53 -106.5t-82 -73.5t-106 -27.5q-77 0 -122.5 49.5t-45.5 148.5zM292 469q-49 -1 -80 -32t-49 -77t-25 -99t-7 -97q0 -59 26 -96t70 -37q35 0 62.5 26.5t47 70t30 98.5
t10.5 111q0 59 -20.5 95t-64.5 37zM229 590l-29 16l151 186q5 4 13 4t12 -4l73 -185l-27 -17l-78 107z" />
    <glyph glyph-name="otilde" unicode="&#xf5;" horiz-adv-x="509" 
d="M41 186q0 53 16.5 110.5t50.5 105.5t85 79t119 31q78 0 117.5 -48t39.5 -142q0 -66 -19 -126.5t-53 -106.5t-82 -73.5t-106 -27.5q-77 0 -122.5 49.5t-45.5 148.5zM292 469q-49 -1 -80 -32t-49 -77t-25 -99t-7 -97q0 -59 26 -96t70 -37q35 0 62.5 26.5t47 70t30 98.5
t10.5 111q0 59 -20.5 95t-64.5 37zM488 672q-32 -32 -58.5 -44.5t-49.5 -12.5q-18 0 -34 5.5t-31 11.5l-29.5 11.5t-29.5 5.5q-13 0 -26.5 -5t-29.5 -19l-19 28q37 35 66 47t52 12q18 0 33.5 -5t29.5 -11t28.5 -11t29.5 -5q13 0 26 4.5t29 15.5z" />
    <glyph glyph-name="odieresis" unicode="&#xf6;" horiz-adv-x="509" 
d="M41 186q0 53 16.5 110.5t50.5 105.5t85 79t119 31q78 0 117.5 -48t39.5 -142q0 -66 -19 -126.5t-53 -106.5t-82 -73.5t-106 -27.5q-77 0 -122.5 49.5t-45.5 148.5zM292 469q-49 -1 -80 -32t-49 -77t-25 -99t-7 -97q0 -59 26 -96t70 -37q35 0 62.5 26.5t47 70t30 98.5
t10.5 111q0 59 -20.5 95t-64.5 37zM161 662q0 24 15 38.5t40 14.5q24 0 39 -14.5t15 -38.5q0 -23 -15 -37t-39 -14q-25 0 -40 14t-15 37zM363 662q0 24 15 38.5t39 14.5q25 0 40 -14.5t15 -38.5q0 -23 -15 -37t-40 -14q-24 0 -39 14t-15 37z" />
    <glyph glyph-name="divide" unicode="&#xf7;" 
d="M37 372h450v-53h-450v53zM194 535q0 30 19 48t49 18q31 0 50 -18t19 -48q0 -29 -19 -47t-50 -18q-30 0 -49 18t-19 47zM194 154q0 30 19 48t49 18q31 0 50 -18t19 -48q0 -29 -19 -47t-50 -18q-30 0 -49 18t-19 47z" />
    <glyph glyph-name="oslash" unicode="&#xf8;" horiz-adv-x="509" 
d="M41 186q0 53 16.5 110.5t50.5 105.5t85 79t119 31q64 0 105 -36l71 82l38 -31l-79 -92q11 -23 16.5 -50.5t5.5 -62.5q0 -66 -19 -126.5t-53 -106.5t-82 -73.5t-106 -27.5q-70 0 -114 41l-78 -91l-36 32l85 99q-25 44 -25 117zM227 31q34 0 61.5 26t47 68.5t30 96
t10.5 108.5v24l-229 -266q11 -27 31.5 -42t48.5 -15zM292 469q-48 -1 -79 -31t-49 -75t-25 -97t-8 -95v-13t1 -13l233 269q-22 54 -73 55z" />
    <glyph glyph-name="ugrave" unicode="&#xf9;" horiz-adv-x="542" 
d="M488 55v-25q-20 -16 -48.5 -26t-55.5 -10q-29 0 -41.5 12t-12.5 26q0 18 5 60.5t22 103.5h-4q-13 -28 -32.5 -64t-46.5 -68t-61.5 -54t-76.5 -22q-35 0 -59 24.5t-24 69.5q0 22 7 65t17 94l21.5 104.5l20.5 96.5l-61 9v25q16 6 34.5 12t37 11t35.5 8.5t31 4.5l22 -12
q-16 -75 -32.5 -142.5t-30.5 -142.5q-5 -24 -10.5 -53.5t-5.5 -64.5q0 -21 11.5 -34t26.5 -13q22 0 44 13t41.5 34t37 46.5t31.5 50.5t23.5 46.5t14.5 34.5l44 225h83l-82 -445h74zM352 593l-22 -17l-166 149v20q6 5 19.5 9.5t29.5 7.5t30.5 4.5t22.5 0.5z" />
    <glyph glyph-name="uacute" unicode="&#xfa;" horiz-adv-x="542" 
d="M488 55v-25q-20 -16 -48.5 -26t-55.5 -10q-29 0 -41.5 12t-12.5 26q0 18 5 60.5t22 103.5h-4q-13 -28 -32.5 -64t-46.5 -68t-61.5 -54t-76.5 -22q-35 0 -59 24.5t-24 69.5q0 22 7 65t17 94l21.5 104.5l20.5 96.5l-61 9v25q16 6 34.5 12t37 11t35.5 8.5t31 4.5l22 -12
q-16 -75 -32.5 -142.5t-30.5 -142.5q-5 -24 -10.5 -53.5t-5.5 -64.5q0 -21 11.5 -34t26.5 -13q22 0 44 13t41.5 34t37 46.5t31.5 50.5t23.5 46.5t14.5 34.5l44 225h83l-82 -445h74zM408 767q8 1 21 -0.5t27 -4.5t26 -7.5t18 -9.5v-19l-197 -151l-22 18z" />
    <glyph glyph-name="ucircumflex" unicode="&#xfb;" horiz-adv-x="542" 
d="M488 55v-25q-20 -16 -48.5 -26t-55.5 -10q-29 0 -41.5 12t-12.5 26q0 18 5 60.5t22 103.5h-4q-13 -28 -32.5 -64t-46.5 -68t-61.5 -54t-76.5 -22q-35 0 -59 24.5t-24 69.5q0 22 7 65t17 94l21.5 104.5l20.5 96.5l-61 9v25q16 6 34.5 12t37 11t35.5 8.5t31 4.5l22 -12
q-16 -75 -32.5 -142.5t-30.5 -142.5q-5 -24 -10.5 -53.5t-5.5 -64.5q0 -21 11.5 -34t26.5 -13q22 0 44 13t41.5 34t37 46.5t31.5 50.5t23.5 46.5t14.5 34.5l44 225h83l-82 -445h74zM229 590l-29 16l151 186q5 4 13 4t12 -4l73 -185l-27 -17l-78 107z" />
    <glyph glyph-name="udieresis" unicode="&#xfc;" horiz-adv-x="542" 
d="M488 55v-25q-20 -16 -48.5 -26t-55.5 -10q-29 0 -41.5 12t-12.5 26q0 18 5 60.5t22 103.5h-4q-13 -28 -32.5 -64t-46.5 -68t-61.5 -54t-76.5 -22q-35 0 -59 24.5t-24 69.5q0 22 7 65t17 94l21.5 104.5l20.5 96.5l-61 9v25q16 6 34.5 12t37 11t35.5 8.5t31 4.5l22 -12
q-16 -75 -32.5 -142.5t-30.5 -142.5q-5 -24 -10.5 -53.5t-5.5 -64.5q0 -21 11.5 -34t26.5 -13q22 0 44 13t41.5 34t37 46.5t31.5 50.5t23.5 46.5t14.5 34.5l44 225h83l-82 -445h74zM175 662q0 24 15 38.5t40 14.5q24 0 39 -14.5t15 -38.5q0 -23 -15 -37t-39 -14
q-25 0 -40 14t-15 37zM377 662q0 24 15 38.5t39 14.5q25 0 40 -14.5t15 -38.5q0 -23 -15 -37t-40 -14q-24 0 -39 14t-15 37z" />
    <glyph glyph-name="yacute" unicode="&#xfd;" horiz-adv-x="455" 
d="M88 442l-64 8v25q5 4 16.5 10t26.5 12t31 10.5t30 4.5q21 0 30.5 -10.5t14.5 -27.5l83 -350l3 -60h2l23 59q13 28 26.5 61.5l26.5 67.5t24 67t19 61q0 11 -2.5 29t-5.5 36t-6 33.5t-5 21.5q14 6 30 9t31 3q30 0 53 -12q-31 -124 -84.5 -248t-118.5 -252
q-54 -105 -108 -157t-122 -52q-15 0 -28.5 4t-28.5 12q-1 11 2 25t9.5 28t17 26t23.5 19l81 -42q7 5 18 14.5t23 26t24 40t23 56.5zM375 767q8 1 21 -0.5t27 -4.5t26 -7.5t18 -9.5v-19l-197 -151l-22 18z" />
    <glyph glyph-name="thorn" unicode="&#xfe;" horiz-adv-x="542" 
d="M97 -146q35 -6 70 -25v-29h-157l-9 9l183 883l-61 9v25q33 14 69.5 25t68.5 11l20 -12l-88 -426h4q18 40 39.5 74t46.5 59.5t54 40t62 14.5q22 0 42 -8.5t35 -26t23.5 -43.5t8.5 -60q0 -77 -23 -147t-62.5 -123t-92.5 -84.5t-114 -31.5q-17 0 -29 1t-21 3.5t-17.5 6.5
l-18.5 9zM352 450q-29 0 -55 -22.5t-48.5 -54.5t-40.5 -67.5t-29 -62.5l-39 -189q14 -12 29.5 -17.5t49.5 -5.5q40 0 75.5 29.5t62 75.5t42 102.5t15.5 111.5q0 48 -16.5 74t-45.5 26z" />
    <glyph glyph-name="ydieresis" unicode="&#xff;" horiz-adv-x="455" 
d="M88 442l-64 8v25q5 4 16.5 10t26.5 12t31 10.5t30 4.5q21 0 30.5 -10.5t14.5 -27.5l83 -350l3 -60h2l23 59q13 28 26.5 61.5l26.5 67.5t24 67t19 61q0 11 -2.5 29t-5.5 36t-6 33.5t-5 21.5q14 6 30 9t31 3q30 0 53 -12q-31 -124 -84.5 -248t-118.5 -252
q-54 -105 -108 -157t-122 -52q-15 0 -28.5 4t-28.5 12q-1 11 2 25t9.5 28t17 26t23.5 19l81 -42q7 5 18 14.5t23 26t24 40t23 56.5zM138 662q0 24 15 38.5t40 14.5q24 0 39 -14.5t15 -38.5q0 -23 -15 -37t-39 -14q-25 0 -40 14t-15 37zM340 662q0 24 15 38.5t39 14.5
q25 0 40 -14.5t15 -38.5q0 -23 -15 -37t-40 -14q-24 0 -39 14t-15 37z" />
    <glyph glyph-name="Amacron" unicode="&#x100;" horiz-adv-x="674" 
d="M176 0h-225l6 29q39 16 78 24l395 659h26l113 -659q18 -4 36.5 -9.5t33.5 -14.5l-5 -29h-254l5 29q45 17 88 24l-30 183h-235l-107 -183q43 -6 80 -24zM237 288h198l-32 212l-2 86h-2l-40 -88zM307 788l10 52h302l-11 -52h-301z" />
    <glyph glyph-name="amacron" unicode="&#x101;" horiz-adv-x="535" 
d="M189 50q27 0 54 25.5t51 61.5t43 75t30 65l32 171q-14 10 -27 14t-36 4q-46 0 -83.5 -28.5t-64 -73.5t-41 -100t-14.5 -108q0 -51 12.5 -78.5t43.5 -27.5zM347 196q-13 -36 -32.5 -73t-45 -67t-56.5 -49t-66 -19q-104 0 -104 151q0 70 20 136.5t58 118.5t92.5 83.5
t123.5 31.5q25 0 40 -4.5t36 -13.5q40 21 84 21l-90 -457h73v-25q-20 -16 -48 -26t-55 -10q-29 0 -41.5 12.5t-12.5 26.5q0 18 7 59t21 104h-4zM238 637l10 52h254l-11 -52h-253z" />
    <glyph glyph-name="Abreve" unicode="&#x102;" horiz-adv-x="674" 
d="M176 0h-225l6 29q39 16 78 24l395 659h26l113 -659q18 -4 36.5 -9.5t33.5 -14.5l-5 -29h-254l5 29q45 17 88 24l-30 183h-235l-107 -183q43 -6 80 -24zM237 288h198l-32 212l-2 86h-2l-40 -88zM587 883q16 2 32 -14q-8 -18 -27.5 -37.5t-44.5 -35.5t-53 -26.5t-53 -10.5
q-54 0 -85 29.5t-39 82.5q12 19 42 15q8 -24 34 -40t57 -17q44 -1 79 14t58 40z" />
    <glyph glyph-name="abreve" unicode="&#x103;" horiz-adv-x="535" 
d="M189 50q27 0 54 25.5t51 61.5t43 75t30 65l32 171q-14 10 -27 14t-36 4q-46 0 -83.5 -28.5t-64 -73.5t-41 -100t-14.5 -108q0 -51 12.5 -78.5t43.5 -27.5zM347 196q-13 -36 -32.5 -73t-45 -67t-56.5 -49t-66 -19q-104 0 -104 151q0 70 20 136.5t58 118.5t92.5 83.5
t123.5 31.5q25 0 40 -4.5t36 -13.5q40 21 84 21l-90 -457h73v-25q-20 -16 -48 -26t-55 -10q-29 0 -41.5 12.5t-12.5 26.5q0 18 7 59t21 104h-4zM507 719q-9 -23 -24.5 -44.5t-36 -39t-44.5 -28t-49 -10.5q-54 0 -83.5 35t-34.5 89l28 13q11 -25 36 -44.5t55 -20.5
q16 0 34.5 3.5t36 11t33 19.5t25.5 27z" />
    <glyph glyph-name="Aogonek" unicode="&#x104;" horiz-adv-x="674" 
d="M176 0h-225l6 29q39 16 78 24l395 659h26l113 -659q18 -4 36.5 -9.5t33.5 -14.5l-2 -11l-3 -18h-40q-23 -12 -43 -26.5t-35.5 -31.5t-24.5 -36.5t-9 -40.5q0 -28 18 -46t49 -18t55 6v-29q-14 -11 -36 -20t-55 -9q-23 0 -43.5 7t-36 20t-24.5 31.5t-9 40.5q0 51 38 88
t100 64h-158l5 29q45 17 88 24l-30 183h-235l-107 -183q43 -6 80 -24zM237 288h198l-32 212l-2 86h-2l-40 -88z" />
    <glyph glyph-name="aogonek" unicode="&#x105;" horiz-adv-x="535" 
d="M347 196q-13 -36 -32.5 -73t-45 -67t-56.5 -49t-66 -19q-104 0 -104 151q0 70 20 136.5t58 118.5t92.5 83.5t123.5 31.5q25 0 40 -4.5t36 -13.5q40 21 84 21l-90 -457h73v-25q-21 -16 -46 -25q-16 -9 -32 -21.5t-29 -28t-21.5 -34t-8.5 -39.5q0 -26 14 -43t47 -18
q11 1 19 3.5t22 6.5v-32q-14 -8 -35.5 -14.5t-39.5 -6.5q-60 0 -85 25t-25 63q0 44 28 75t81 54q-25 2 -35.5 13t-10.5 25q0 18 7 59t21 104h-4zM189 50q27 0 54 25.5t51 61.5t43 75t30 65l32 171q-14 10 -27 14t-36 4q-46 0 -83.5 -28.5t-64 -73.5t-41 -100t-14.5 -108
q0 -51 12.5 -78.5t43.5 -27.5z" />
    <glyph glyph-name="Cacute" unicode="&#x106;" horiz-adv-x="635" 
d="M557 182h25q0 -28 -5.5 -70.5t-16.5 -82.5q-20 -11 -43 -19t-48 -13t-49 -7t-45 -2q-85 0 -144 24t-95.5 63t-53 87t-16.5 96q0 102 29 185.5t82.5 143t130 92.5t172.5 33q66 0 112 -9t77 -25q-3 -16 -8.5 -37.5t-13 -45.5t-15.5 -47l-15 -42h-26l-21 144
q-13 5 -39.5 7.5t-51.5 2.5q-66 0 -122 -25.5t-97 -75.5t-64 -125t-23 -174q0 -62 21.5 -104.5t54 -68.5t70.5 -37t72 -10q34 -1 57.5 5t34.5 13zM541 893q9 1 23 -1t28.5 -6.5t27 -11t18.5 -13.5v-20l-226 -91l-17 19z" />
    <glyph glyph-name="cacute" unicode="&#x107;" horiz-adv-x="428" 
d="M382 89q-11 -19 -28 -37t-40 -32.5t-51.5 -23t-62.5 -8.5q-74 0 -117 47t-43 128q0 72 23 135.5t62.5 111t93 75t114.5 27.5q38 0 62 -6t36 -17q1 -11 -1.5 -24.5t-8 -26.5t-14 -24t-17.5 -15l-68 70q-34 -1 -67.5 -21t-60 -57t-43 -89.5t-15.5 -118.5q-1 -69 27.5 -101
t77.5 -32q21 0 39.5 6t34.5 15t29 19l23 18zM393 767q8 1 21 -0.5t27 -4.5t26 -7.5t18 -9.5v-19l-197 -151l-22 18z" />
    <glyph glyph-name="Ccircumflex" unicode="&#x108;" horiz-adv-x="635" 
d="M557 182h25q0 -28 -5.5 -70.5t-16.5 -82.5q-20 -11 -43 -19t-48 -13t-49 -7t-45 -2q-85 0 -144 24t-95.5 63t-53 87t-16.5 96q0 102 29 185.5t82.5 143t130 92.5t172.5 33q66 0 112 -9t77 -25q-3 -16 -8.5 -37.5t-13 -45.5t-15.5 -47l-15 -42h-26l-21 144
q-13 5 -39.5 7.5t-51.5 2.5q-66 0 -122 -25.5t-97 -75.5t-64 -125t-23 -174q0 -62 21.5 -104.5t54 -68.5t70.5 -37t72 -10q34 -1 57.5 5t34.5 13zM345 752l-14 19l167 112q5 4 14 4q8 0 12 -4l85 -109l-15 -21l-100 56z" />
    <glyph glyph-name="ccircumflex" unicode="&#x109;" horiz-adv-x="428" 
d="M382 89q-11 -19 -28 -37t-40 -32.5t-51.5 -23t-62.5 -8.5q-74 0 -117 47t-43 128q0 72 23 135.5t62.5 111t93 75t114.5 27.5q38 0 62 -6t36 -17q1 -11 -1.5 -24.5t-8 -26.5t-14 -24t-17.5 -15l-68 70q-34 -1 -67.5 -21t-60 -57t-43 -89.5t-15.5 -118.5q-1 -69 27.5 -101
t77.5 -32q21 0 39.5 6t34.5 15t29 19l23 18zM226 590l-29 16l151 186q5 4 13 4t12 -4l73 -185l-27 -17l-78 107z" />
    <glyph glyph-name="Ccaron" unicode="&#x10c;" horiz-adv-x="635" 
d="M557 182h25q0 -28 -5.5 -70.5t-16.5 -82.5q-20 -11 -43 -19t-48 -13t-49 -7t-45 -2q-85 0 -144 24t-95.5 63t-53 87t-16.5 96q0 102 29 185.5t82.5 143t130 92.5t172.5 33q66 0 112 -9t77 -25q-3 -16 -8.5 -37.5t-13 -45.5t-15.5 -47l-15 -42h-26l-21 144
q-13 5 -39.5 7.5t-51.5 2.5q-66 0 -122 -25.5t-97 -75.5t-64 -125t-23 -174q0 -62 21.5 -104.5t54 -68.5t70.5 -37t72 -10q34 -1 57.5 5t34.5 13zM640 888q8 0 15 -5t10 -12l-167 -112q-5 -3 -13 -3q-7 0 -13 3l-85 109q4 7 9.5 13.5t15.5 6.5l90 -55z" />
    <glyph glyph-name="ccaron" unicode="&#x10d;" horiz-adv-x="428" 
d="M382 89q-11 -19 -28 -37t-40 -32.5t-51.5 -23t-62.5 -8.5q-74 0 -117 47t-43 128q0 72 23 135.5t62.5 111t93 75t114.5 27.5q38 0 62 -6t36 -17q1 -11 -1.5 -24.5t-8 -26.5t-14 -24t-17.5 -15l-68 70q-34 -1 -67.5 -21t-60 -57t-43 -89.5t-15.5 -118.5q-1 -69 27.5 -101
t77.5 -32q21 0 39.5 6t34.5 15t29 19l23 18zM459 796q9 1 17.5 -4t11.5 -12l-164 -185q-5 -3 -13 -3t-12 3l-81 184q4 8 14 13t20 4l77 -106z" />
    <glyph glyph-name="Dcaron" unicode="&#x10e;" horiz-adv-x="702" 
d="M-20 0l5 29q41 17 88 24l125 593q-22 5 -41.5 11.5t-35.5 13.5l7 29h101q17 0 40.5 1t48 2.5l47.5 3t38 1.5q80 0 136 -19t90.5 -51.5t50 -77t15.5 -95.5t-8.5 -106.5t-28.5 -108t-53.5 -99.5t-84 -82.5t-119.5 -56.5t-159 -21q-15 0 -35.5 1.5t-43.5 3l-46 3t-42 1.5
h-95zM383 656q-26 0 -53 -1t-41 -3l-128 -606q10 -1 24.5 -1.5l29 -1t26 -1t17.5 0.5q94 -1 157.5 37t102 99.5t54.5 138t16 153.5q0 39 -9 73t-32 58.5t-62.5 39t-101.5 14.5zM543 888q8 0 15 -5t10 -12l-167 -112q-5 -3 -13 -3q-7 0 -13 3l-85 109q4 7 9.5 13.5t15.5 6.5
l90 -55z" />
    <glyph glyph-name="dcaron" unicode="&#x10f;" horiz-adv-x="535" 
d="M191 50q27 0 54 25.5t51 61.5t43 75t30 65l32 171q-15 10 -27.5 13.5t-35.5 4.5q-48 -1 -86 -29.5t-64 -73t-39.5 -99.5t-13.5 -108q0 -51 12.5 -78.5t43.5 -27.5zM349 196q-13 -36 -33 -73t-45.5 -67t-56 -49t-65.5 -19q-104 0 -104 152q0 71 20 137.5t58 118t92 82.5
t123 31q26 0 39 -3.5t33 -12.5l38 189l-70 9v25q15 6 33 11.5t37.5 10t39.5 8.5t37 6l21 -8l-137 -689h73v-25q-20 -16 -48 -26t-55 -10q-29 0 -41.5 12.5t-12.5 26.5q0 18 7 59t21 104h-4zM545 543q26 47 44.5 98.5t18.5 92.5l12 16q7 1 18.5 -0.5t23.5 -5t23 -8t17 -9.5
q-5 -28 -19.5 -56t-34.5 -54t-42 -48t-41 -37z" />
    <glyph glyph-name="Dcroat" unicode="&#x110;" horiz-adv-x="702" 
d="M-20 0l5 29q41 17 88 24l59 278h-90l11 52h89l56 263q-22 5 -41.5 11.5t-35.5 13.5l7 29h101q17 0 40.5 1t48 2.5l47.5 3t38 1.5q80 0 136 -19t90.5 -51.5t50 -77t15.5 -95.5t-8.5 -106.5t-28.5 -108t-53.5 -99.5t-84 -82.5t-119.5 -56.5t-159 -21q-15 0 -35.5 1.5
t-43.5 3l-46 3t-42 1.5h-95zM383 656q-26 0 -53 -1t-41 -3l-57 -269h167l-11 -52h-167l-60 -284q10 -1 24.5 -1.5l29 -1t26 -1t17.5 -0.5q94 -1 157.5 37t102 99.5t54.5 138t16 153.5q0 39 -9 73t-32 58.5t-62.5 39t-101.5 14.5z" />
    <glyph glyph-name="dcroat" unicode="&#x111;" horiz-adv-x="535" 
d="M274 623h161l13 59l-70 9v25q15 6 33 11.5t37.5 10t39.5 8.5t37 6l21 -8l-25 -121h89l-13 -52h-86l-102 -516h73v-25q-20 -16 -48 -26t-55 -10q-29 0 -41.5 12.5t-12.5 26.5q0 18 7 59t21 104h-4q-13 -36 -33 -73t-45.5 -67t-56 -49t-65.5 -19q-104 0 -104 152
q0 71 20 137.5t58 118t92 82.5t123 31q26 0 39 -3.5t33 -12.5l15 78h-163zM191 50q27 0 54 25.5t51 61.5t43 75t30 65l32 171q-15 10 -27.5 13.5t-35.5 4.5q-48 -1 -86 -29.5t-64 -73t-39.5 -99.5t-13.5 -108q0 -51 12.5 -78.5t43.5 -27.5z" />
    <glyph glyph-name="Emacron" unicode="&#x112;" horiz-adv-x="572" 
d="M601 700q-8 -40 -19 -81t-26 -81h-26l-17 110h-219l-55 -265h162l55 74h25q-8 -50 -18.5 -100.5t-24.5 -101.5h-25l-23 76h-163l-58 -279h229l75 120h25q-2 -39 -8 -83.5t-17 -88.5h-493l5 29q41 17 88 24l125 593q-20 5 -39 11t-38 14l7 29h473zM243 788l10 52h302
l-11 -52h-301z" />
    <glyph glyph-name="emacron" unicode="&#x113;" horiz-adv-x="454" 
d="M392 89q-9 -19 -26 -37t-40 -32.5t-52 -23t-62 -8.5q-83 0 -127.5 47.5t-44.5 131.5q0 71 20 134t56 110t87.5 74t114.5 27q48 0 82.5 -24.5t34.5 -72.5q0 -71 -70.5 -112t-227.5 -53q-4 -17 -5.5 -33t-1.5 -31q0 -60 30.5 -98t89.5 -38q19 0 37.5 6t35 15t30 19l23.5 18
zM287 469q-43 -1 -80 -40.5t-63 -135.5q97 3 151 33.5t54 84.5q0 21 -12.5 39t-49.5 19zM200 637l10 52h254l-11 -52h-253z" />
    <glyph glyph-name="Edotaccent" unicode="&#x116;" horiz-adv-x="572" 
d="M601 700q-8 -40 -19 -81t-26 -81h-26l-17 110h-219l-55 -265h162l55 74h25q-8 -50 -18.5 -100.5t-24.5 -101.5h-25l-23 76h-163l-58 -279h229l75 120h25q-2 -39 -8 -83.5t-17 -88.5h-493l5 29q41 17 88 24l125 593q-20 5 -39 11t-38 14l7 29h473zM327 817q0 26 19 40
t46 14t45 -14t18 -40t-18 -40t-45 -14t-46 14t-19 40z" />
    <glyph glyph-name="edotaccent" unicode="&#x117;" horiz-adv-x="454" 
d="M392 89q-9 -19 -26 -37t-40 -32.5t-52 -23t-62 -8.5q-83 0 -127.5 47.5t-44.5 131.5q0 71 20 134t56 110t87.5 74t114.5 27q48 0 82.5 -24.5t34.5 -72.5q0 -71 -70.5 -112t-227.5 -53q-4 -17 -5.5 -33t-1.5 -31q0 -60 30.5 -98t89.5 -38q19 0 37.5 6t35 15t30 19l23.5 18
zM287 469q-43 -1 -80 -40.5t-63 -135.5q97 3 151 33.5t54 84.5q0 21 -12.5 39t-49.5 19zM262 673q0 26 16 41t42 15q28 0 44 -15t16 -41q0 -25 -16 -39t-44 -14q-26 0 -42 14t-16 39z" />
    <glyph glyph-name="Eogonek" unicode="&#x118;" horiz-adv-x="572" 
d="M601 700q-8 -40 -19 -81t-26 -81h-26l-17 110h-219l-55 -265h162l55 74h25q-8 -50 -18.5 -100.5t-24.5 -101.5h-25l-23 76h-163l-58 -279h229l75 120h25q-2 -39 -8 -83.5t-17 -88.5h-47q-23 -12 -43 -26.5t-35.5 -31.5t-24.5 -36.5t-9 -40.5q0 -28 18 -46t49 -18t55 6
v-29q-14 -11 -36 -20t-55 -9q-23 0 -43.5 7t-36 20t-24.5 31.5t-9 40.5q0 51 38 88t100 64h-390l5 29q41 17 88 24l125 593q-20 5 -39 11t-38 14l7 29h473z" />
    <glyph glyph-name="eogonek" unicode="&#x119;" horiz-adv-x="454" 
d="M392 89q-12 -26 -38 -49t-61 -37q-15 -9 -31 -21t-28.5 -27.5t-20.5 -34t-8 -38.5q0 -26 14 -43t47 -18q11 0 19 2.5t22 6.5v-31q-14 -8 -36 -14.5t-40 -6.5q-59 0 -84.5 25t-25.5 63q0 41 25 70.5t71 51.5q-85 1 -131 46.5t-46 132.5q0 71 20 134t56 110t87.5 74
t114.5 27q48 0 82.5 -24.5t34.5 -72.5q0 -71 -70.5 -112t-227.5 -53q-4 -17 -5.5 -33t-1.5 -31q0 -59 30 -97.5t90 -38.5q19 0 37.5 6t35 15t30 19l23.5 18zM287 469q-43 -1 -80 -40.5t-63 -135.5q97 3 151 33.5t54 84.5q0 21 -12.5 39t-49.5 19z" />
    <glyph glyph-name="Ecaron" unicode="&#x11a;" horiz-adv-x="572" 
d="M601 700q-8 -40 -19 -81t-26 -81h-26l-17 110h-219l-55 -265h162l55 74h25q-8 -50 -18.5 -100.5t-24.5 -101.5h-25l-23 76h-163l-58 -279h229l75 120h25q-2 -39 -8 -83.5t-17 -88.5h-493l5 29q41 17 88 24l125 593q-20 5 -39 11t-38 14l7 29h473zM546 888q8 0 15 -5
t10 -12l-167 -112q-5 -3 -13 -3q-7 0 -13 3l-85 109q4 7 9.5 13.5t15.5 6.5l90 -55z" />
    <glyph glyph-name="ecaron" unicode="&#x11b;" horiz-adv-x="454" 
d="M392 89q-9 -19 -26 -37t-40 -32.5t-52 -23t-62 -8.5q-83 0 -127.5 47.5t-44.5 131.5q0 71 20 134t56 110t87.5 74t114.5 27q48 0 82.5 -24.5t34.5 -72.5q0 -71 -70.5 -112t-227.5 -53q-4 -17 -5.5 -33t-1.5 -31q0 -60 30.5 -98t89.5 -38q19 0 37.5 6t35 15t30 19l23.5 18
zM287 469q-43 -1 -80 -40.5t-63 -135.5q97 3 151 33.5t54 84.5q0 21 -12.5 39t-49.5 19zM456 796q9 1 17.5 -4t11.5 -12l-164 -185q-5 -3 -13 -3t-12 3l-81 184q4 8 14 13t20 4l77 -106z" />
    <glyph glyph-name="Gcircumflex" unicode="&#x11c;" horiz-adv-x="679" 
d="M571 48q-22 -13 -50 -24t-57.5 -19t-59 -12.5t-54.5 -4.5q-133 0 -208.5 70.5t-75.5 200.5q0 101 28.5 184.5t82.5 143t131.5 92.5t175.5 33q66 0 113 -8.5t78 -25.5q-3 -15 -8.5 -37t-13 -46l-15.5 -47.5t-15 -41.5h-26l-21 144q-18 5 -45 7.5t-52 2.5
q-77 0 -134.5 -31.5t-95.5 -85.5t-57 -126.5t-19 -155.5q0 -71 20 -114.5t49.5 -67.5t63 -32t61.5 -7q40 -1 74 12t47 23l44 202q-26 2 -48 9t-43 15l7 29h245l-6 -29q-11 -7 -27 -13t-41 -11zM348 752l-14 19l167 112q5 4 14 4q8 0 12 -4l85 -109l-15 -21l-100 56z" />
    <glyph glyph-name="gcircumflex" unicode="&#x11d;" horiz-adv-x="489" 
d="M280 512q48 0 78.5 -12t47.5 -26q9 8 24 16t32 15t35 13l34 11q3 -5 5 -15t1.5 -22t-4 -24.5t-10.5 -22.5l-103 7q3 -9 6 -20.5t3 -25.5q0 -40 -16.5 -74t-45.5 -58.5t-67.5 -38.5t-81.5 -14q-17 0 -27.5 0.5t-23.5 3.5q-9 -10 -24.5 -23.5t-15.5 -29.5q0 -17 22 -26
t55.5 -16.5l72.5 -16t72.5 -23t55.5 -37.5t22 -61q0 -47 -26.5 -84.5t-70 -64t-99 -41t-112.5 -14.5q-46 0 -79 9.5t-54 26t-31 37.5t-10 44q0 28 12.5 52t33.5 45.5t48 39.5t56 34q-15 8 -24.5 21.5t-9.5 30.5q0 15 10 31.5t23.5 31.5t27 26t20.5 16q-12 3 -24.5 11
t-23.5 21t-18 30t-7 38q0 39 16.5 72t45.5 56.5t67 37t82 13.5zM165 -169q31 0 61.5 9t55 25.5t40 41t15.5 55.5q0 30 -24.5 46.5t-59.5 26.5t-72.5 16.5t-64.5 15.5q-47 -34 -64.5 -71t-16.5 -69q-1 -45 34.5 -70.5t95.5 -25.5zM272 472q-29 0 -51.5 -11t-38.5 -29.5
t-24 -43.5t-8 -53q0 -38 24.5 -56t52.5 -18q30 0 51.5 10.5t36 28.5t21.5 41t7 48q0 37 -17.5 60t-53.5 23zM209 590l-29 16l151 186q5 4 13 4t12 -4l73 -185l-27 -17l-78 107z" />
    <glyph glyph-name="Gbreve" unicode="&#x11e;" horiz-adv-x="679" 
d="M571 48q-22 -13 -50 -24t-57.5 -19t-59 -12.5t-54.5 -4.5q-133 0 -208.5 70.5t-75.5 200.5q0 101 28.5 184.5t82.5 143t131.5 92.5t175.5 33q66 0 113 -8.5t78 -25.5q-3 -15 -8.5 -37t-13 -46l-15.5 -47.5t-15 -41.5h-26l-21 144q-18 5 -45 7.5t-52 2.5
q-77 0 -134.5 -31.5t-95.5 -85.5t-57 -126.5t-19 -155.5q0 -71 20 -114.5t49.5 -67.5t63 -32t61.5 -7q40 -1 74 12t47 23l44 202q-26 2 -48 9t-43 15l7 29h245l-6 -29q-11 -7 -27 -13t-41 -11zM636 883q16 2 32 -14q-8 -18 -27.5 -37.5t-44.5 -35.5t-53 -26.5t-53 -10.5
q-54 0 -85 29.5t-39 82.5q12 19 42 15q8 -24 34 -40t57 -17q44 -1 79 14t58 40z" />
    <glyph glyph-name="gbreve" unicode="&#x11f;" horiz-adv-x="489" 
d="M280 512q48 0 78.5 -12t47.5 -26q9 8 24 16t32 15t35 13l34 11q3 -5 5 -15t1.5 -22t-4 -24.5t-10.5 -22.5l-103 7q3 -9 6 -20.5t3 -25.5q0 -40 -16.5 -74t-45.5 -58.5t-67.5 -38.5t-81.5 -14q-17 0 -27.5 0.5t-23.5 3.5q-9 -10 -24.5 -23.5t-15.5 -29.5q0 -17 22 -26
t55.5 -16.5l72.5 -16t72.5 -23t55.5 -37.5t22 -61q0 -47 -26.5 -84.5t-70 -64t-99 -41t-112.5 -14.5q-46 0 -79 9.5t-54 26t-31 37.5t-10 44q0 28 12.5 52t33.5 45.5t48 39.5t56 34q-15 8 -24.5 21.5t-9.5 30.5q0 15 10 31.5t23.5 31.5t27 26t20.5 16q-12 3 -24.5 11
t-23.5 21t-18 30t-7 38q0 39 16.5 72t45.5 56.5t67 37t82 13.5zM165 -169q31 0 61.5 9t55 25.5t40 41t15.5 55.5q0 30 -24.5 46.5t-59.5 26.5t-72.5 16.5t-64.5 15.5q-47 -34 -64.5 -71t-16.5 -69q-1 -45 34.5 -70.5t95.5 -25.5zM272 472q-29 0 -51.5 -11t-38.5 -29.5
t-24 -43.5t-8 -53q0 -38 24.5 -56t52.5 -18q30 0 51.5 10.5t36 28.5t21.5 41t7 48q0 37 -17.5 60t-53.5 23zM459 719q-9 -23 -24.5 -44.5t-36 -39t-44.5 -28t-49 -10.5q-54 0 -83.5 35t-34.5 89l28 13q11 -25 36 -44.5t55 -20.5q16 0 34.5 3.5t36 11t33 19.5t25.5 27z" />
    <glyph glyph-name="Gcommaaccent" unicode="&#x122;" horiz-adv-x="679" 
d="M571 48q-22 -13 -50 -24t-57.5 -19t-59 -12.5t-54.5 -4.5q-133 0 -208.5 70.5t-75.5 200.5q0 101 28.5 184.5t82.5 143t131.5 92.5t175.5 33q66 0 113 -8.5t78 -25.5q-3 -15 -8.5 -37t-13 -46l-15.5 -47.5t-15 -41.5h-26l-21 144q-18 5 -45 7.5t-52 2.5
q-77 0 -134.5 -31.5t-95.5 -85.5t-57 -126.5t-19 -155.5q0 -71 20 -114.5t49.5 -67.5t63 -32t61.5 -7q40 -1 74 12t47 23l44 202q-26 2 -48 9t-43 15l7 29h245l-6 -29q-11 -7 -27 -13t-41 -11zM231 -237q40 11 63.5 30t28.5 51q-9 10 -24.5 20.5t-28.5 14.5q-1 14 7.5 27.5
t20.5 23.5t26 16.5t24 6.5q32 -2 55.5 -21.5t23.5 -51.5q0 -28 -14 -53.5t-38 -45.5t-57.5 -34t-72.5 -19z" />
    <glyph glyph-name="gcommaaccent" unicode="&#x123;" horiz-adv-x="489" 
d="M280 512q48 0 78.5 -12t47.5 -26q9 8 24 16t32 15t35 13l34 11q3 -5 5 -15t1.5 -22t-4 -24.5t-10.5 -22.5l-103 7q3 -9 6 -20.5t3 -25.5q0 -40 -16.5 -74t-45.5 -58.5t-67.5 -38.5t-81.5 -14q-17 0 -27.5 0.5t-23.5 3.5q-9 -10 -24.5 -23.5t-15.5 -29.5q0 -17 22 -26
t55.5 -16.5l72.5 -16t72.5 -23t55.5 -37.5t22 -61q0 -47 -26.5 -84.5t-70 -64t-99 -41t-112.5 -14.5q-46 0 -79 9.5t-54 26t-31 37.5t-10 44q0 28 12.5 52t33.5 45.5t48 39.5t56 34q-15 8 -24.5 21.5t-9.5 30.5q0 15 10 31.5t23.5 31.5t27 26t20.5 16q-12 3 -24.5 11
t-23.5 21t-18 30t-7 38q0 39 16.5 72t45.5 56.5t67 37t82 13.5zM165 -169q31 0 61.5 9t55 25.5t40 41t15.5 55.5q0 30 -24.5 46.5t-59.5 26.5t-72.5 16.5t-64.5 15.5q-47 -34 -64.5 -71t-16.5 -69q-1 -45 34.5 -70.5t95.5 -25.5zM272 472q-29 0 -51.5 -11t-38.5 -29.5
t-24 -43.5t-8 -53q0 -38 24.5 -56t52.5 -18q30 0 51.5 10.5t36 28.5t21.5 41t7 48q0 37 -17.5 60t-53.5 23zM396.002 772.986q-78.9951 -21.999 -85.9951 -79.9951q8 -10 22.999 -19.499q14.999 -9.5 27.998 -13.499q1 -13.999 -6.5 -26.499
q-7.49902 -12.499 -18.998 -22.498q-11.5 -10 -23.999 -15.999q-12.499 -6 -22.498 -6q-29.999 2 -46.9971 19.999q-16.999 17.999 -16.999 49.9971q0 25.998 11.999 49.4971q11.999 23.498 32.998 42.9971q20.998 19.499 50.4971 32.998q29.498 13.499 64.4961 18.499z" />
    <glyph glyph-name="Hcircumflex" unicode="&#x124;" horiz-adv-x="719" 
d="M233 0h-253l5 29q22 10 44 15.5t44 8.5l125 593q-45 9 -77 25l7 29h253l-6 -29q-17 -9 -39 -15t-42 -10l-55 -261h314l56 261q-20 5 -37.5 10.5t-33.5 14.5l7 29h253l-6 -29q-20 -10 -42.5 -15.5t-44.5 -9.5l-126 -593q45 -8 76 -24l-5 -29h-253l5 29q19 8 39.5 14
t41.5 10l59 280h-315l-58 -280q18 -4 36 -10t33 -14zM350 752l-14 19l167 112q5 4 14 4q8 0 12 -4l85 -109l-15 -21l-100 56z" />
    <glyph glyph-name="hcircumflex" unicode="&#x125;" horiz-adv-x="543" 
d="M103 691v23q15 6 33.5 12.5t38.5 12t39 9t36 4.5l21 -9l-90 -420h5q19 40 43 74.5t50.5 60t55.5 40t59 14.5q46 0 66.5 -26.5t20.5 -65.5q0 -27 -5 -58t-12 -60l-57 -246h74v-26q-20 -16 -48 -26t-56 -10q-29 0 -40 12t-11 26q0 18 5 40.5l10 45.5l36 167q7 31 12.5 58
t5.5 52q0 23 -10 39t-27 16q-31 0 -60 -22t-54 -53t-44 -64.5t-29 -55.5l-53 -255h-84l137 682zM136 752l-14 19l167 112q5 4 14 4q8 0 12 -4l85 -109l-15 -21l-100 56z" />
    <glyph glyph-name="Hbar" unicode="&#x126;" horiz-adv-x="721" 
d="M99 557h80l19 89q-45 9 -77 25l7 29h253l-6 -29q-17 -9 -39 -15t-42 -10l-19 -89h314l20 89q-20 5 -37.5 10.5t-33.5 14.5l7 29h253l-6 -29q-20 -10 -42.5 -15.5t-44.5 -9.5l-19 -89h81l-12 -52h-80l-96 -452q45 -8 76 -24l-5 -29h-253l5 29q19 8 39.5 14t41.5 10l59 280
h-315l-58 -280q18 -4 36 -10t33 -14l-5 -29h-253l5 29q22 10 44 15.5t44 8.5l95 452h-80zM553 385l26 120h-315l-25 -120h314z" />
    <glyph glyph-name="hbar" unicode="&#x127;" horiz-adv-x="543" 
d="M73 612h84l14 70l-68 9v23q15 6 33.5 12.5t38.5 12t39 9t36 4.5l21 -9l-27 -131h165l-13 -52h-164l-51 -237h5q19 40 43 74.5t50.5 60t55.5 40t59 14.5q46 0 66.5 -26.5t20.5 -65.5q0 -27 -5 -58t-12 -60l-57 -246h74v-26q-20 -16 -48 -26t-56 -10q-29 0 -40 12t-11 26
q0 18 5 40.5l10 45.5l36 167q7 31 12.5 58t5.5 52q0 23 -10 39t-27 16q-31 0 -60 -22t-54 -53t-44 -64.5t-29 -55.5l-53 -255h-84l112 560h-85z" />
    <glyph glyph-name="Imacron" unicode="&#x12a;" horiz-adv-x="343" 
d="M255 0h-256l5 29q44 18 86 24l125 593q-20 4 -38 10.5t-37 14.5l7 29h256l-6 -29q-20 -8 -43 -14.5t-43 -10.5l-125 -593q20 -4 39.5 -10t34.5 -14zM138 788l10 52h302l-11 -52h-301z" />
    <glyph glyph-name="imacron" unicode="&#x12b;" horiz-adv-x="277" 
d="M71 451v25q15 6 34 12.5t39 11.5t38 8.5t32 3.5l18 -12l-94 -444h74v-26q-21 -16 -49 -26t-55 -10q-29 0 -41.5 13t-12.5 30q0 20 3 39t8 42l70 323zM88 637l10 52h254l-11 -52h-253z" />
    <glyph glyph-name="Iogonek" unicode="&#x12e;" horiz-adv-x="343" 
d="M255 0h-51q-46 -23 -79 -58t-33 -77q0 -28 18 -46t49 -18t55 6v-29q-14 -11 -36 -20t-55 -9q-23 0 -43.5 7t-36 20t-24.5 31.5t-9 40.5q0 51 38 88t100 64h-149l5 29q44 18 86 24l125 593q-20 4 -38 10.5t-37 14.5l7 29h256l-6 -29q-20 -8 -43 -14.5t-43 -10.5l-125 -593
q20 -4 39.5 -10t34.5 -14z" />
    <glyph glyph-name="iogonek" unicode="&#x12f;" horiz-adv-x="277" 
d="M70 451v25q15 6 34 12.5t39 11.5t38 8.5t32 3.5l18 -12l-94 -445h74v-25q-11 -8 -23.5 -14.5t-26.5 -11.5q-15 -9 -31 -21.5t-28.5 -28t-20.5 -34t-8 -38.5q0 -26 14 -43t47 -18q10 0 18.5 2.5l22.5 6.5v-31q-14 -8 -36 -14.5t-40 -6.5q-59 0 -84.5 25t-25.5 63
q0 44 28 75t81 54q-24 2 -34.5 14t-10.5 28q0 20 3 39t8 42l70 323zM150 673q0 26 16 41t42 15q28 0 44 -15t16 -41q0 -25 -16 -39t-44 -14q-26 0 -42 14t-16 39z" />
    <glyph glyph-name="Idotaccent" unicode="&#x130;" horiz-adv-x="343" 
d="M255 0h-256l5 29q44 18 86 24l125 593q-20 4 -38 10.5t-37 14.5l7 29h256l-6 -29q-20 -8 -43 -14.5t-43 -10.5l-125 -593q20 -4 39.5 -10t34.5 -14zM221 817q0 26 19 40t46 14t45 -14t18 -40t-18 -40t-45 -14t-46 14t-19 40z" />
    <glyph glyph-name="dotlessi" unicode="&#x131;" horiz-adv-x="277" 
d="M70 451v25q15 6 34 12.5t39 11.5t38 8.5t32 3.5l18 -12l-94 -444h74v-26q-21 -16 -49 -26t-55 -10q-29 0 -41.5 13t-12.5 30q0 20 3 39t8 42l70 323z" />
    <glyph glyph-name="Jcircumflex" unicode="&#x134;" horiz-adv-x="331" 
d="M136 700h255l-5 -29q-20 -9 -43 -15t-43 -10l-118 -560q-15 -69 -40.5 -114t-55 -72.5t-59 -41t-52.5 -18.5l-7 15q20 16 36.5 32.5t30.5 41t26 59.5t23 87l120 571q-43 10 -74 25zM144 752l-14 19l167 112q5 4 14 4q8 0 12 -4l85 -109l-15 -21l-100 56z" />
    <glyph glyph-name="jcircumflex" unicode="&#x135;" horiz-adv-x="275" 
d="M133 442l-60 9v25q31 14 69 25t69 11l20 -12l-97 -457q-15 -71 -41.5 -118t-55.5 -76t-55.5 -43t-42.5 -18l-12 22q12 6 28 20.5t32 40t31.5 63.5t26.5 90zM102 590l-29 16l151 186q5 4 13 4t12 -4l73 -185l-27 -17l-78 107z" />
    <glyph glyph-name="Kcommaaccent" unicode="&#x136;" horiz-adv-x="637" 
d="M476 700h227l-7 -29q-18 -9 -40 -15t-41 -10l-259 -270l41.5 -73l50 -83l55 -87l56.5 -84l43 -24l-5 -25h-121l-29 24q-45 69 -87 149t-79 162h-53l-59 -282q41 -8 69 -24l-5 -29h-253l5 29q45 18 88 24l125 593q-22 4 -41.5 10t-35.5 15l7 29h253l-6 -29
q-34 -16 -81 -25l-58 -277l60 14l240 263q-20 5 -36 10.5t-31 14.5zM179 -237q40 11 63.5 30t28.5 51q-9 10 -24.5 20.5t-28.5 14.5q-1 14 7.5 27.5t20.5 23.5t26 16.5t24 6.5q32 -2 55.5 -21.5t23.5 -51.5q0 -28 -14 -53.5t-38 -45.5t-57.5 -34t-72.5 -19z" />
    <glyph glyph-name="kcommaaccent" unicode="&#x137;" horiz-adv-x="481" 
d="M299 45q-32 54 -54 102.5l-42 90.5l-36 10l-47 -248h-86l136 682l-70 9v25q29 13 70.5 23.5t76.5 12.5l21 -11l-94 -467h29q21 13 43.5 32t43 39t36.5 38.5t25 31.5q1 7 1.5 19t0 24.5l-1 24t-1.5 17.5q37 13 72 13q36 0 60 -13q-13 -33 -40 -66t-58 -61.5t-61 -52
t-48 -36.5q7 -19 22.5 -49.5t34 -63.5t39 -64t37.5 -51h63v-26q-20 -16 -43.5 -26t-49.5 -10q-24 0 -43 11t-36 40zM114 -231q79 22 86 80q-8 10 -23 19.5t-28 13.5q-1 14 6.5 26.5t19 22.5t24 16t22.5 6q30 -2 47 -20t17 -50q0 -26 -12 -49.5t-33 -43t-50.5 -33
t-64.5 -18.5z" />
    <glyph glyph-name="Lacute" unicode="&#x139;" horiz-adv-x="538" 
d="M128 700h274l-7 -29q-25 -9 -50.5 -15.5t-50.5 -9.5l-125 -594h229l93 161h26q-2 -21 -5 -48.5t-7.5 -57t-10 -57.5t-11.5 -50h-503l5 29q27 11 48 16t40 8l125 593q-47 9 -77 25zM393 893q9 1 23 -1t28.5 -6.5t27 -11t18.5 -13.5v-20l-226 -91l-17 19z" />
    <glyph glyph-name="lacute" unicode="&#x13a;" horiz-adv-x="277" 
d="M174 682l-71 9v25q14 6 32.5 12t39 11.5t40.5 9t36 3.5l20 -11l-138 -685h73v-26q-20 -16 -48.5 -26t-55.5 -10q-29 0 -42.5 13t-13.5 30q0 20 3 39t8 42zM314 903q9 1 23 -1t28.5 -6.5t27 -11t18.5 -13.5v-20l-226 -91l-17 19z" />
    <glyph glyph-name="Lcommaaccent" unicode="&#x13b;" horiz-adv-x="538" 
d="M128 700h274l-7 -29q-25 -9 -50.5 -15.5t-50.5 -9.5l-125 -594h229l93 161h26q-2 -21 -5 -48.5t-7.5 -57t-10 -57.5t-11.5 -50h-503l5 29q27 11 48 16t40 8l125 593q-47 9 -77 25zM132 -237q40 11 63.5 30t28.5 51q-9 10 -24.5 20.5t-28.5 14.5q-1 14 7.5 27.5t20.5 23.5
t26 16.5t24 6.5q32 -2 55.5 -21.5t23.5 -51.5q0 -28 -14 -53.5t-38 -45.5t-57.5 -34t-72.5 -19z" />
    <glyph glyph-name="lcommaaccent" unicode="&#x13c;" horiz-adv-x="277" 
d="M174 682l-71 9v25q14 6 32.5 12t39 11.5t40.5 9t36 3.5l20 -11l-138 -685h73v-26q-20 -16 -48.5 -26t-55.5 -10q-29 0 -42.5 13t-13.5 30q0 20 3 39t8 42zM3 -231q79 22 86 80q-8 10 -23 19.5t-28 13.5q-1 14 6.5 26.5t19 22.5t24 16t22.5 6q30 -2 47 -20t17 -50
q0 -26 -12 -49.5t-33 -43t-50.5 -33t-64.5 -18.5z" />
    <glyph glyph-name="Lcaron" unicode="&#x13d;" horiz-adv-x="538" 
d="M128 700h274l-7 -29q-25 -9 -50.5 -15.5t-50.5 -9.5l-125 -594h229l93 161h26q-2 -21 -5 -48.5t-7.5 -57t-10 -57.5t-11.5 -50h-503l5 29q27 11 48 16t40 8l125 593q-47 9 -77 25zM442 504q10 22 18.5 47.5t13.5 51t8 49.5t3 44l12 16q8 1 21 -1.5t26.5 -7t25.5 -11
t19 -13.5q-4 -27 -18 -55.5t-32.5 -53.5t-39 -45.5t-37.5 -31.5z" />
    <glyph glyph-name="lcaron" unicode="&#x13e;" horiz-adv-x="277" 
d="M174 682l-71 9v25q14 6 32.5 12t39 11.5t40.5 9t36 3.5l20 -11l-138 -685h73v-26q-20 -16 -48.5 -26t-55.5 -10q-29 0 -42.5 13t-13.5 30q0 20 3 39t8 42zM280 543q26 47 44.5 98.5t18.5 92.5l12 16q7 1 18.5 -0.5t23.5 -5t23 -8t17 -9.5q-5 -28 -19.5 -56t-34.5 -54
t-42 -48t-41 -37z" />
    <glyph glyph-name="Lslash" unicode="&#x141;" horiz-adv-x="538" 
d="M128 700h274l-7 -29q-25 -9 -50.5 -15.5t-50.5 -9.5l-54 -254l153 84l-14 -66l-152 -84l-58 -274h229l93 161h26q-2 -21 -5 -48.5t-7.5 -57t-10 -57.5t-11.5 -50h-503l5 29q27 11 48 16t40 8l45 215l-106 -58l14 65l105 58l67 313q-47 9 -77 25z" />
    <glyph glyph-name="lslash" unicode="&#x142;" horiz-adv-x="298" 
d="M13 295l100 58l68 329l-71 9v25q14 6 32.5 12t39 11.5t40.5 9t36 3.5l20 -11l-67 -331l104 61l-13 -66l-104 -60l-58 -289h74v-26q-20 -16 -48.5 -26t-55.5 -10q-29 0 -42.5 13t-13.5 30q0 20 3 39t8 42l34 170l-100 -59z" />
    <glyph glyph-name="Nacute" unicode="&#x143;" horiz-adv-x="723" 
d="M588 700h213l-6 -29q-20 -14 -44 -24t-46 -16l-137 -643h-54l-251 551l-21 78h-3l-10 -78l-100 -475q18 -5 36 -14t33 -21l-6 -29h-212l5 29q43 26 90 35l122 573q-19 8 -36.5 17t-31.5 18l5 28h166l215 -475l30 -86h4l16 86l86 406q-40 17 -69 40zM522 893q9 1 23 -1
t28.5 -6.5t27 -11t18.5 -13.5v-20l-226 -91l-17 19z" />
    <glyph glyph-name="nacute" unicode="&#x144;" horiz-adv-x="552" 
d="M386 285l12.5 57.5t5.5 52.5q0 23 -10.5 39t-33.5 16q-27 0 -55 -22t-52 -53t-43.5 -64.5t-29.5 -55.5l-53 -255h-84l88 442l-61 9l2 25q14 7 31.5 13.5t36 11.5t36 8t32.5 3l20 -12l-38 -177h5q19 40 43.5 74.5t52 60t57.5 40t61 14.5q42 0 61.5 -26.5t19.5 -66.5
q0 -22 -5 -55t-12 -62l-57 -246h74v-26q-20 -16 -48.5 -26t-55.5 -10q-29 0 -40 12t-11 26q0 19 5 41.5l10 45.5zM428 767q8 1 21 -0.5t27 -4.5t26 -7.5t18 -9.5v-19l-197 -151l-22 18z" />
    <glyph glyph-name="Ncommaaccent" unicode="&#x145;" horiz-adv-x="723" 
d="M588 700h213l-6 -29q-20 -14 -44 -24t-46 -16l-137 -643h-54l-251 551l-21 78h-3l-10 -78l-100 -475q18 -5 36 -14t33 -21l-6 -29h-212l5 29q43 26 90 35l122 573q-19 8 -36.5 17t-31.5 18l5 28h166l215 -475l30 -86h4l16 86l86 406q-40 17 -69 40zM178 -237
q40 11 63.5 30t28.5 51q-9 10 -24.5 20.5t-28.5 14.5q-1 14 7.5 27.5t20.5 23.5t26 16.5t24 6.5q32 -2 55.5 -21.5t23.5 -51.5q0 -28 -14 -53.5t-38 -45.5t-57.5 -34t-72.5 -19z" />
    <glyph glyph-name="ncommaaccent" unicode="&#x146;" horiz-adv-x="552" 
d="M386 285l12.5 57.5t5.5 52.5q0 23 -10.5 39t-33.5 16q-27 0 -55 -22t-52 -53t-43.5 -64.5t-29.5 -55.5l-53 -255h-84l88 442l-61 9l2 25q14 7 31.5 13.5t36 11.5t36 8t32.5 3l20 -12l-38 -177h5q19 40 43.5 74.5t52 60t57.5 40t61 14.5q42 0 61.5 -26.5t19.5 -66.5
q0 -22 -5 -55t-12 -62l-57 -246h74v-26q-20 -16 -48.5 -26t-55.5 -10q-29 0 -40 12t-11 26q0 19 5 41.5l10 45.5zM114 -231q79 22 86 80q-8 10 -23 19.5t-28 13.5q-1 14 6.5 26.5t19 22.5t24 16t22.5 6q30 -2 47 -20t17 -50q0 -26 -12 -49.5t-33 -43t-50.5 -33t-64.5 -18.5z
" />
    <glyph glyph-name="Ncaron" unicode="&#x147;" horiz-adv-x="723" 
d="M588 700h213l-6 -29q-20 -14 -44 -24t-46 -16l-137 -643h-54l-251 551l-21 78h-3l-10 -78l-100 -475q18 -5 36 -14t33 -21l-6 -29h-212l5 29q43 26 90 35l122 573q-19 8 -36.5 17t-31.5 18l5 28h166l215 -475l30 -86h4l16 86l86 406q-40 17 -69 40zM622 888q8 0 15 -5
t10 -12l-167 -112q-5 -3 -13 -3q-7 0 -13 3l-85 109q4 7 9.5 13.5t15.5 6.5l90 -55z" />
    <glyph glyph-name="ncaron" unicode="&#x148;" horiz-adv-x="552" 
d="M386 285l12.5 57.5t5.5 52.5q0 23 -10.5 39t-33.5 16q-27 0 -55 -22t-52 -53t-43.5 -64.5t-29.5 -55.5l-53 -255h-84l88 442l-61 9l2 25q14 7 31.5 13.5t36 11.5t36 8t32.5 3l20 -12l-38 -177h5q19 40 43.5 74.5t52 60t57.5 40t61 14.5q42 0 61.5 -26.5t19.5 -66.5
q0 -22 -5 -55t-12 -62l-57 -246h74v-26q-20 -16 -48.5 -26t-55.5 -10q-29 0 -40 12t-11 26q0 19 5 41.5l10 45.5zM474 796q9 1 17.5 -4t11.5 -12l-164 -185q-5 -3 -13 -3t-12 3l-81 184q4 8 14 13t20 4l77 -106z" />
    <glyph glyph-name="Omacron" unicode="&#x14c;" horiz-adv-x="730" 
d="M66 278q0 91 27.5 170t79.5 137.5t125 92.5t165 34q73 0 123 -24t80.5 -63t44 -89.5t13.5 -104.5q0 -80 -22.5 -159.5t-69.5 -142.5t-118.5 -102t-169.5 -39q-72 0 -124.5 23.5t-86.5 63t-50.5 92t-16.5 111.5zM173 277q0 -55 14.5 -99t40 -75t60 -47.5t75.5 -15.5
q73 -1 121.5 35.5t78 94t42 127t12.5 135.5q0 51 -11.5 93t-34.5 72t-56.5 46.5t-77.5 16.5q-69 0 -119 -36t-82.5 -92t-47.5 -124t-15 -131zM324 788l10 52h302l-11 -52h-301z" />
    <glyph glyph-name="omacron" unicode="&#x14d;" horiz-adv-x="509" 
d="M41 186q0 53 16.5 110.5t50.5 105.5t85 79t119 31q78 0 117.5 -48t39.5 -142q0 -66 -19 -126.5t-53 -106.5t-82 -73.5t-106 -27.5q-77 0 -122.5 49.5t-45.5 148.5zM292 469q-49 -1 -80 -32t-49 -77t-25 -99t-7 -97q0 -59 26 -96t70 -37q35 0 62.5 26.5t47 70t30 98.5
t10.5 111q0 59 -20.5 95t-64.5 37zM196 637l10 52h254l-11 -52h-253z" />
    <glyph glyph-name="Ohungarumlaut" unicode="&#x150;" horiz-adv-x="730" 
d="M66 278q0 91 27.5 170t79.5 137.5t125 92.5t165 34q73 0 123 -24t80.5 -63t44 -89.5t13.5 -104.5q0 -80 -22.5 -159.5t-69.5 -142.5t-118.5 -102t-169.5 -39q-72 0 -124.5 23.5t-86.5 63t-50.5 92t-16.5 111.5zM173 277q0 -55 14.5 -99t40 -75t60 -47.5t75.5 -15.5
q73 -1 121.5 35.5t78 94t42 127t12.5 135.5q0 51 -11.5 93t-34.5 72t-56.5 46.5t-77.5 16.5q-69 0 -119 -36t-82.5 -92t-47.5 -124t-15 -131zM402 888q6 1 18 -1t25 -5t23.5 -8t13.5 -10v-14l-131 -92l-19 18zM576 888q7 1 19 -1t25 -6t24 -9t16 -11l-1 -10l-177 -95l-21 18
z" />
    <glyph glyph-name="ohungarumlaut" unicode="&#x151;" horiz-adv-x="509" 
d="M41 186q0 53 16.5 110.5t50.5 105.5t85 79t119 31q78 0 117.5 -48t39.5 -142q0 -66 -19 -126.5t-53 -106.5t-82 -73.5t-106 -27.5q-77 0 -122.5 49.5t-45.5 148.5zM292 469q-49 -1 -80 -32t-49 -77t-25 -99t-7 -97q0 -59 26 -96t70 -37q35 0 62.5 26.5t47 70t30 98.5
t10.5 111q0 59 -20.5 95t-64.5 37zM297 768q6 1 19 -0.5t26.5 -4.5t24.5 -7.5t14 -8.5v-15l-138 -134l-23 16zM470 768q7 1 19.5 -0.5t25 -5.5t24 -9.5t16.5 -12.5v-13l-199 -129l-19 18z" />
    <glyph glyph-name="OE" unicode="&#x152;" horiz-adv-x="946" 
d="M437 0q-27 -5 -49 -8.5t-49 -3.5q-138 0 -205.5 68.5t-67.5 199.5q0 80 22.5 161.5t71 147t124 106.5t181.5 41q23 0 57 -3t62 -9h391q-9 -40 -20 -80.5t-25 -81.5h-26l-17 110h-219l-55 -265h162l55 74h25q-8 -50 -18.5 -100.5t-24.5 -101.5h-25l-23 76h-163l-59 -279
h230l75 120h25q-2 -42 -8 -85t-17 -87h-410zM339 40q26 -1 54 3.5t55 15.5l122 577q-23 11 -53 17.5t-64 6.5q-65 0 -117 -32t-88 -87.5t-55.5 -130.5t-19.5 -161q0 -36 7 -73.5t25 -68t50.5 -49.5t83.5 -18z" />
    <glyph glyph-name="oe" unicode="&#x153;" horiz-adv-x="778" 
d="M292 469q-49 -1 -80 -32t-49 -77t-25 -99t-7 -97q0 -59 26 -96t70 -37q35 0 62.5 26.5t47 70t30 98.5t10.5 111q0 59 -20.5 95t-64.5 37zM384 74q-19 -24 -41.5 -40.5t-45.5 -26.5t-46 -14.5t-42 -4.5q-77 0 -122.5 49.5t-45.5 148.5q0 53 16.5 110.5t50.5 105.5t85 79
t119 31q48 0 86 -22t52 -65q43 49 93 68t98 19q49 0 83 -24.5t34 -72.5q0 -71 -70 -112t-227 -53q-4 -17 -5.5 -33t-1.5 -31q0 -60 30 -98t89 -38q20 0 38.5 6t34.5 15t29.5 19l23.5 18l16 -19q-9 -19 -26 -37t-40 -32.5t-51.5 -23t-61.5 -8.5q-64 0 -100.5 26.5t-51.5 59.5
zM611 468q-44 0 -81 -39.5t-62 -135.5q97 3 150.5 33.5t53.5 84.5q0 21 -12.5 39t-48.5 18z" />
    <glyph glyph-name="Racute" unicode="&#x154;" horiz-adv-x="627" 
d="M169 53q44 -8 79 -24l-5 -29h-263l5 29q24 10 45.5 15t42.5 9l125 593q-24 6 -43.5 12t-33.5 13l7 29h88q40 0 88.5 4t92.5 4q99 0 147.5 -42.5t48.5 -120.5q0 -39 -13.5 -75t-38 -65t-60 -50.5t-80.5 -32.5q29 -68 63.5 -135l71.5 -133l47 -29l-5 -25h-114l-34 28
q-21 35 -37.5 69t-30 68t-24 70t-19.5 75h-96zM364 656q-23 0 -39.5 -1.5t-30.5 -3.5l-62 -298h71q53 -1 89.5 16t59 45.5t33 64.5t10.5 74q1 54 -30.5 78.5t-100.5 24.5zM473 893q9 1 23 -1t28.5 -6.5t27 -11t18.5 -13.5v-20l-226 -91l-17 19z" />
    <glyph glyph-name="racute" unicode="&#x155;" horiz-adv-x="385" 
d="M305 439q-26 -10 -58.5 -50.5t-57.5 -109.5l-60 -279h-86l93 442l-61 9v25q34 16 71 24.5t67 11.5l20 -12l-28 -133h4q29 66 71 105.5t90 39.5q13 0 26 -2.5t25 -9.5q0 -9 -3 -23.5t-8.5 -29.5t-12 -28.5t-13.5 -20.5zM354 767q8 1 21 -0.5t27 -4.5t26 -7.5t18 -9.5v-19
l-197 -151l-22 18z" />
    <glyph glyph-name="Rcommaaccent" unicode="&#x156;" horiz-adv-x="627" 
d="M169 53q44 -8 79 -24l-5 -29h-263l5 29q24 10 45.5 15t42.5 9l125 593q-24 6 -43.5 12t-33.5 13l7 29h88q40 0 88.5 4t92.5 4q99 0 147.5 -42.5t48.5 -120.5q0 -39 -13.5 -75t-38 -65t-60 -50.5t-80.5 -32.5q29 -68 63.5 -135l71.5 -133l47 -29l-5 -25h-114l-34 28
q-21 35 -37.5 69t-30 68t-24 70t-19.5 75h-96zM364 656q-23 0 -39.5 -1.5t-30.5 -3.5l-62 -298h71q53 -1 89.5 16t59 45.5t33 64.5t10.5 74q1 54 -30.5 78.5t-100.5 24.5zM150 -237q40 11 63.5 30t28.5 51q-9 10 -24.5 20.5t-28.5 14.5q-1 14 7.5 27.5t20.5 23.5t26 16.5
t24 6.5q32 -2 55.5 -21.5t23.5 -51.5q0 -28 -14 -53.5t-38 -45.5t-57.5 -34t-72.5 -19z" />
    <glyph glyph-name="rcommaaccent" unicode="&#x157;" horiz-adv-x="385" 
d="M305 439q-26 -10 -58.5 -50.5t-57.5 -109.5l-60 -279h-86l93 442l-61 9v25q34 16 71 24.5t67 11.5l20 -12l-28 -133h4q29 66 71 105.5t90 39.5q13 0 26 -2.5t25 -9.5q0 -9 -3 -23.5t-8.5 -29.5t-12 -28.5t-13.5 -20.5zM5 -231q79 22 86 80q-8 10 -23 19.5t-28 13.5
q-1 14 6.5 26.5t19 22.5t24 16t22.5 6q30 -2 47 -20t17 -50q0 -26 -12 -49.5t-33 -43t-50.5 -33t-64.5 -18.5z" />
    <glyph glyph-name="Rcaron" unicode="&#x158;" horiz-adv-x="627" 
d="M169 53q44 -8 79 -24l-5 -29h-263l5 29q24 10 45.5 15t42.5 9l125 593q-24 6 -43.5 12t-33.5 13l7 29h88q40 0 88.5 4t92.5 4q99 0 147.5 -42.5t48.5 -120.5q0 -39 -13.5 -75t-38 -65t-60 -50.5t-80.5 -32.5q29 -68 63.5 -135l71.5 -133l47 -29l-5 -25h-114l-34 28
q-21 35 -37.5 69t-30 68t-24 70t-19.5 75h-96zM364 656q-23 0 -39.5 -1.5t-30.5 -3.5l-62 -298h71q53 -1 89.5 16t59 45.5t33 64.5t10.5 74q1 54 -30.5 78.5t-100.5 24.5zM532 888q8 0 15 -5t10 -12l-167 -112q-5 -3 -13 -3q-7 0 -13 3l-85 109q4 7 9.5 13.5t15.5 6.5
l90 -55z" />
    <glyph glyph-name="rcaron" unicode="&#x159;" horiz-adv-x="385" 
d="M305 439q-26 -10 -58.5 -50.5t-57.5 -109.5l-60 -279h-86l93 442l-61 9v25q34 16 71 24.5t67 11.5l20 -12l-28 -133h4q29 66 71 105.5t90 39.5q13 0 26 -2.5t25 -9.5q0 -9 -3 -23.5t-8.5 -29.5t-12 -28.5t-13.5 -20.5zM416 796q9 1 17.5 -4t11.5 -12l-164 -185
q-5 -3 -13 -3t-12 3l-81 184q4 8 14 13t20 4l77 -106z" />
    <glyph glyph-name="Sacute" unicode="&#x15a;" horiz-adv-x="527" 
d="M121 69q11 -9 37 -19.5t55 -9.5q33 -1 64 5t56 21t40 39.5t15 61.5q0 41 -19.5 69t-48.5 49.5t-62.5 41t-62.5 43.5t-48.5 56.5t-19.5 80.5q0 46 16.5 83.5t49 64.5t79.5 42t107 15q61 0 109 -9.5t75 -23.5q-4 -17 -11.5 -39.5l-15.5 -46.5t-17 -46.5l-16 -39.5h-26
l-12 137q-17 8 -43.5 12t-57.5 4q-30 0 -56.5 -7t-46 -21.5t-30.5 -36.5t-11 -52q0 -40 19.5 -66.5t48.5 -47.5t62.5 -40.5t62.5 -44.5t48.5 -60.5t19.5 -87.5q0 -47 -18.5 -85t-53 -65.5t-85 -42.5t-114.5 -15q-32 0 -61.5 4t-54 11t-43.5 15.5t-29 16.5q4 18 11.5 42.5
t16.5 49.5l18 48.5t17 40.5h26zM447 893q9 1 23 -1t28.5 -6.5t27 -11t18.5 -13.5v-20l-226 -91l-17 19z" />
    <glyph glyph-name="sacute" unicode="&#x15b;" horiz-adv-x="418" 
d="M255 118q-1 24 -13.5 41.5t-32 33.5t-41.5 32t-41.5 35.5t-32 45t-12.5 61.5t14 63t38.5 45t59 27.5t75.5 9.5q26 0 58.5 -4.5t61.5 -21.5q0 -11 -4 -25.5t-10.5 -28t-14.5 -25t-17 -15.5l-74 77q-21 -1 -39 -5t-31.5 -13t-21 -23.5t-7.5 -36.5q0 -26 13 -44.5t32.5 -35
t42 -32t42 -35t32.5 -45t13 -60.5q0 -36 -16.5 -64t-45 -47.5t-66 -29.5t-79.5 -10t-76.5 8.5t-54.5 21.5q5 26 12 50.5t29 45.5l90 -83q21 0 41.5 5t37 16t27 27t11.5 39zM358 767q8 1 21 -0.5t27 -4.5t26 -7.5t18 -9.5v-19l-197 -151l-22 18z" />
    <glyph glyph-name="Scircumflex" unicode="&#x15c;" horiz-adv-x="527" 
d="M121 69q11 -9 37 -19.5t55 -9.5q33 -1 64 5t56 21t40 39.5t15 61.5q0 41 -19.5 69t-48.5 49.5t-62.5 41t-62.5 43.5t-48.5 56.5t-19.5 80.5q0 46 16.5 83.5t49 64.5t79.5 42t107 15q61 0 109 -9.5t75 -23.5q-4 -17 -11.5 -39.5l-15.5 -46.5t-17 -46.5l-16 -39.5h-26
l-12 137q-17 8 -43.5 12t-57.5 4q-30 0 -56.5 -7t-46 -21.5t-30.5 -36.5t-11 -52q0 -40 19.5 -66.5t48.5 -47.5t62.5 -40.5t62.5 -44.5t48.5 -60.5t19.5 -87.5q0 -47 -18.5 -85t-53 -65.5t-85 -42.5t-114.5 -15q-32 0 -61.5 4t-54 11t-43.5 15.5t-29 16.5q4 18 11.5 42.5
t16.5 49.5l18 48.5t17 40.5h26zM266 752l-14 19l167 112q5 4 14 4q8 0 12 -4l85 -109l-15 -21l-100 56z" />
    <glyph glyph-name="scircumflex" unicode="&#x15d;" horiz-adv-x="418" 
d="M255 118q-1 24 -13.5 41.5t-32 33.5t-41.5 32t-41.5 35.5t-32 45t-12.5 61.5t14 63t38.5 45t59 27.5t75.5 9.5q26 0 58.5 -4.5t61.5 -21.5q0 -11 -4 -25.5t-10.5 -28t-14.5 -25t-17 -15.5l-74 77q-21 -1 -39 -5t-31.5 -13t-21 -23.5t-7.5 -36.5q0 -26 13 -44.5t32.5 -35
t42 -32t42 -35t32.5 -45t13 -60.5q0 -36 -16.5 -64t-45 -47.5t-66 -29.5t-79.5 -10t-76.5 8.5t-54.5 21.5q5 26 12 50.5t29 45.5l90 -83q21 0 41.5 5t37 16t27 27t11.5 39zM181 590l-29 16l151 186q5 4 13 4t12 -4l73 -185l-27 -17l-78 107z" />
    <glyph glyph-name="Scedilla" unicode="&#x15e;" horiz-adv-x="527" 
d="M121 69q11 -9 37 -19.5t55 -10.5q33 0 64 6t56 21t40 39.5t15 61.5q0 41 -19.5 69t-48.5 49.5t-62.5 41t-62.5 43.5t-48.5 56.5t-19.5 80.5q0 46 16.5 83.5t49 64.5t79.5 42t107 15q61 0 109 -9.5t75 -23.5q-4 -17 -11.5 -39.5l-15.5 -46.5t-17 -46.5l-16 -39.5h-26
l-12 137q-17 8 -43.5 12t-57.5 4q-30 0 -56.5 -7t-46 -21.5t-30.5 -36.5t-11 -52q0 -40 19.5 -66.5t48.5 -47.5t62.5 -40.5t62.5 -44.5t48.5 -60.5t19.5 -87.5q0 -45 -16.5 -82t-48.5 -64t-78 -42.5t-105 -18.5l-37 -64q55 -1 73.5 -21.5t18.5 -51.5q0 -32 -20.5 -55.5
t-51 -38.5t-65.5 -22.5t-64 -7.5v33q20 3 40 8.5t36.5 14.5t26.5 22t10 31q0 10 -3 18.5t-10.5 14t-21 9t-35.5 5.5l53 105q-55 3 -99 17t-62 29q4 18 11.5 42.5t16.5 49.5l18 48.5t17 40.5h26z" />
    <glyph glyph-name="Scedilla" unicode="&#xf6c1;" horiz-adv-x="527" 
d="M121 69q11 -9 37 -19.5t55 -10.5q33 0 64 6t56 21t40 39.5t15 61.5q0 41 -19.5 69t-48.5 49.5t-62.5 41t-62.5 43.5t-48.5 56.5t-19.5 80.5q0 46 16.5 83.5t49 64.5t79.5 42t107 15q61 0 109 -9.5t75 -23.5q-4 -17 -11.5 -39.5l-15.5 -46.5t-17 -46.5l-16 -39.5h-26
l-12 137q-17 8 -43.5 12t-57.5 4q-30 0 -56.5 -7t-46 -21.5t-30.5 -36.5t-11 -52q0 -40 19.5 -66.5t48.5 -47.5t62.5 -40.5t62.5 -44.5t48.5 -60.5t19.5 -87.5q0 -45 -16.5 -82t-48.5 -64t-78 -42.5t-105 -18.5l-37 -64q55 -1 73.5 -21.5t18.5 -51.5q0 -32 -20.5 -55.5
t-51 -38.5t-65.5 -22.5t-64 -7.5v33q20 3 40 8.5t36.5 14.5t26.5 22t10 31q0 10 -3 18.5t-10.5 14t-21 9t-35.5 5.5l53 105q-55 3 -99 17t-62 29q4 18 11.5 42.5t16.5 49.5l18 48.5t17 40.5h26z" />
    <glyph glyph-name="scedilla" unicode="&#x15f;" horiz-adv-x="418" 
d="M255 118q-1 24 -13.5 41.5t-32 33.5t-41.5 32t-41.5 35.5t-32 45t-12.5 61.5t14 63t38.5 45t59 27.5t75.5 9.5q26 0 58.5 -4.5t61.5 -21.5q0 -11 -4 -25.5t-10.5 -28t-14.5 -25t-17 -15.5l-74 77q-21 -1 -39 -5t-31.5 -13t-21 -23.5t-7.5 -36.5q0 -26 13 -44.5t32.5 -35
t42 -32t42 -35t32.5 -45t13 -60.5q0 -32 -13.5 -58t-37 -45t-55 -30.5t-67.5 -15.5l-34 -58q42 -2 60.5 -19.5t19.5 -46.5q1 -31 -17.5 -53.5t-46 -37t-60 -21t-59.5 -5.5v30q19 3 38 8.5t33.5 13.5t23.5 19.5t8 25.5q0 9 -2 17t-8.5 14.5t-19 11t-32.5 6.5l50 93
q-38 2 -69.5 10t-49.5 20q5 26 12 50.5t29 45.5l90 -83q21 0 41.5 5t37 16t27 27t11.5 39z" />
    <glyph glyph-name="scedilla" unicode="&#xf6c2;" horiz-adv-x="418" 
d="M255 118q-1 24 -13.5 41.5t-32 33.5t-41.5 32t-41.5 35.5t-32 45t-12.5 61.5t14 63t38.5 45t59 27.5t75.5 9.5q26 0 58.5 -4.5t61.5 -21.5q0 -11 -4 -25.5t-10.5 -28t-14.5 -25t-17 -15.5l-74 77q-21 -1 -39 -5t-31.5 -13t-21 -23.5t-7.5 -36.5q0 -26 13 -44.5t32.5 -35
t42 -32t42 -35t32.5 -45t13 -60.5q0 -32 -13.5 -58t-37 -45t-55 -30.5t-67.5 -15.5l-34 -58q42 -2 60.5 -19.5t19.5 -46.5q1 -31 -17.5 -53.5t-46 -37t-60 -21t-59.5 -5.5v30q19 3 38 8.5t33.5 13.5t23.5 19.5t8 25.5q0 9 -2 17t-8.5 14.5t-19 11t-32.5 6.5l50 93
q-38 2 -69.5 10t-49.5 20q5 26 12 50.5t29 45.5l90 -83q21 0 41.5 5t37 16t27 27t11.5 39z" />
    <glyph glyph-name="Scaron" unicode="&#x160;" horiz-adv-x="527" 
d="M121 69q11 -9 37 -19.5t55 -9.5q33 -1 64 5t56 21t40 39.5t15 61.5q0 41 -19.5 69t-48.5 49.5t-62.5 41t-62.5 43.5t-48.5 56.5t-19.5 80.5q0 46 16.5 83.5t49 64.5t79.5 42t107 15q61 0 109 -9.5t75 -23.5q-4 -17 -11.5 -39.5l-15.5 -46.5t-17 -46.5l-16 -39.5h-26
l-12 137q-17 8 -43.5 12t-57.5 4q-30 0 -56.5 -7t-46 -21.5t-30.5 -36.5t-11 -52q0 -40 19.5 -66.5t48.5 -47.5t62.5 -40.5t62.5 -44.5t48.5 -60.5t19.5 -87.5q0 -47 -18.5 -85t-53 -65.5t-85 -42.5t-114.5 -15q-32 0 -61.5 4t-54 11t-43.5 15.5t-29 16.5q4 18 11.5 42.5
t16.5 49.5l18 48.5t17 40.5h26zM541 888q8 0 15 -5t10 -12l-167 -112q-5 -3 -13 -3q-7 0 -13 3l-85 109q4 7 9.5 13.5t15.5 6.5l90 -55z" />
    <glyph glyph-name="scaron" unicode="&#x161;" horiz-adv-x="418" 
d="M255 118q-1 24 -13.5 41.5t-32 33.5t-41.5 32t-41.5 35.5t-32 45t-12.5 61.5t14 63t38.5 45t59 27.5t75.5 9.5q26 0 58.5 -4.5t61.5 -21.5q0 -11 -4 -25.5t-10.5 -28t-14.5 -25t-17 -15.5l-74 77q-21 -1 -39 -5t-31.5 -13t-21 -23.5t-7.5 -36.5q0 -26 13 -44.5t32.5 -35
t42 -32t42 -35t32.5 -45t13 -60.5q0 -36 -16.5 -64t-45 -47.5t-66 -29.5t-79.5 -10t-76.5 8.5t-54.5 21.5q5 26 12 50.5t29 45.5l90 -83q21 0 41.5 5t37 16t27 27t11.5 39zM404 796q9 1 17.5 -4t11.5 -12l-164 -185q-5 -3 -13 -3t-12 3l-81 184q4 8 14 13t20 4l77 -106z" />
    <glyph glyph-name="Tcedilla" unicode="&#x162;" horiz-adv-x="610" 
d="M401 0h-118l-44 -75q55 -1 73.5 -21.5t18.5 -51.5q0 -32 -20.5 -55.5t-50.5 -38.5t-65 -22.5t-64 -7.5v33q19 3 39.5 8.5t36.5 14.5t26 22t10 31q0 10 -3 18.5t-10.5 14t-20.5 9t-35 5.5l59 116h-113l5 29q24 9 47.5 14.5t51.5 9.5l126 595h-153l-83 -143h-26
q1 20 4.5 45.5t7.5 52t8.5 52t9.5 45.5h580q-4 -20 -10 -45t-13 -51.5t-14.5 -52t-14.5 -46.5h-26l-21 143h-153l-126 -595q24 -5 45.5 -10t40.5 -14z" />
    <glyph glyph-name="tcedilla" unicode="&#x163;" horiz-adv-x="337" 
d="M54 476q20 11 42.5 20t44.5 14l16 76q14 11 32.5 19.5t38.5 16.5l21 -12l-24 -110h124q2 -12 0 -25t-10 -25h-124l-63 -290q-4 -19 -6 -33.5t-2 -26.5q0 -26 15 -38t33 -12q25 0 53.5 9.5t52.5 21.5l11 -18q-17 -23 -56.5 -44.5t-81.5 -28.5l-33 -58q42 -2 60 -19.5
t20 -46.5q1 -31 -17.5 -53.5t-46.5 -37t-60.5 -21t-59.5 -5.5v30q19 3 38 8.5t34 13.5t24 19.5t8 25.5q0 9 -2.5 17t-9 14.5t-18.5 11t-32 6.5l50 94q-34 5 -53 24.5t-19 56.5q0 14 2.5 31t6.5 35l66 314h-76z" />
    <glyph glyph-name="Tcaron" unicode="&#x164;" horiz-adv-x="610" 
d="M401 0h-281l5 29q24 9 47.5 14.5t51.5 9.5l126 595h-153l-83 -143h-26q1 20 4.5 45.5t7.5 52t8.5 52t9.5 45.5h580q-4 -20 -10 -45t-13 -51.5t-14.5 -52t-14.5 -46.5h-26l-21 143h-153l-126 -595q24 -5 45.5 -10t40.5 -14zM573 888q8 0 15 -5t10 -12l-167 -112
q-5 -3 -13 -3q-7 0 -13 3l-85 109q4 7 9.5 13.5t15.5 6.5l90 -55z" />
    <glyph glyph-name="tcaron" unicode="&#x165;" horiz-adv-x="337" 
d="M54 476q20 11 42.5 20t44.5 14l16 76q14 11 32.5 19.5t38.5 16.5l21 -12l-24 -110h124q2 -12 0 -25t-10 -25h-124l-63 -290q-4 -19 -6 -33.5t-2 -26.5q0 -26 15 -38t33 -12q25 0 53.5 9.5t52.5 21.5l11 -18q-9 -13 -27 -26t-40.5 -24t-47 -18t-46.5 -7q-44 0 -69 20
t-25 62q0 14 2.5 31t6.5 35l66 314h-76zM272 544q26 47 44.5 98.5t18.5 92.5l12 16q7 1 18.5 -0.5t23.5 -5t23 -8t17 -9.5q-5 -28 -19.5 -56t-34.5 -54t-42 -48t-41 -37z" />
    <glyph glyph-name="Umacron" unicode="&#x16a;" horiz-adv-x="666" 
d="M112 700h254l-6 -29q-39 -17 -81 -25l-85 -397q-11 -53 -6 -90.5t24 -61.5t50 -35t72 -11q81 0 129.5 45t68.5 142l85 399q-44 15 -72 34l6 29h214l-7 -29q-17 -11 -40 -20t-45 -14l-85 -401q-28 -131 -98.5 -188t-181.5 -57q-66 0 -111.5 19t-71.5 52.5t-33 80t5 100.5
l86 403q-20 4 -41 10.5t-36 14.5zM307 788l10 52h302l-11 -52h-301z" />
    <glyph glyph-name="umacron" unicode="&#x16b;" horiz-adv-x="542" 
d="M488 55v-25q-20 -16 -48.5 -26t-55.5 -10q-29 0 -41.5 12t-12.5 26q0 18 5 60.5t22 103.5h-4q-13 -28 -32.5 -64t-46.5 -68t-61.5 -54t-76.5 -22q-35 0 -59 24.5t-24 69.5q0 22 7 65t17 94l21.5 104.5l20.5 96.5l-61 9v25q16 6 34.5 12t37 11t35.5 8.5t31 4.5l22 -12
q-16 -75 -32.5 -142.5t-30.5 -142.5q-5 -24 -10.5 -53.5t-5.5 -64.5q0 -21 11.5 -34t26.5 -13q22 0 44 13t41.5 34t37 46.5t31.5 50.5t23.5 46.5t14.5 34.5l44 225h83l-82 -445h74zM215 637l10 52h254l-11 -52h-253z" />
    <glyph glyph-name="Ubreve" unicode="&#x16c;" horiz-adv-x="666" 
d="M112 700h254l-6 -29q-39 -17 -81 -25l-85 -397q-11 -53 -6 -90.5t24 -61.5t50 -35t72 -11q81 0 129.5 45t68.5 142l85 399q-44 15 -72 34l6 29h214l-7 -29q-17 -11 -40 -20t-45 -14l-85 -401q-28 -131 -98.5 -188t-181.5 -57q-66 0 -111.5 19t-71.5 52.5t-33 80t5 100.5
l86 403q-20 4 -41 10.5t-36 14.5zM599 883q16 2 32 -14q-8 -18 -27.5 -37.5t-44.5 -35.5t-53 -26.5t-53 -10.5q-54 0 -85 29.5t-39 82.5q12 19 42 15q8 -24 34 -40t57 -17q44 -1 79 14t58 40z" />
    <glyph glyph-name="ubreve" unicode="&#x16d;" horiz-adv-x="542" 
d="M488 55v-25q-20 -16 -48.5 -26t-55.5 -10q-29 0 -41.5 12t-12.5 26q0 18 5 60.5t22 103.5h-4q-13 -28 -32.5 -64t-46.5 -68t-61.5 -54t-76.5 -22q-35 0 -59 24.5t-24 69.5q0 22 7 65t17 94l21.5 104.5l20.5 96.5l-61 9v25q16 6 34.5 12t37 11t35.5 8.5t31 4.5l22 -12
q-16 -75 -32.5 -142.5t-30.5 -142.5q-5 -24 -10.5 -53.5t-5.5 -64.5q0 -21 11.5 -34t26.5 -13q22 0 44 13t41.5 34t37 46.5t31.5 50.5t23.5 46.5t14.5 34.5l44 225h83l-82 -445h74zM492 719q-9 -23 -24.5 -44.5t-36 -39t-44.5 -28t-49 -10.5q-54 0 -83.5 35t-34.5 89l28 13
q11 -25 36 -44.5t55 -20.5q16 0 34.5 3.5t36 11t33 19.5t25.5 27z" />
    <glyph glyph-name="Uring" unicode="&#x16e;" horiz-adv-x="666" 
d="M112 700h254l-6 -29q-39 -17 -81 -25l-85 -397q-11 -53 -6 -90.5t24 -61.5t50 -35t72 -11q81 0 129.5 45t68.5 142l85 399q-44 15 -72 34l6 29h214l-7 -29q-17 -11 -40 -20t-45 -14l-85 -401q-28 -131 -98.5 -188t-181.5 -57q-66 0 -111.5 19t-71.5 52.5t-33 80t5 100.5
l86 403q-20 4 -41 10.5t-36 14.5zM356 778q0 20 11 37.5t29 30.5t42 20.5t51 7.5q16 0 32.5 -3t29.5 -11.5t21 -22.5t8 -35q0 -20 -10.5 -37t-28.5 -29.5t-41 -19.5t-48 -7q-45 0 -70.5 17t-25.5 52zM412 781q0 -17 13 -24t31 -7q30 0 49 13.5t19 33.5t-13.5 28t-32.5 8
q-28 0 -47 -14.5t-19 -37.5z" />
    <glyph glyph-name="uring" unicode="&#x16f;" horiz-adv-x="542" 
d="M488 55v-25q-20 -16 -48.5 -26t-55.5 -10q-29 0 -41.5 12t-12.5 26q0 18 5 60.5t22 103.5h-4q-13 -28 -32.5 -64t-46.5 -68t-61.5 -54t-76.5 -22q-35 0 -59 24.5t-24 69.5q0 22 7 65t17 94l21.5 104.5l20.5 96.5l-61 9v25q16 6 34.5 12t37 11t35.5 8.5t31 4.5l22 -12
q-16 -75 -32.5 -142.5t-30.5 -142.5q-5 -24 -10.5 -53.5t-5.5 -64.5q0 -21 11.5 -34t26.5 -13q22 0 44 13t41.5 34t37 46.5t31.5 50.5t23.5 46.5t14.5 34.5l44 225h83l-82 -445h74zM250 666q0 23 8 44t23 36.5t36 24.5t47 9q38 0 59 -21t21 -54q0 -24 -9 -44.5t-24 -35.5
t-35.5 -23.5t-43.5 -8.5q-38 0 -60 19t-22 54zM302 670q0 -18 10.5 -27t23.5 -9q19 0 37 18.5t18 53.5q0 33 -29 33q-31 0 -45.5 -22.5t-14.5 -46.5z" />
    <glyph glyph-name="Uhungarumlaut" unicode="&#x170;" horiz-adv-x="666" 
d="M112 700h254l-6 -29q-39 -17 -81 -25l-85 -397q-11 -53 -6 -90.5t24 -61.5t50 -35t72 -11q81 0 129.5 45t68.5 142l85 399q-44 15 -72 34l6 29h214l-7 -29q-17 -11 -40 -20t-45 -14l-85 -401q-28 -131 -98.5 -188t-181.5 -57q-66 0 -111.5 19t-71.5 52.5t-33 80t5 100.5
l86 403q-20 4 -41 10.5t-36 14.5zM412 888q6 1 18 -1t25 -5t23.5 -8t13.5 -10v-14l-131 -92l-19 18zM586 888q7 1 19 -1t25 -6t24 -9t16 -11l-1 -10l-177 -95l-21 18z" />
    <glyph glyph-name="uhungarumlaut" unicode="&#x171;" horiz-adv-x="542" 
d="M488 55v-25q-20 -16 -48.5 -26t-55.5 -10q-29 0 -41.5 12t-12.5 26q0 18 5 60.5t22 103.5h-4q-13 -28 -32.5 -64t-46.5 -68t-61.5 -54t-76.5 -22q-35 0 -59 24.5t-24 69.5q0 22 7 65t17 94l21.5 104.5l20.5 96.5l-61 9v25q16 6 34.5 12t37 11t35.5 8.5t31 4.5l22 -12
q-16 -75 -32.5 -142.5t-30.5 -142.5q-5 -24 -10.5 -53.5t-5.5 -64.5q0 -21 11.5 -34t26.5 -13q22 0 44 13t41.5 34t37 46.5t31.5 50.5t23.5 46.5t14.5 34.5l44 225h83l-82 -445h74zM308 768q6 1 19 -0.5t26.5 -4.5t24.5 -7.5t14 -8.5v-15l-138 -134l-23 16zM481 768
q7 1 19.5 -0.5t25 -5.5t24 -9.5t16.5 -12.5v-13l-199 -129l-19 18z" />
    <glyph glyph-name="Uogonek" unicode="&#x172;" horiz-adv-x="666" 
d="M112 700h254l-6 -29q-39 -17 -81 -25l-85 -397q-11 -53 -6 -90.5t24 -61.5t50 -35t72 -11q81 0 129.5 45t68.5 142l85 399q-44 15 -72 34l6 29h214l-7 -29q-17 -11 -40 -20t-45 -14l-85 -401q-21 -99 -66.5 -155t-114.5 -77q-24 -11 -45.5 -26t-38 -32.5t-26.5 -38
t-10 -42.5q0 -28 18 -46t50 -18q31 0 55 6v-29q-14 -11 -36 -20t-55 -9q-23 0 -43.5 7t-36.5 20t-25 31.5t-9 40.5q0 47 33 82t86 62q-4 0 -7.5 -0.5t-8.5 -0.5q-66 0 -111.5 19t-71.5 52.5t-33 80t5 100.5l86 403q-20 4 -41 10.5t-36 14.5z" />
    <glyph glyph-name="uogonek" unicode="&#x173;" horiz-adv-x="542" 
d="M488 56v-26q-11 -8 -22.5 -14t-24.5 -11q-15 -9 -31 -21.5t-29 -28t-21.5 -34t-8.5 -39.5q0 -26 14 -43t46 -18q11 0 19.5 2.5l22.5 6.5v-31q-15 -8 -36.5 -14.5t-39.5 -6.5q-59 0 -84.5 25t-25.5 63q0 44 28 74.5t81 53.5q-25 2 -35.5 13.5t-10.5 24.5q0 18 5 60.5
t22 103.5h-4q-13 -28 -32.5 -64t-46.5 -68t-61.5 -54t-76.5 -22q-35 0 -59 24.5t-24 69.5q0 22 7 65t17 94l21.5 104.5l20.5 96.5l-61 9v25q16 6 34.5 12t37 11t35.5 8.5t31 4.5l22 -12q-16 -75 -32.5 -142.5t-30.5 -142.5q-5 -24 -10.5 -53.5t-5.5 -64.5q0 -21 11.5 -34
t26.5 -13q22 0 44 13t41.5 34t37 46.5t31.5 50.5t23.5 46.5t14.5 34.5l44 225h83l-82 -444h74z" />
    <glyph glyph-name="Ydieresis" unicode="&#x178;" horiz-adv-x="635" 
d="M520 700h223l-7 -29q-20 -10 -40 -15.5t-40 -9.5l-263 -348l-52 -245q37 -5 70 -24l-5 -29h-254l5 29q40 18 88 24l52 244l-129 349q-22 4 -40.5 10.5t-35.5 14.5l7 29h264l-6 -29l-36 -13t-46 -12l101 -294l212 294q-21 5 -39.5 11t-34.5 14zM275 789q0 24 16.5 36
t40.5 12q25 0 41 -12t16 -36q0 -23 -16 -35t-41 -12q-24 0 -40.5 12t-16.5 35zM498 789q0 24 16 36t41 12q24 0 40 -12t17 -36q-1 -23 -17 -35t-40 -12q-25 0 -41 12t-16 35z" />
    <glyph glyph-name="Zacute" unicode="&#x179;" horiz-adv-x="603" 
d="M529 192h26q-2 -21 -5 -46t-7 -50.5t-8.5 -50.5t-9.5 -45h-520v51l526 597h-291l-91 -140h-26q1 21 4.5 46t7.5 51t8.5 50.5t9.5 44.5h497v-52l-526 -596h314zM501 893q9 1 23 -1t28.5 -6.5t27 -11t18.5 -13.5v-20l-226 -91l-17 19z" />
    <glyph glyph-name="zacute" unicode="&#x17a;" horiz-adv-x="436" 
d="M116 180l220 243q-45 -3 -97.5 1.5t-108.5 13.5l-46 -72l-25 6l14 102q6 39 54 39q36 0 104.5 -10.5t163.5 -15.5l23 25q13 -2 24.5 -10t13.5 -22l-344 -379q59 -11 115 -29.5t104 -44.5l58 66l24 -14l-35 -102q-5 -15 -18 -25t-32 -10t-47 12.5l-63.5 28.5t-76.5 32
t-86 23l-41 -44q-13 2 -25 10t-13 23zM366 767q8 1 21 -0.5t27 -4.5t26 -7.5t18 -9.5v-19l-197 -151l-22 18z" />
    <glyph glyph-name="Zdotaccent" unicode="&#x17b;" horiz-adv-x="603" 
d="M529 192h26q-2 -21 -5 -46t-7 -50.5t-8.5 -50.5t-9.5 -45h-520v51l526 597h-291l-91 -140h-26q1 21 4.5 46t7.5 51t8.5 50.5t9.5 44.5h497v-52l-526 -596h314zM342 817q0 26 19 40t46 14t45 -14t18 -40t-18 -40t-45 -14t-46 14t-19 40z" />
    <glyph glyph-name="zdotaccent" unicode="&#x17c;" horiz-adv-x="436" 
d="M116 180l220 243q-45 -3 -97.5 1.5t-108.5 13.5l-46 -72l-25 6l14 102q6 39 54 39q36 0 104.5 -10.5t163.5 -15.5l23 25q13 -2 24.5 -10t13.5 -22l-344 -379q59 -11 115 -29.5t104 -44.5l58 66l24 -14l-35 -102q-5 -15 -18 -25t-32 -10t-47 12.5l-63.5 28.5t-76.5 32
t-86 23l-41 -44q-13 2 -25 10t-13 23zM224 673q0 26 16 41t42 15q28 0 44 -15t16 -41q0 -25 -16 -39t-44 -14q-26 0 -42 14t-16 39z" />
    <glyph glyph-name="Zcaron" unicode="&#x17d;" horiz-adv-x="603" 
d="M529 192h26q-2 -21 -5 -46t-7 -50.5t-8.5 -50.5t-9.5 -45h-520v51l526 597h-291l-91 -140h-26q1 21 4.5 46t7.5 51t8.5 50.5t9.5 44.5h497v-52l-526 -596h314zM550 888q8 0 15 -5t10 -12l-167 -112q-5 -3 -13 -3q-7 0 -13 3l-85 109q4 7 9.5 13.5t15.5 6.5l90 -55z" />
    <glyph glyph-name="zcaron" unicode="&#x17e;" horiz-adv-x="436" 
d="M116 180l220 243q-45 -3 -97.5 1.5t-108.5 13.5l-46 -72l-25 6l14 102q6 39 54 39q36 0 104.5 -10.5t163.5 -15.5l23 25q13 -2 24.5 -10t13.5 -22l-344 -379q59 -11 115 -29.5t104 -44.5l58 66l24 -14l-35 -102q-5 -15 -18 -25t-32 -10t-47 12.5l-63.5 28.5t-76.5 32
t-86 23l-41 -44q-13 2 -25 10t-13 23zM421 796q9 1 17.5 -4t11.5 -12l-164 -185q-5 -3 -13 -3t-12 3l-81 184q4 8 14 13t20 4l77 -106z" />
    <glyph glyph-name="longs" unicode="&#x17f;" horiz-adv-x="297" 
d="M129 450h-73v26q20 11 42.5 19.5t42.5 13.5l7 35q13 62 35.5 102.5t52.5 64t66 32.5t77 9q17 0 40.5 -4t39.5 -12q-2 -22 -10.5 -45.5t-28.5 -40.5l-76 62q-18 -5 -33 -11t-28.5 -22.5t-25.5 -46.5t-23 -82l-84 -507q-11 -71 -37 -118t-55.5 -76t-57.5 -43t-43 -18l-9 22
q12 6 29 21.5t33.5 41.5t31 63.5t22.5 87.5z" />
    <glyph glyph-name="florin" unicode="&#x192;" 
d="M188 450h-72v26q20 11 42.5 19.5t42.5 13.5l7 35q13 62 35.5 102.5t52 64t65.5 32.5t77 9q17 0 40.5 -4t39.5 -12q-2 -22 -10.5 -45.5t-28.5 -40.5l-75 62q-18 -5 -33.5 -11t-29 -22.5t-25.5 -46.5t-23 -82l-10 -50h111q5 -25 -10 -50h-111l-63 -407q-11 -71 -37 -118
t-55.5 -76t-57.5 -43t-43 -18l-8 19q12 6 28.5 22t33 42.5t31 64.5t22.5 88z" />
    <glyph glyph-name="uni01F4" unicode="&#x1f4;" horiz-adv-x="679" 
d="M571 48q-22 -13 -50 -24t-57.5 -19t-59 -12.5t-54.5 -4.5q-133 0 -208.5 70.5t-75.5 200.5q0 101 28.5 184.5t82.5 143t131.5 92.5t175.5 33q66 0 113 -8.5t78 -25.5q-3 -15 -8.5 -37t-13 -46l-15.5 -47.5t-15 -41.5h-26l-21 144q-18 5 -45 7.5t-52 2.5
q-77 0 -134.5 -31.5t-95.5 -85.5t-57 -126.5t-19 -155.5q0 -71 20 -114.5t49.5 -67.5t63 -32t61.5 -7q40 -1 74 12t47 23l44 202q-26 2 -48 9t-43 15l7 29h245l-6 -29q-11 -7 -27 -13t-41 -11zM561 893q9 1 23 -1t28.5 -6.5t27 -11t18.5 -13.5v-20l-226 -91l-17 19z" />
    <glyph glyph-name="uni01F5" unicode="&#x1f5;" horiz-adv-x="489" 
d="M280 512q48 0 78.5 -12t47.5 -26q9 8 24 16t32 15t35 13l34 11q3 -5 5 -15t1.5 -22t-4 -24.5t-10.5 -22.5l-103 7q3 -9 6 -20.5t3 -25.5q0 -40 -16.5 -74t-45.5 -58.5t-67.5 -38.5t-81.5 -14q-17 0 -27.5 0.5t-23.5 3.5q-9 -10 -24.5 -23.5t-15.5 -29.5q0 -17 22 -26
t55.5 -16.5l72.5 -16t72.5 -23t55.5 -37.5t22 -61q0 -47 -26.5 -84.5t-70 -64t-99 -41t-112.5 -14.5q-46 0 -79 9.5t-54 26t-31 37.5t-10 44q0 28 12.5 52t33.5 45.5t48 39.5t56 34q-15 8 -24.5 21.5t-9.5 30.5q0 15 10 31.5t23.5 31.5t27 26t20.5 16q-12 3 -24.5 11
t-23.5 21t-18 30t-7 38q0 39 16.5 72t45.5 56.5t67 37t82 13.5zM165 -169q31 0 61.5 9t55 25.5t40 41t15.5 55.5q0 30 -24.5 46.5t-59.5 26.5t-72.5 16.5t-64.5 15.5q-47 -34 -64.5 -71t-16.5 -69q-1 -45 34.5 -70.5t95.5 -25.5zM272 472q-29 0 -51.5 -11t-38.5 -29.5
t-24 -43.5t-8 -53q0 -38 24.5 -56t52.5 -18q30 0 51.5 10.5t36 28.5t21.5 41t7 48q0 37 -17.5 60t-53.5 23zM394 767q8 1 21 -0.5t27 -4.5t26 -7.5t18 -9.5v-19l-197 -151l-22 18z" />
    <glyph glyph-name="Scommaaccent" unicode="&#x218;" horiz-adv-x="527" 
d="M121 69q11 -9 37 -19.5t55 -9.5q33 -1 64 5t56 21t40 39.5t15 61.5q0 41 -19.5 69t-48.5 49.5t-62.5 41t-62.5 43.5t-48.5 56.5t-19.5 80.5q0 46 16.5 83.5t49 64.5t79.5 42t107 15q61 0 109 -9.5t75 -23.5q-4 -17 -11.5 -39.5l-15.5 -46.5t-17 -46.5l-16 -39.5h-26
l-12 137q-17 8 -43.5 12t-57.5 4q-30 0 -56.5 -7t-46 -21.5t-30.5 -36.5t-11 -52q0 -40 19.5 -66.5t48.5 -47.5t62.5 -40.5t62.5 -44.5t48.5 -60.5t19.5 -87.5q0 -47 -18.5 -85t-53 -65.5t-85 -42.5t-114.5 -15q-32 0 -61.5 4t-54 11t-43.5 15.5t-29 16.5q4 18 11.5 42.5
t16.5 49.5l18 48.5t17 40.5h26zM91 -237q40 11 63.5 30t28.5 51q-9 10 -24.5 20.5t-28.5 14.5q-1 14 7.5 27.5t20.5 23.5t26 16.5t24 6.5q32 -2 55.5 -21.5t23.5 -51.5q0 -28 -14 -53.5t-38 -45.5t-57.5 -34t-72.5 -19z" />
    <glyph glyph-name="scommaaccent" unicode="&#x219;" horiz-adv-x="418" 
d="M255 118q-1 24 -13.5 41.5t-32 33.5t-41.5 32t-41.5 35.5t-32 45t-12.5 61.5t14 63t38.5 45t59 27.5t75.5 9.5q26 0 58.5 -4.5t61.5 -21.5q0 -11 -4 -25.5t-10.5 -28t-14.5 -25t-17 -15.5l-74 77q-21 -1 -39 -5t-31.5 -13t-21 -23.5t-7.5 -36.5q0 -26 13 -44.5t32.5 -35
t42 -32t42 -35t32.5 -45t13 -60.5q0 -36 -16.5 -64t-45 -47.5t-66 -29.5t-79.5 -10t-76.5 8.5t-54.5 21.5q5 26 12 50.5t29 45.5l90 -83q21 0 41.5 5t37 16t27 27t11.5 39zM33 -231q79 22 86 80q-8 10 -23 19.5t-28 13.5q-1 14 6.5 26.5t19 22.5t24 16t22.5 6q30 -2 47 -20
t17 -50q0 -26 -12 -49.5t-33 -43t-50.5 -33t-64.5 -18.5z" />
    <glyph glyph-name="Tcommaaccent" unicode="&#x21a;" horiz-adv-x="610" 
d="M401 0h-281l5 29q24 9 47.5 14.5t51.5 9.5l126 595h-153l-83 -143h-26q1 20 4.5 45.5t7.5 52t8.5 52t9.5 45.5h580q-4 -20 -10 -45t-13 -51.5t-14.5 -52t-14.5 -46.5h-26l-21 143h-153l-126 -595q24 -5 45.5 -10t40.5 -14zM134 -237q40 11 63.5 30t28.5 51
q-9 10 -24.5 20.5t-28.5 14.5q-1 14 7.5 27.5t20.5 23.5t26 16.5t24 6.5q32 -2 55.5 -21.5t23.5 -51.5q0 -28 -14 -53.5t-38 -45.5t-57.5 -34t-72.5 -19z" />
    <glyph glyph-name="tcommaaccent" unicode="&#x21b;" horiz-adv-x="337" 
d="M54 476q20 11 42.5 20t44.5 14l16 76q14 11 32.5 19.5t38.5 16.5l21 -12l-24 -110h124q2 -12 0 -25t-10 -25h-124l-63 -290q-4 -19 -6 -33.5t-2 -26.5q0 -26 15 -38t33 -12q25 0 53.5 9.5t52.5 21.5l11 -18q-9 -13 -27 -26t-40.5 -24t-47 -18t-46.5 -7q-44 0 -69 20
t-25 62q0 14 2.5 31t6.5 35l66 314h-76zM33 -231q79 22 86 80q-8 10 -23 19.5t-28 13.5q-1 14 6.5 26.5t19 22.5t24 16t22.5 6q30 -2 47 -20t17 -50q0 -26 -12 -49.5t-33 -43t-50.5 -33t-64.5 -18.5z" />
    <glyph glyph-name="uni0237" unicode="&#x237;" horiz-adv-x="275" 
d="M133 442l-60 9v25q31 14 69 25t69 11l20 -12l-97 -457q-15 -71 -41.5 -118t-55.5 -76t-55.5 -43t-42.5 -18l-12 22q12 6 28 20.5t32 40t31.5 63.5t26.5 90z" />
    <glyph glyph-name="afii57929" unicode="&#x2bc;" horiz-adv-x="292" 
d="M124 470q36 13 62 44t31 68q-8 10 -25.5 18.5l-28.5 13.5q-1 16 7 31t20 27t25.5 19.5t22.5 7.5q29 -3 47.5 -19.5t18.5 -48.5t-14.5 -63t-38 -56.5t-53.5 -44t-60 -27.5z" />
    <glyph glyph-name="circumflex" unicode="&#x2c6;" horiz-adv-x="441" 
d="M221 590l-29 16l151 186q5 4 13 4t12 -4l73 -185l-27 -17l-78 107z" />
    <glyph glyph-name="caron" unicode="&#x2c7;" horiz-adv-x="390" 
d="M451 796q9 1 17.5 -4t11.5 -12l-164 -185q-5 -3 -13 -3t-12 3l-81 184q4 8 14 13t20 4l77 -106z" />
    <glyph glyph-name="breve" unicode="&#x2d8;" horiz-adv-x="510" 
d="M511 719q-9 -23 -24.5 -44.5t-36 -39t-44.5 -28t-49 -10.5q-54 0 -83.5 35t-34.5 89l28 13q11 -25 36 -44.5t55 -20.5q16 0 34.5 3.5t36 11t33 19.5t25.5 27z" />
    <glyph glyph-name="dotaccent" unicode="&#x2d9;" horiz-adv-x="299" 
d="M209 673q0 26 16 41t42 15q28 0 44 -15t16 -41q0 -25 -16 -39t-44 -14q-26 0 -42 14t-16 39z" />
    <glyph glyph-name="ring" unicode="&#x2da;" horiz-adv-x="468" 
d="M236 666q0 23 8 44t23 36.5t36 24.5t47 9q38 0 59 -21t21 -54q0 -24 -9 -44.5t-24 -35.5t-35.5 -23.5t-43.5 -8.5q-38 0 -60 19t-22 54zM288 670q0 -18 10.5 -27t23.5 -9q19 0 37 18.5t18 53.5q0 33 -29 33q-31 0 -45.5 -22.5t-14.5 -46.5z" />
    <glyph glyph-name="ogonek" unicode="&#x2db;" horiz-adv-x="445" 
d="M297 15q-17 -6 -36.5 -19t-36.5 -30t-28.5 -38.5t-11.5 -45.5q0 -26 14.5 -43t46.5 -18q11 0 19 2.5t22 6.5v-31q-14 -8 -35.5 -14.5t-39.5 -6.5q-60 0 -85 25t-25 63q0 55 45 90.5t126 59.5z" />
    <glyph glyph-name="tilde" unicode="&#x2dc;" horiz-adv-x="432" 
d="M432 672q-32 -32 -58.5 -44.5t-49.5 -12.5q-18 0 -34 5.5t-31 11.5l-29.5 11.5t-29.5 5.5q-13 0 -26.5 -5t-29.5 -19l-19 28q37 35 66 47t52 12q18 0 33.5 -5t29.5 -11t28.5 -11t29.5 -5q13 0 26 4.5t29 15.5z" />
    <glyph glyph-name="hungarumlaut" unicode="&#x2dd;" horiz-adv-x="623" 
d="M326 768q6 1 19 -0.5t26.5 -4.5t24.5 -7.5t14 -8.5v-15l-138 -134l-23 16zM499 768q7 1 19.5 -0.5t25 -5.5t24 -9.5t16.5 -12.5v-13l-199 -129l-19 18z" />
    <glyph glyph-name="acutecomb" unicode="&#x301;" horiz-adv-x="2" 
d="M-105 767q8 1 21 -0.5t27 -4.5t26 -7.5t18 -9.5v-19l-197 -151l-22 18z" />
    <glyph glyph-name="uni0394" unicode="&#x394;" horiz-adv-x="639" 
d="M-25 0v31l293 669h28l287 -669v-31h-608zM261 563l-215 -501h421z" />
    <glyph glyph-name="uni0394" unicode="&#x2206;" horiz-adv-x="639" 
d="M-25 0v31l293 669h28l287 -669v-31h-608zM261 563l-215 -501h421z" />
    <glyph glyph-name="uni03A9" unicode="&#x3a9;" horiz-adv-x="797" 
d="M57 0q0 18 1 42.5t2.5 51t3.5 52.5t4 48h25l44 -118h159q-44 16 -84 43.5t-70.5 65.5t-48.5 86.5t-18 105.5q0 76 23 137.5t66 105.5t104.5 68t137.5 24q78 0 137 -23t99.5 -66t61 -103t20.5 -133q0 -62 -19.5 -113t-50.5 -90.5t-69 -66.5t-75 -41h149l45 118h25
q2 -22 4 -48t3.5 -52.5t2.5 -51t1 -42.5h-282v83q24 10 52 34t52 61t40 86.5t15 111.5q1 58 -12 110t-39.5 90.5t-66 61t-93.5 22.5q-60 0 -103 -22t-70 -59.5t-39.5 -87t-11.5 -104.5q-1 -62 16 -113.5t42.5 -91t55 -65t53.5 -34.5v-83h-292z" />
    <glyph glyph-name="uni03A9" unicode="&#x2126;" horiz-adv-x="797" 
d="M57 0q0 18 1 42.5t2.5 51t3.5 52.5t4 48h25l44 -118h159q-44 16 -84 43.5t-70.5 65.5t-48.5 86.5t-18 105.5q0 76 23 137.5t66 105.5t104.5 68t137.5 24q78 0 137 -23t99.5 -66t61 -103t20.5 -133q0 -62 -19.5 -113t-50.5 -90.5t-69 -66.5t-75 -41h149l45 118h25
q2 -22 4 -48t3.5 -52.5t2.5 -51t1 -42.5h-282v83q24 10 52 34t52 61t40 86.5t15 111.5q1 58 -12 110t-39.5 90.5t-66 61t-93.5 22.5q-60 0 -103 -22t-70 -59.5t-39.5 -87t-11.5 -104.5q-1 -62 16 -113.5t42.5 -91t55 -65t53.5 -34.5v-83h-292z" />
    <glyph glyph-name="pi" unicode="&#x3c0;" horiz-adv-x="615" 
d="M525 50l-4 -21q-32 -13 -72 -23t-73 -15h-25l94 447h-191l-40 -191q-7 -32 -17 -66t-22 -66.5t-25.5 -62t-27.5 -52.5q-8 -4 -19.5 -5t-24.5 -1q-21 0 -38.5 2t-16.5 4l-4 8q30 34 59 87t54 113t44.5 120.5t29.5 109.5h-17q-58 -1 -116 -60l-11 8q11 25 23.5 47
t31.5 38.5t46.5 26t67.5 8.5q11 0 40.5 -1t68.5 -2t84 -2t86 -1q32 0 53.5 0.5t37 3.5t26.5 8t23 14l11 -9q-10 -32 -37.5 -56t-70.5 -23h-12l-80 -380z" />
    <glyph glyph-name="afii10023" unicode="&#x401;" horiz-adv-x="572" 
d="M601 700q-8 -40 -19 -81t-26 -81h-26l-17 110h-219l-55 -265h162l55 74h25q-8 -50 -18.5 -100.5t-24.5 -101.5h-25l-23 76h-163l-58 -279h229l75 120h25q-2 -39 -8 -83.5t-17 -88.5h-493l5 29q41 17 88 24l125 593q-20 5 -39 11t-38 14l7 29h473zM230 789q0 24 16.5 36
t40.5 12q25 0 41 -12t16 -36q0 -23 -16 -35t-41 -12q-24 0 -40.5 12t-16.5 35zM453 789q0 24 16 36t41 12q24 0 40 -12t17 -36q-1 -23 -17 -35t-40 -12q-25 0 -41 12t-16 35z" />
    <glyph glyph-name="afii10051" unicode="&#x402;" horiz-adv-x="747" 
d="M721 290q0 -77 -24.5 -132.5t-63 -91t-85 -52.5t-91.5 -17l-1 27q35 10 65.5 29t53.5 50t36.5 74.5t13.5 103.5q0 22 -4.5 40.5t-16 32t-31.5 21t-51 7.5q-42 0 -81 -12.5t-71 -29.5l-60 -287q17 -5 33 -11t32 -13l-6 -29h-259l5 29q24 9 48 14.5t51 9.5l126 595h-153
l-83 -143h-25q1 20 4.5 45.5t8 52l9 52t8.5 45.5h580q-4 -20 -9.5 -45t-12.5 -50.5l-14.5 -50.5t-15.5 -46h-25l-23 140h-153l-55 -259q31 15 78.5 30t104.5 15q84 0 120.5 -38.5t36.5 -105.5z" />
    <glyph glyph-name="afii10052" unicode="&#x403;" horiz-adv-x="497" 
d="M169 53q49 -8 90 -24l-5 -29h-274l5 29q45 17 88 24l125 593q-20 4 -39 10.5t-38 14.5l7 29h468q-4 -20 -10 -46t-13.5 -54t-15.5 -54.5t-15 -47.5h-26l-20 150h-202zM472 893q9 1 23 -1t28.5 -6.5t27 -11t18.5 -13.5v-20l-226 -91l-17 19z" />
    <glyph glyph-name="afii10053" unicode="&#x404;" horiz-adv-x="644" 
d="M557 182h25q0 -28 -5.5 -70.5t-16.5 -82.5q-20 -11 -43 -19t-48 -13t-49 -7t-45 -2q-85 0 -144 24t-95.5 63t-53 87t-16.5 96q0 102 29 185.5t82.5 143t130 92.5t172.5 33q66 0 112 -9t77 -25q-3 -16 -8.5 -37.5t-13 -45.5t-15.5 -47l-15 -42h-26l-21 144
q-13 5 -39.5 7.5t-51.5 2.5q-56 0 -104.5 -18t-87 -54t-66 -89.5t-39.5 -123.5l329 14q2 -17 -1.5 -37.5t-11.5 -40.5q-34 3 -75 5.5l-83.5 5t-85 4t-78.5 1.5q-3 -32 -3 -67q0 -62 21.5 -104.5t54 -68.5t70.5 -37t72 -10q34 -1 57.5 5t34.5 13z" />
    <glyph glyph-name="afii10054" unicode="&#x405;" horiz-adv-x="527" 
d="M121 69q11 -9 37 -19.5t55 -9.5q33 -1 64 5t56 21t40 39.5t15 61.5q0 41 -19.5 69t-48.5 49.5t-62.5 41t-62.5 43.5t-48.5 56.5t-19.5 80.5q0 46 16.5 83.5t49 64.5t79.5 42t107 15q61 0 109 -9.5t75 -23.5q-4 -17 -11.5 -39.5l-15.5 -46.5t-17 -46.5l-16 -39.5h-26
l-12 137q-17 8 -43.5 12t-57.5 4q-30 0 -56.5 -7t-46 -21.5t-30.5 -36.5t-11 -52q0 -40 19.5 -66.5t48.5 -47.5t62.5 -40.5t62.5 -44.5t48.5 -60.5t19.5 -87.5q0 -47 -18.5 -85t-53 -65.5t-85 -42.5t-114.5 -15q-32 0 -61.5 4t-54 11t-43.5 15.5t-29 16.5q4 18 11.5 42.5
t16.5 49.5l18 48.5t17 40.5h26z" />
    <glyph glyph-name="afii10055" unicode="&#x406;" horiz-adv-x="343" 
d="M255 0h-256l5 29q44 18 86 24l125 593q-20 4 -38 10.5t-37 14.5l7 29h256l-6 -29q-20 -8 -43 -14.5t-43 -10.5l-125 -593q20 -4 39.5 -10t34.5 -14z" />
    <glyph glyph-name="afii10056" unicode="&#x407;" horiz-adv-x="343" 
d="M255 0h-256l5 29q44 18 86 24l125 593q-20 4 -38 10.5t-37 14.5l7 29h256l-6 -29q-20 -8 -43 -14.5t-43 -10.5l-125 -593q20 -4 39.5 -10t34.5 -14zM149 789q0 24 16 36t40 12q25 0 40.5 -12t15.5 -36q0 -23 -15.5 -35t-40.5 -12q-24 0 -40 12t-16 35zM326 789
q0 24 16 36t40 12q25 0 40.5 -12t15.5 -36q0 -23 -15.5 -35t-40.5 -12q-24 0 -40 12t-16 35z" />
    <glyph glyph-name="afii10057" unicode="&#x408;" horiz-adv-x="331" 
d="M136 700h255l-5 -29q-20 -9 -43 -15t-43 -10l-118 -560q-15 -69 -40.5 -114t-55 -72.5t-59 -41t-52.5 -18.5l-7 15q20 16 36.5 32.5t30.5 41t26 59.5t23 87l120 571q-43 10 -74 25z" />
    <glyph glyph-name="afii10058" unicode="&#x409;" horiz-adv-x="911" 
d="M322 0l6 29q42 18 82 24l125 595h-186q-25 -104 -48 -184.5t-44 -141.5t-41 -105t-39.5 -77t-39 -57.5t-39.5 -44.5q-26 -26 -58 -38t-58 -12q-9 13 -15 39.5t-7 52.5q0 6 0.5 12t1.5 12l20 25l111 -21q20 25 43.5 66t48.5 104.5t51 152.5t52 210q-59 11 -95 30l6 29h531
l-6 -29q-20 -8 -43.5 -14.5t-49.5 -10.5l-48 -229q19 3 45 5t46 2q48 0 86.5 -10.5t66.5 -31t43 -50t15 -67.5q0 -79 -31 -130.5t-78 -82t-102.5 -43t-104.5 -12.5q-5 0 -19 0.5t-32.5 1l-38 1t-34.5 0.5h-123zM641 372q-23 0 -39 -1.5t-30 -4.5l-66 -312q4 -2 13 -2.5
t19.5 -1.5t20.5 -1h16q39 0 75.5 11.5t65 38t46 67.5t16.5 98q1 23 -5.5 43t-22 34.5t-42.5 22.5t-67 8z" />
    <glyph glyph-name="afii10059" unicode="&#x40a;" horiz-adv-x="984" 
d="M397 0l6 29q21 9 40 15t41 9l62 293h-315l-61 -293q38 -8 69 -24l-5 -29h-254l6 29q22 10 44 15t44 9l125 593q-45 7 -77 25l6 29h254l-6 -29q-20 -9 -40.5 -15t-40.5 -10l-53 -248h315l53 248q-20 5 -36 11t-35 14l6 29h260l-6 -29q-20 -8 -44 -14.5t-49 -10.5l-53 -249
q19 3 45 5t46 2q48 0 87.5 -10t67.5 -30t43.5 -49t15.5 -67q0 -74 -31 -122.5t-78 -77t-102.5 -40t-105.5 -11.5q-5 0 -19 0.5t-32.5 1l-38 1t-34.5 0.5h-120zM714 352q-24 0 -41 -1.5t-31 -4.5l-62 -292q4 -2 13.5 -2.5t20 -1.5t20.5 -1h15q40 0 76.5 9.5t64.5 33t44.5 61
t16.5 91.5q0 21 -6.5 40.5t-22 34.5t-42 24t-66.5 9z" />
    <glyph glyph-name="afii10060" unicode="&#x40b;" horiz-adv-x="765" 
d="M436 648l-55 -259q30 15 73.5 30t100.5 15q66 0 104.5 -33t39.5 -105q0 -32 -9 -74l-36 -169q34 -6 66 -24l-5 -29h-167l47 229q6 29 7 56.5t-7.5 49t-27 34.5t-51.5 13q-42 0 -78 -12.5t-68 -29.5l-60 -287q17 -5 33.5 -11t31.5 -13l-5 -29h-260l5 29q24 8 48 14t51 10
l125 595h-152l-82 -143h-26q1 20 4 45.5t7 52t9 52t10 45.5h580q-4 -20 -10 -44.5t-13 -50.5t-14.5 -51t-14.5 -45h-25l-23 139h-153z" />
    <glyph glyph-name="afii10061" unicode="&#x40c;" horiz-adv-x="637" 
d="M476 700h227l-7 -29q-18 -9 -40 -15t-41 -10l-259 -270l41.5 -73l50 -83l55 -87l56.5 -84l43 -24l-5 -25h-121l-29 24q-45 69 -87 149t-79 162h-53l-59 -282q41 -8 69 -24l-5 -29h-253l5 29q45 18 88 24l125 593q-22 4 -41.5 10t-35.5 15l7 29h253l-6 -29
q-34 -16 -81 -25l-58 -277l60 14l240 263q-20 5 -36 10.5t-31 14.5zM521 893q9 1 23 -1t28.5 -6.5t27 -11t18.5 -13.5v-20l-226 -91l-17 19z" />
    <glyph glyph-name="afii10062" unicode="&#x40e;" horiz-adv-x="650" 
d="M609 646q-46 9 -80 25l6 29h223l-6 -29q-14 -7 -33 -13.5t-44 -11.5l-296 -474q-62 -95 -114.5 -141.5t-109.5 -35.5q-5 9 -8.5 23t-6.5 29t-4 30t1 27l29 24l105 -27q5 4 12 12t14 18l13.5 20t10.5 18l-158 477l-35 10.5t-35 14.5l6 29h263l-6 -29q-17 -8 -39.5 -14
t-47.5 -11l106 -331l8 -64h2l34 66zM443 731q-41 0 -69 11.5t-44.5 29t-23 37t-4.5 34.5q16 13 45 19.5t50 8.5l25 -13v-66q6 -5 15.5 -9t25.5 -4q22 0 45 6t42.5 16.5t34.5 25.5t21 34q10 0 20 -4t15 -11q-6 -21 -23 -41.5t-42.5 -37t-59 -26.5t-73.5 -10z" />
    <glyph glyph-name="afii10145" unicode="&#x40f;" horiz-adv-x="709" 
d="M535 700h253l-5 -29q-17 -8 -38 -14.5t-50 -10.5l-126 -593q40 -8 77 -24l-6 -29h-284q-14 -45 -32 -92.5t-42 -98.5h-26q0 49 1.5 96.5t5.5 94.5h-283l6 29q20 10 42.5 15t44.5 9l125 593q-19 2 -38 8.5t-38 16.5l6 29h253l-5 -29q-12 -7 -32 -13.5t-50 -11.5l-125 -594
h304l126 594q-18 5 -36 11t-33 14z" />
    <glyph glyph-name="afii10017" unicode="&#x410;" horiz-adv-x="674" 
d="M176 0h-225l6 29q39 16 78 24l395 659h26l113 -659q18 -4 36.5 -9.5t33.5 -14.5l-5 -29h-254l5 29q45 17 88 24l-30 183h-235l-107 -183q43 -6 80 -24zM237 288h198l-32 212l-2 86h-2l-40 -88z" />
    <glyph glyph-name="afii10018" unicode="&#x411;" horiz-adv-x="590" 
d="M198 646q-22 4 -41 10.5t-36 14.5l7 29h479q-7 -40 -20 -89.5t-30 -91.5h-26l-23 129h-214l-50 -241q24 4 47.5 5.5t43.5 1.5q99 0 155.5 -36.5t56.5 -114.5q0 -57 -21.5 -105.5t-62 -84t-99 -56t-131.5 -20.5q-5 0 -19.5 0.5t-33.5 1l-39 1t-35 0.5h-126l5 29
q43 18 88 24zM311 362q-23 0 -41.5 -1.5t-36.5 -3.5l-64 -303q4 -2 13.5 -2.5t20 -1.5t20.5 -1h16q47 0 84.5 15t63.5 42.5t39.5 65t13.5 81.5q0 23 -5 43t-19 34.5t-39.5 23t-65.5 8.5z" />
    <glyph glyph-name="afii10019" unicode="&#x412;" horiz-adv-x="605" 
d="M-20 0l5 29q45 19 88 24l125 593q-20 4 -39 10.5t-38 14.5l7 29h106q37 0 74 3t93 3q40 0 76 -7t63 -22t43 -39.5t16 -60.5q0 -35 -10.5 -66.5t-32.5 -58t-55.5 -46.5t-78.5 -32v-4q23 -2 47 -10t43.5 -23.5t31.5 -39t12 -55.5q0 -53 -20 -98t-59.5 -78.5t-99.5 -52.5
t-140 -19q-35 0 -77.5 3t-83.5 3h-96zM256 46q41 -1 78 11t65 35t44.5 56.5t16.5 76.5q0 33 -11.5 54t-33 32t-51.5 15t-67 4h-76l-58 -276q13 -4 32 -6.5t61 -1.5zM282 382q17 0 40.5 1.5t40.5 3.5q79 28 109.5 75.5t30.5 103.5q0 39 -28 63.5t-94 24.5q-32 0 -54.5 -1.5
t-37.5 -3.5l-57 -267h50z" />
    <glyph glyph-name="afii10020" unicode="&#x413;" horiz-adv-x="497" 
d="M169 53q49 -8 90 -24l-5 -29h-274l5 29q45 17 88 24l125 593q-20 4 -39 10.5t-38 14.5l7 29h468q-4 -20 -10 -46t-13.5 -54t-15.5 -54.5t-15 -47.5h-26l-20 150h-202z" />
    <glyph glyph-name="afii10021" unicode="&#x414;" horiz-adv-x="678" 
d="M634 52q-5 -21 -12 -47l-15 -54t-17.5 -55t-18.5 -47h-26l-6 151h-492l-79 -151h-24q1 19 3 46t4.5 55t6 54.5t7.5 47.5h83q35 41 71.5 106.5t70 144.5t62 166t46.5 172q-25 5 -50.5 12.5t-45.5 17.5l7 29h530l-7 -29q-32 -14 -87 -25l-125 -594h114zM424 52l125 596
h-190q-32 -123 -65 -219.5t-64.5 -170t-61 -124.5t-55.5 -82h311z" />
    <glyph glyph-name="afii10022" unicode="&#x415;" horiz-adv-x="572" 
d="M601 700q-8 -40 -19 -81t-26 -81h-26l-17 110h-219l-55 -265h162l55 74h25q-8 -50 -18.5 -100.5t-24.5 -101.5h-25l-23 76h-163l-58 -279h229l75 120h25q-2 -39 -8 -83.5t-17 -88.5h-493l5 29q41 17 88 24l125 593q-20 5 -39 11t-38 14l7 29h473z" />
    <glyph glyph-name="afii10024" unicode="&#x416;" horiz-adv-x="938" 
d="M512 646q-20 6 -36 12t-30 13l6 29h231l-6 -29q-13 -6 -30.5 -12.5t-39.5 -12.5l-59 -277l67 14l223 263q-18 5 -34 11t-33 14l6 29h227l-6 -29q-20 -8 -40.5 -14t-40.5 -11l-243 -271l36 -71l43 -83.5t49 -87.5t55 -84l42 -24l-5 -25h-119l-28 25q-23 34 -42 72
t-36.5 77.5t-33.5 80t-34 80.5h-60l-60 -282q16 -5 31 -10.5t29 -13.5l-5 -29h-232l5 29q35 17 78 24l61 290l-69 -14l-51.5 -72.5l-58.5 -78.5l-64.5 -79.5t-70.5 -73.5l-39 -25h-131l5 25l52 24q45 40 87 83.5l80.5 87l73 83.5l63.5 73l-128 270q-40 11 -65 25l6 29h213
l-6 -29q-31 -15 -73 -25l114 -269h69z" />
    <glyph glyph-name="afii10025" unicode="&#x417;" horiz-adv-x="560" 
d="M197 -12q-57 0 -107 11.5t-80 28.5q3 16 9.5 37t15 43.5l17.5 45t18 40.5h25l13 -138q6 -3 17.5 -6t26 -5.5t29.5 -3.5t28 -1q43 0 79.5 11.5t63.5 36t42 62t16 88.5q-1 51 -36.5 74t-94.5 23l-79 -11q0 14 2 29t9 29h32q17 0 42 1.5t42 3.5q28 10 52 27t41 39.5t27 48.5
t11 55q-1 57 -28 80t-93 23q-30 0 -50.5 -6t-32.5 -13l-78 -122h-26l2 37t3 36t6 37t10 42q40 23 90 32t93 9q40 0 76.5 -8t64 -25.5t43.5 -44t16 -63.5q0 -26 -7 -53.5t-25.5 -53.5t-50.5 -49.5t-82 -40.5v-4q20 -3 41 -12t38 -25.5t27.5 -39.5t10.5 -53
q0 -58 -21.5 -104.5t-61 -79.5t-97 -50.5t-129.5 -17.5z" />
    <glyph glyph-name="afii10026" unicode="&#x418;" horiz-adv-x="729" 
d="M233 0h-253l5 29q44 18 88 24l125 593l-39 10.5t-38 14.5l7 29h253l-6 -29q-17 -8 -37.5 -14t-43.5 -11l-92 -434l-26 -75l61 81l382 404l5 24q-22 5 -41 11t-34 14l6 29h253l-6 -29q-20 -8 -42 -14t-45 -11l-126 -593q21 -4 40.5 -10t35.5 -14l-5 -29h-253l5 29
q17 7 38 13.5t44 10.5l92 433l26 75l-56 -76l-389 -410l-4 -22q22 -4 41 -10t34 -14z" />
    <glyph glyph-name="afii10027" unicode="&#x419;" horiz-adv-x="729" 
d="M233 0h-253l5 29q44 18 88 24l125 593l-39 10.5t-38 14.5l7 29h253l-6 -29q-17 -8 -37.5 -14t-43.5 -11l-92 -434l-26 -75l61 81l382 404l5 24q-22 5 -41 11t-34 14l6 29h253l-6 -29q-20 -8 -42 -14t-45 -11l-126 -593q21 -4 40.5 -10t35.5 -14l-5 -29h-253l5 29
q17 7 38 13.5t44 10.5l92 433l26 75l-56 -76l-389 -410l-4 -22q22 -4 41 -10t34 -14zM471 731q-41 0 -69 11.5t-44.5 29t-23 37t-4.5 34.5q16 13 45 19.5t50 8.5l25 -13v-66q6 -5 15.5 -9t25.5 -4q22 0 45 6t42.5 16.5t34.5 25.5t21 34q10 0 20 -4t15 -11q-6 -21 -23 -41.5
t-42.5 -37t-59 -26.5t-73.5 -10z" />
    <glyph glyph-name="afii10028" unicode="&#x41a;" horiz-adv-x="637" 
d="M476 700h227l-7 -29q-18 -9 -40 -15t-41 -10l-259 -270l41.5 -73l50 -83l55 -87l56.5 -84l43 -24l-5 -25h-121l-29 24q-45 69 -87 149t-79 162h-53l-59 -282q41 -8 69 -24l-5 -29h-253l5 29q45 18 88 24l125 593q-22 4 -41.5 10t-35.5 15l7 29h253l-6 -29
q-34 -16 -81 -25l-58 -277l60 14l240 263q-20 5 -36 10.5t-31 14.5z" />
    <glyph glyph-name="afii10029" unicode="&#x41b;" horiz-adv-x="646" 
d="M288 641q-59 11 -95 30l6 29h525l-6 -29q-18 -8 -40 -14.5t-47 -10.5l-125 -593q21 -4 40.5 -10t35.5 -14l-6 -29h-254l6 29q20 8 40.5 13.5t41.5 10.5l125 595h-186q-25 -105 -48 -185t-44 -141t-41 -105.5t-39.5 -77.5t-39 -57t-39.5 -44q-26 -26 -58 -38t-58 -12
q-6 8 -10.5 22.5t-7.5 31t-3.5 33t1.5 29.5l20 25l111 -21q20 25 43.5 66t48.5 104.5t51 152.5t52 210z" />
    <glyph glyph-name="afii10030" unicode="&#x41c;" horiz-adv-x="857" 
d="M787 0h-248l5 29q22 8 43 13.5t44 10.5l94 450l30 117h-8l-54 -107l-316 -513h-26l-87 513l-11 117h-9l-26 -127l-95 -450q18 -4 36 -10t35 -14l-6 -29h-208l5 29q40 17 87 25l125 592q-20 4 -40 10.5t-37 14.5l6 29h208l71 -457l12 -103h1l52 105l282 455h184l-7 -29
q-39 -17 -81 -25l-126 -594q20 -4 38 -9.5t32 -13.5z" />
    <glyph glyph-name="afii10031" unicode="&#x41d;" horiz-adv-x="719" 
d="M233 0h-253l5 29q22 10 44 15.5t44 8.5l125 593q-45 9 -77 25l7 29h253l-6 -29q-17 -9 -39 -15t-42 -10l-55 -261h314l56 261q-20 5 -37.5 10.5t-33.5 14.5l7 29h253l-6 -29q-20 -10 -42.5 -15.5t-44.5 -9.5l-126 -593q45 -8 76 -24l-5 -29h-253l5 29q19 8 39.5 14
t41.5 10l59 280h-315l-58 -280q18 -4 36 -10t33 -14z" />
    <glyph glyph-name="afii10032" unicode="&#x41e;" horiz-adv-x="730" 
d="M66 278q0 91 27.5 170t79.5 137.5t125 92.5t165 34q73 0 123 -24t80.5 -63t44 -89.5t13.5 -104.5q0 -80 -22.5 -159.5t-69.5 -142.5t-118.5 -102t-169.5 -39q-72 0 -124.5 23.5t-86.5 63t-50.5 92t-16.5 111.5zM173 277q0 -55 14.5 -99t40 -75t60 -47.5t75.5 -15.5
q73 -1 121.5 35.5t78 94t42 127t12.5 135.5q0 51 -11.5 93t-34.5 72t-56.5 46.5t-77.5 16.5q-69 0 -119 -36t-82.5 -92t-47.5 -124t-15 -131z" />
    <glyph glyph-name="afii10033" unicode="&#x41f;" horiz-adv-x="709" 
d="M233 0h-253l5 29q17 8 38 14t50 10l125 593q-20 4 -39 10.5t-38 14.5l7 29h660l-6 -29q-20 -10 -42.5 -15.5t-44.5 -9.5l-126 -593q39 -5 76 -24l-5 -29h-253l5 29q12 7 32 13t49 11l126 595h-305l-125 -595q38 -8 69 -24z" />
    <glyph glyph-name="afii10034" unicode="&#x420;" horiz-adv-x="596" 
d="M169 53q26 -3 48.5 -9.5t41.5 -14.5l-5 -29h-274l5 29q23 10 44.5 15t43.5 9l125 593q-22 4 -41 10.5t-36 14.5l7 29h90q40 0 87.5 4t90.5 4q48 0 88.5 -9.5t69 -30t44.5 -51t16 -72.5q0 -59 -21.5 -109t-62 -87t-97.5 -58t-127 -21h-16.5t-25 0.5t-27 1.5t-22.5 2z
M370 656q-24 0 -42.5 -1.5t-32.5 -3.5l-68 -324q5 -1 14.5 -2t20 -1.5t20 -1t15.5 -0.5q104 0 157 59.5t53 162.5q0 25 -5.5 45.5t-21 35.5t-42 23t-68.5 8z" />
    <glyph glyph-name="afii10035" unicode="&#x421;" horiz-adv-x="635" 
d="M557 182h25q0 -28 -5.5 -70.5t-16.5 -82.5q-20 -11 -43 -19t-48 -13t-49 -7t-45 -2q-85 0 -144 24t-95.5 63t-53 87t-16.5 96q0 102 29 185.5t82.5 143t130 92.5t172.5 33q66 0 112 -9t77 -25q-3 -16 -8.5 -37.5t-13 -45.5t-15.5 -47l-15 -42h-26l-21 144
q-13 5 -39.5 7.5t-51.5 2.5q-66 0 -122 -25.5t-97 -75.5t-64 -125t-23 -174q0 -62 21.5 -104.5t54 -68.5t70.5 -37t72 -10q34 -1 57.5 5t34.5 13z" />
    <glyph glyph-name="afii10036" unicode="&#x422;" horiz-adv-x="610" 
d="M401 0h-281l5 29q24 9 47.5 14.5t51.5 9.5l126 595h-153l-83 -143h-26q1 20 4.5 45.5t7.5 52t8.5 52t9.5 45.5h580q-4 -20 -10 -45t-13 -51.5t-14.5 -52t-14.5 -46.5h-26l-21 143h-153l-126 -595q24 -5 45.5 -10t40.5 -14z" />
    <glyph glyph-name="afii10037" unicode="&#x423;" horiz-adv-x="650" 
d="M609 646q-46 9 -80 25l6 29h223l-6 -29q-14 -7 -33 -13.5t-44 -11.5l-296 -474q-62 -95 -114.5 -141.5t-109.5 -35.5q-5 9 -8.5 23t-6.5 29t-4 30t1 27l29 24l105 -27q5 4 12 12t14 18l13.5 20t10.5 18l-158 477l-35 10.5t-35 14.5l6 29h263l-6 -29q-17 -8 -39.5 -14
t-47.5 -11l106 -331l8 -64h2l34 66z" />
    <glyph glyph-name="afii10038" unicode="&#x424;" horiz-adv-x="776" 
d="M380 700h225l-6 -29q-12 -7 -29 -13t-42 -11l-11 -51q21 5 43.5 6t38.5 1q48 0 83 -14t57.5 -38.5t33.5 -58t11 -71.5q0 -65 -21 -122t-60 -99.5t-94 -67t-122 -24.5q-11 0 -33 1.5t-39 4.5l-12 -61q38 -10 60 -24l-6 -29h-225l5 29q34 15 76 23l13 60q-20 -2 -36 -3
t-31 -1q-37 0 -73 11t-64 33.5t-45 57.5t-17 82q0 63 21.5 119.5t60.5 99t94.5 67.5t123.5 25q13 0 34.5 -1t35.5 -3l10 48q-22 5 -38.5 10.5t-27.5 13.5zM563 556q-15 0 -28.5 -1t-27.5 -5l-83 -392q9 -2 27.5 -2.5t26.5 -0.5q51 0 90.5 20.5t66 56t40.5 83t13 102.5
q1 71 -33 104.5t-92 34.5zM290 155q12 0 25.5 1.5t21.5 3.5l84 393q-11 2 -27.5 2.5t-28.5 0.5q-48 0 -87 -19t-66.5 -53.5t-42 -81.5t-13.5 -104q-1 -34 10.5 -60.5t30 -45t43 -28t50.5 -9.5z" />
    <glyph glyph-name="afii10039" unicode="&#x425;" horiz-adv-x="661" 
d="M499 700h230l-7 -29q-18 -8 -38.5 -14t-41.5 -11l-238 -271l137 -322q46 -8 75 -24l-5 -29h-266l5 29q38 18 81 24l-101 251l-210 -252q20 -3 39.5 -7.5t36.5 -15.5l-6 -29h-230l6 29q20 10 40 15t40 9l262 299l-124 294q-20 5 -38 10.5t-36 14.5l6 29h266l-6 -29
q-31 -14 -82 -25l89 -226l187 226l-38 10t-39 15z" />
    <glyph glyph-name="afii10040" unicode="&#x426;" horiz-adv-x="723" 
d="M-20 0l5 29q31 13 88 25l125 592q-37 6 -77 25l7 29h253l-7 -29q-30 -14 -80 -25l-125 -594h298l127 594q-18 4 -35.5 10t-34.5 15l6 29h253l-6 -29q-21 -8 -43 -14.5t-44 -10.5l-127 -594h115q-5 -21 -12 -47.5t-16 -54l-18.5 -54l-17.5 -47.5h-25l-6 151h-603z" />
    <glyph glyph-name="afii10041" unicode="&#x427;" horiz-adv-x="627" 
d="M558 0h-254l5 29q26 11 50.5 16.5t47.5 7.5l55 257q-31 -15 -79.5 -30t-108.5 -15q-42 0 -74 12t-51 38t-23.5 66t7.5 97l36 168q-17 4 -35 10t-32 15l6 29h234l-7 -29q-14 -7 -31 -13.5t-39 -11.5l-35 -164q-8 -39 -8.5 -69.5t9 -51.5t31 -32.5t56.5 -11.5q42 0 81 12
t73 29l61 288q-36 9 -66 25l6 29h233l-6 -29q-15 -8 -33 -14t-38 -11l-126 -593q18 -4 33.5 -10t26.5 -14z" />
    <glyph glyph-name="afii10042" unicode="&#x428;" horiz-adv-x="921" 
d="M452 700h226l-7 -29q-15 -8 -34 -14.5t-36 -10.5l-126 -594h221l127 594q-17 5 -33 11t-29 14l6 29h233l-6 -29q-17 -8 -35.5 -14.5t-39.5 -10.5l-126 -593q18 -4 34.5 -10t29.5 -14l-5 -29h-872l5 29q40 18 78 24l125 593q-18 5 -36 11t-31 14l7 29h232l-6 -29
q-14 -8 -31.5 -14t-38.5 -11l-126 -594h221l126 594q-17 5 -33 11t-26 14z" />
    <glyph glyph-name="afii10043" unicode="&#x429;" horiz-adv-x="940" 
d="M-20 0l5 29q18 8 36.5 14t41.5 10l125 593q-18 4 -36 10t-31 15l7 29h232l-6 -29q-14 -8 -31.5 -14t-38.5 -11l-126 -594h221l126 594q-16 5 -31.5 11t-27.5 14l6 29h226l-7 -29q-13 -8 -30.5 -14t-39.5 -11l-126 -594h221l127 594q-17 5 -33.5 11t-28.5 14l6 29h234
l-7 -29q-32 -18 -75 -25l-127 -595h115q-5 -20 -12.5 -46.5t-16.5 -54l-18 -54.5t-17 -47h-25l-6 151h-832z" />
    <glyph glyph-name="afii10044" unicode="&#x42a;" horiz-adv-x="706" 
d="M520 700l-6 -29q-20 -8 -43 -14.5t-51 -10.5l-48 -229q19 4 45.5 5.5t46.5 1.5q47 0 87 -9.5t68.5 -29t44.5 -49t16 -69.5q0 -65 -22 -115t-63.5 -84.5t-101.5 -52.5t-135 -18q-5 0 -19.5 0.5t-32.5 1t-38 1t-35 0.5h-128l6 29q41 17 88 24l125 595h-128l-82 -143h-26
q1 21 4.5 46.5t8 52l9 51.5t8.5 45h402zM433 372q-25 0 -41.5 -1.5t-30.5 -4.5l-66 -312q4 -2 13.5 -2.5t20 -1.5t20 -1h15.5q46 0 84 12.5t66 39.5t43.5 68.5t15.5 98.5q0 21 -6.5 40t-23 33.5t-43.5 22.5t-67 8z" />
    <glyph glyph-name="afii10045" unicode="&#x42b;" horiz-adv-x="834" 
d="M765 0h-253l5 29q21 10 41.5 15t42.5 9l125 593l-35.5 10t-37.5 15l6 29h254l-6 -29q-36 -17 -85 -25l-125 -593q23 -4 41 -10t32 -14zM-20 0l5 29q43 18 88 24l125 593q-20 4 -39 10.5t-38 14.5l7 29h266l-7 -29q-20 -8 -43.5 -15t-49.5 -10l-48 -229q19 4 45.5 5.5
t46.5 1.5q100 0 152.5 -43t52.5 -115q0 -69 -23.5 -119.5t-65 -84t-98.5 -49.5t-124 -16q-5 0 -19 0.5t-32.5 1l-38 1t-34.5 0.5h-128zM307 372q-24 0 -41 -1.5t-31 -4.5l-66 -312q4 -2 13.5 -2.5t20 -1.5t20 -1h15.5q92 0 145.5 55t52.5 164q1 21 -5 40t-20.5 33
t-39.5 22.5t-64 8.5z" />
    <glyph glyph-name="afii10046" unicode="&#x42c;" horiz-adv-x="580" 
d="M-20 0l5 29q43 18 88 24l125 593q-20 4 -39 10.5t-38 14.5l7 29h266l-6 -29q-20 -8 -44 -15t-50 -10l-48 -229q19 4 45.5 5.5t46.5 1.5q100 0 158 -41t58 -117q0 -72 -25.5 -123t-69 -83.5t-102 -47.5t-125.5 -15q-5 0 -19 0.5t-32.5 1l-38 1t-34.5 0.5h-128zM307 372
q-24 0 -41 -1.5t-31 -4.5l-66 -312q4 -2 13.5 -2.5t20 -1.5t20.5 -1h15q46 0 84.5 12.5t66.5 39.5t43.5 68.5t14.5 98.5q1 21 -6 40t-23 33.5t-43.5 22.5t-67.5 8z" />
    <glyph glyph-name="afii10047" unicode="&#x42d;" horiz-adv-x="622" 
d="M209 314q-1 20 2.5 39.5t13.5 38.5l288 -1q4 60 -9 110t-40 85t-66.5 54.5t-87.5 19.5q-25 0 -53 -5.5t-41 -13.5l-78 -122h-26l2.5 31t4 38t6.5 41.5t9 41.5q19 11 43.5 19t50.5 13t51.5 7t46.5 2q140 0 214.5 -75t74.5 -210q0 -93 -29 -173.5t-83.5 -139.5
t-132.5 -92.5t-177 -33.5q-66 0 -104.5 9.5t-68.5 26.5q7 43 21.5 89.5t29.5 81.5h25l22 -144q14 -5 35.5 -8t47.5 -3q55 0 105.5 18.5t91 57t69 95.5t39.5 133z" />
    <glyph glyph-name="afii10048" unicode="&#x42e;" horiz-adv-x="961" 
d="M234 0h-254l5 29q21 8 42.5 14t45.5 10l125 593q-37 6 -77 25l7 29h254l-7 -29q-14 -6 -31.5 -12.5t-49.5 -12.5l-55 -261h115q14 69 44 129t74.5 104t103 69t129.5 25q73 0 121 -23.5t76.5 -60.5t40 -82.5t11.5 -90.5q0 -83 -24.5 -166t-72.5 -150t-119.5 -109
t-165.5 -42q-76 0 -124.5 31.5t-74.5 81t-32 111t3 121.5h-117l-58 -280q23 -5 40 -11t30 -13zM439 259q0 -39 6 -78t22.5 -70.5t46 -51.5t75.5 -19q47 -1 84.5 19t66 54t49 78.5t33.5 93t19 98t6 94.5q1 28 -4.5 60t-23 59.5t-48.5 45.5t-81 18q-44 0 -79.5 -18.5
t-63.5 -50t-48.5 -72.5t-33.5 -85.5t-19.5 -90t-6.5 -84.5z" />
    <glyph glyph-name="afii10049" unicode="&#x42f;" horiz-adv-x="627" 
d="M694 700l-6 -29q-17 -8 -37.5 -14t-49.5 -11l-125 -593q48 -8 75 -24l-5 -29h-265l5 29q42 18 94 24l50 241h-92q-30 -36 -55.5 -71l-50.5 -69t-52 -66t-60 -63l-39 -25h-132l5 25l53 24q39 34 71 67.5l60 65l54 61.5l52 59q-14 5 -33 17t-36 31.5t-29 46.5t-12 62
q0 118 82.5 180t240.5 64q20 0 49 -1.5t60 -1.5h128zM346 337q9 0 22.5 0.5l27.5 1t26 2t19 3.5l64 302q-9 2 -27.5 3.5t-32.5 1.5q-57 0 -96.5 -17t-63.5 -45t-34.5 -62.5t-9.5 -70.5q-1 -30 10 -52t27.5 -36.5t34.5 -22.5t33 -8z" />
    <glyph glyph-name="afii10065" unicode="&#x430;" horiz-adv-x="535" 
d="M189 50q27 0 54 25.5t51 61.5t43 75t30 65l32 171q-14 10 -27 14t-36 4q-46 0 -83.5 -28.5t-64 -73.5t-41 -100t-14.5 -108q0 -51 12.5 -78.5t43.5 -27.5zM347 196q-13 -36 -32.5 -73t-45 -67t-56.5 -49t-66 -19q-104 0 -104 151q0 70 20 136.5t58 118.5t92.5 83.5
t123.5 31.5q25 0 40 -4.5t36 -13.5q40 21 84 21l-90 -457h73v-25q-20 -16 -48 -26t-55 -10q-29 0 -41.5 12.5t-12.5 26.5q0 18 7 59t21 104h-4z" />
    <glyph glyph-name="afii10066" unicode="&#x431;" horiz-adv-x="514" 
d="M41 189q0 70 11.5 141t35.5 134t61 113.5t88 79.5q50 29 106.5 39t115.5 14l64 52h25q-2 -29 -15 -60t-30 -52q-11 -15 -31 -21t-47 -8q-80 -7 -134 -23t-90 -49t-59 -88t-39 -140h5q22 45 50.5 80t60 59.5t64 37.5t64.5 13q31 0 55.5 -12.5t41 -35t25.5 -52.5t9 -66
q0 -65 -20.5 -128.5t-57.5 -114.5t-87 -82.5t-110 -31.5q-36 0 -65.5 12.5t-51 37.5t-33.5 62.5t-12 88.5zM155 332q-14 -30 -19 -70t-5 -95q0 -72 24 -104t59 -32q34 0 64.5 25.5t53.5 66.5t36.5 94t13.5 108q0 66 -19.5 95t-61.5 29q-27 0 -51 -13.5t-43.5 -32.5
t-32.5 -38.5t-19 -32.5z" />
    <glyph glyph-name="afii10067" unicode="&#x432;" horiz-adv-x="487" 
d="M441 416q0 -48 -36 -81.5t-102 -57.5q34 -2 56.5 -11.5t36.5 -24t20 -31t6 -32.5q0 -33 -16 -66.5t-44.5 -61t-68.5 -45t-88 -17.5q-43 0 -74 13t-51.5 35.5t-30 52.5t-9.5 65q0 52 11 100t29.5 88.5t44 72.5t54.5 53q59 44 144 44q48 0 83 -24.5t35 -71.5zM332 161
q-1 41 -22.5 60.5t-70.5 28.5q-22 -5 -48 -8t-53 -5q-3 -14 -5.5 -32.5t-2.5 -39.5q0 -57 24 -95.5t76 -38.5q15 0 33 9t33 26t25 41t11 54zM305 469q-23 -1 -46 -11t-44 -33t-39.5 -60t-33.5 -90q47 0 85.5 11t66 30t42.5 44t15 52q0 20 -10 38t-36 19z" />
    <glyph glyph-name="afii10068" unicode="&#x433;" horiz-adv-x="390" 
d="M16 94q0 34 19 62t47.5 52.5t61.5 46t61.5 42.5t47.5 43t19 46q0 26 -10.5 45t-45.5 19t-66.5 -18.5t-50.5 -37.5l-15 17q8 15 24 32.5t38.5 33t49 25.5t55.5 10q58 0 86.5 -28.5t28.5 -65.5t-19 -66t-47.5 -53.5t-61.5 -46t-61.5 -43t-47.5 -45t-19 -50.5q0 -26 17 -45
t59 -19q37 0 69.5 16.5t57.5 36.5l14 -15q-13 -18 -32.5 -36t-45 -32.5t-55.5 -23t-63 -8.5q-23 0 -44 8t-37 22t-25 33.5t-9 42.5z" />
    <glyph glyph-name="afii10069" unicode="&#x434;" horiz-adv-x="496" 
d="M29 168q0 61 20.5 121.5t59 108.5t93 78t122.5 30q18 0 36 -4t29 -12q0 31 -5.5 68t-19 69t-37.5 53.5t-60 21.5q-37 0 -60.5 -7t-46.5 -19l-13 19q11 12 29 22.5t39.5 19t45 13t46.5 4.5q39 0 70.5 -17t54 -52t35 -89t12.5 -129q0 -102 -24.5 -189.5t-65.5 -152
t-96.5 -101t-116.5 -36.5q-72 0 -109.5 47.5t-37.5 132.5zM314 463q-55 -1 -92 -31t-60 -75t-33 -97t-10 -97q0 -23 3 -46t12 -42.5t25 -31.5t42 -12q33 0 66.5 31.5t60.5 87t44 130.5t17 162q-22 12 -39 16t-36 5z" />
    <glyph glyph-name="afii10070" unicode="&#x435;" horiz-adv-x="454" 
d="M392 89q-9 -19 -26 -37t-40 -32.5t-52 -23t-62 -8.5q-83 0 -127.5 47.5t-44.5 131.5q0 71 20 134t56 110t87.5 74t114.5 27q48 0 82.5 -24.5t34.5 -72.5q0 -71 -70.5 -112t-227.5 -53q-4 -17 -5.5 -33t-1.5 -31q0 -60 30.5 -98t89.5 -38q19 0 37.5 6t35 15t30 19l23.5 18
zM287 469q-43 -1 -80 -40.5t-63 -135.5q97 3 151 33.5t54 84.5q0 21 -12.5 39t-49.5 19z" />
    <glyph glyph-name="afii10072" unicode="&#x436;" horiz-adv-x="786" 
d="M58 430q26 36 57 56t72 20q21 0 37.5 -10.5t28.5 -28.5t18 -41.5t6 -48.5q0 -54 -9 -103h92l46 226h81l-47 -226h92q13 51 35 93.5t49.5 73.5t61 48t69.5 17q27 0 38 -3.5t24 -9.5q1 -11 -1.5 -24.5t-9.5 -27t-17.5 -26t-25.5 -20.5l-43 58q-18 -5 -38 -26t-37 -57.5
t-28 -88t-10 -117.5q-1 -57 16.5 -82.5t48.5 -25.5q17 0 30.5 7t27.5 21l11 -14q-20 -31 -53 -53.5t-69 -22.5q-26 0 -44.5 10.5t-30.5 28.5t-17.5 41.5t-5.5 49.5q0 28 2 54.5t6 52.5h-90l-47 -231h-80l47 231h-92q-14 -52 -36 -95.5t-50.5 -75t-62 -49t-69.5 -17.5
q-28 0 -39.5 4t-23.5 9q-2 13 1 28t10 28.5t18 25t25 17.5l43 -59q22 6 43.5 27.5t37.5 58t26 87.5t9 116q1 57 -12 82.5t-43 25.5q-37 0 -67 -28z" />
    <glyph glyph-name="afii10073" unicode="&#x437;" horiz-adv-x="439" 
d="M-12 36q1 13 6 26.5t13 26.5t18 24t22 18l68 -95q8 -2 21 -3.5t21 -1.5q23 0 47 9t43.5 25.5t32 41t13.5 54.5q-1 40 -22 58t-71 26l-70 -18q-5 13 -4.5 27t4.5 27h71q54 17 81 51.5t26 66.5q1 30 -18 50t-62 20q-8 0 -22 -1.5t-24 -3.5q-14 -16 -31.5 -42t-32.5 -46
q-9 4 -17.5 14t-14.5 23t-8 28t2 29q9 6 24 13t37.5 13.5t51.5 11t67 4.5q28 0 53 -6t44 -18t30 -30t11 -42q0 -95 -134 -144q31 0 53.5 -9t37 -23t21.5 -32.5t7 -36.5q0 -36 -16 -69.5t-45.5 -58.5t-72 -40t-95.5 -15q-56 0 -99 12.5t-67 35.5z" />
    <glyph glyph-name="afii10074" unicode="&#x438;" horiz-adv-x="542" 
d="M488 55v-25q-20 -16 -48.5 -26t-55.5 -10q-29 0 -41.5 12t-12.5 26q0 18 5 60.5t22 103.5h-4q-13 -28 -32.5 -64t-46.5 -68t-61.5 -54t-76.5 -22q-35 0 -59 24.5t-24 69.5q0 22 7 65t17 94l21.5 104.5l20.5 96.5l-61 9v25q16 6 34.5 12t37 11t35.5 8.5t31 4.5l22 -12
q-16 -75 -32.5 -142.5t-30.5 -142.5q-5 -24 -10.5 -53.5t-5.5 -64.5q0 -21 11.5 -34t26.5 -13q22 0 44 13t41.5 34t37 46.5t31.5 50.5t23.5 46.5t14.5 34.5l44 225h83l-82 -445h74z" />
    <glyph glyph-name="afii10075" unicode="&#x439;" horiz-adv-x="542" 
d="M488 55v-25q-20 -16 -48.5 -26t-55.5 -10q-29 0 -41.5 12t-12.5 26q0 18 5 60.5t22 103.5h-4q-13 -28 -32.5 -64t-46.5 -68t-61.5 -54t-76.5 -22q-35 0 -59 24.5t-24 69.5q0 22 7 65t17 94l21.5 104.5l20.5 96.5l-61 9v25q16 6 34.5 12t37 11t35.5 8.5t31 4.5l22 -12
q-16 -75 -32.5 -142.5t-30.5 -142.5q-5 -24 -10.5 -53.5t-5.5 -64.5q0 -21 11.5 -34t26.5 -13q22 0 44 13t41.5 34t37 46.5t31.5 50.5t23.5 46.5t14.5 34.5l44 225h83l-82 -445h74zM341 560q-45 0 -72 13.5t-41 32.5t-17.5 40t-1.5 37q16 12 35 19t40 9l25 -13v-77
q6 -5 15.5 -9t25.5 -4q44 0 77 27.5t46 65.5q9 0 19.5 -4.5t15.5 -11.5q-6 -21 -19.5 -43t-34.5 -40t-49 -30t-64 -12z" />
    <glyph glyph-name="afii10076" unicode="&#x43a;" horiz-adv-x="511" 
d="M310 47q-32 54 -55 101.5l-43 89.5l-36 10l-47 -248h-86l87 442l-70 9v25q29 13 70.5 23.5t76.5 12.5l21 -11l-45 -227h29q21 13 45 32t46 39t40 38.5t27 31.5q1 7 1.5 19t0 24.5l-1 24t-1.5 17.5q37 13 72 13t59 -13q-14 -31 -42.5 -63.5t-61 -62t-63.5 -53.5l-49 -37
q7 -19 23.5 -49.5l36 -63.5l39.5 -64l34 -52h63v-25q-20 -16 -43.5 -26t-49.5 -10q-24 0 -41.5 12t-35.5 41z" />
    <glyph glyph-name="afii10077" unicode="&#x43b;" horiz-adv-x="514" 
d="M379 457h-117q-12 -54 -28.5 -113.5t-37 -116.5t-45 -106.5t-53.5 -83.5q-24 -29 -51 -39.5t-59 -9.5q-8 10 -13 26.5t-4 35.5q0 16 4 31t14 28l82 -34q19 24 39.5 66t39 92.5t34.5 104.5t26 102q-21 5 -44 14.5t-34 19.5v26h335l-88 -444h74v-26q-20 -16 -48 -26
t-57 -10t-41.5 12t-12.5 26q0 19 4 41.5t9 45.5z" />
    <glyph glyph-name="afii10078" unicode="&#x43c;" horiz-adv-x="707" 
d="M232 434l-23.5 -100t-29.5 -110t-39 -104.5t-51 -83.5q-24 -29 -48 -38.5t-55 -9.5q-7 11 -11.5 27.5t-3.5 35.5q0 28 14 50l78 -26q19 24 37 65.5t34.5 92t30 105t24.5 103.5q-20 8 -37 16t-25 18v25h171l38 -300l3 -69h3l40 72l188 297h90l-89 -444h74v-26
q-20 -16 -48 -26t-56 -10q-29 0 -42 12t-13 26q0 19 5 42l10 46l49 223q2 9 5.5 21l7.5 25t8.5 25l7.5 20h-3l-271 -434h-27l-20 195l-17 160l-5 79h-4z" />
    <glyph glyph-name="afii10079" unicode="&#x43d;" horiz-adv-x="552" 
d="M505 500l-88 -444h73v-26q-20 -16 -48.5 -26t-55.5 -10q-29 0 -42 12t-13 26q0 18 5.5 41l10.5 46l22 113h-194l-48 -232h-84l88 442l-61 9l-1 25q14 7 32.5 13.5t38 11.5t38 8t32.5 3l20 -12l-47 -225h194l44 225h84z" />
    <glyph glyph-name="afii10080" unicode="&#x43e;" horiz-adv-x="509" 
d="M41 186q0 53 16.5 110.5t50.5 105.5t85 79t119 31q78 0 117.5 -48t39.5 -142q0 -66 -19 -126.5t-53 -106.5t-82 -73.5t-106 -27.5q-77 0 -122.5 49.5t-45.5 148.5zM292 469q-49 -1 -80 -32t-49 -77t-25 -99t-7 -97q0 -59 26 -96t70 -37q35 0 62.5 26.5t47 70t30 98.5
t10.5 111q0 59 -20.5 95t-64.5 37z" />
    <glyph glyph-name="afii10081" unicode="&#x43f;" horiz-adv-x="552" 
d="M386 285l12.5 57.5t5.5 52.5q0 23 -10.5 39t-33.5 16q-27 0 -55 -22t-52 -53t-43.5 -64.5t-29.5 -55.5l-53 -255h-84l88 442l-61 9l2 25q14 7 31.5 13.5t36 11.5t36 8t32.5 3l20 -12l-38 -177h5q19 40 43.5 74.5t52 60t57.5 40t61 14.5q42 0 61.5 -26.5t19.5 -66.5
q0 -22 -5 -55t-12 -62l-57 -246h74v-26q-20 -16 -48.5 -26t-55.5 -10q-29 0 -40 12t-11 26q0 19 5 41.5l10 45.5z" />
    <glyph glyph-name="afii10082" unicode="&#x440;" horiz-adv-x="542" 
d="M97 -146q35 -6 70 -25v-29h-157l-9 9l43 199l93 434l-61 9v25q33 14 69.5 25t68.5 11l20 -12l-41 -176h4q18 40 39.5 74t46.5 59.5t54 40t62 14.5q22 0 42 -8.5t35 -26t23.5 -43.5t8.5 -60q0 -77 -23 -147t-62.5 -123t-92.5 -84.5t-114 -31.5q-17 0 -29 1t-21 3.5
t-17.5 6.5l-18.5 9zM352 450q-29 0 -55 -22.5t-48.5 -54.5t-40.5 -67.5t-29 -62.5l-39 -189q14 -12 29.5 -17.5t49.5 -5.5q40 0 75.5 29.5t62 75.5t42 102.5t15.5 111.5q0 48 -16.5 74t-45.5 26z" />
    <glyph glyph-name="afii10083" unicode="&#x441;" horiz-adv-x="428" 
d="M382 89q-11 -19 -28 -37t-40 -32.5t-51.5 -23t-62.5 -8.5q-74 0 -117 47t-43 128q0 72 23 135.5t62.5 111t93 75t114.5 27.5q38 0 62 -6t36 -17q1 -11 -1.5 -24.5t-8 -26.5t-14 -24t-17.5 -15l-68 70q-34 -1 -67.5 -21t-60 -57t-43 -89.5t-15.5 -118.5q-1 -69 27.5 -101
t77.5 -32q21 0 39.5 6t34.5 15t29 19l23 18z" />
    <glyph glyph-name="afii10084" unicode="&#x442;" horiz-adv-x="800" 
d="M633 300q6 24 11.5 50t6.5 43q-1 26 -8.5 41.5t-30.5 15.5q-24 0 -49 -19t-47.5 -48t-41 -63t-30.5 -64l-61 -256h-80l63 281q7 31 12 59.5t5 59.5q0 23 -8 36.5t-28 13.5t-44 -19t-47 -48t-42.5 -63t-31.5 -65l-53 -255h-86l93 442l-61 9v25q33 17 71.5 26.5t66.5 9.5
l21 -12l-44 -177h4q12 28 33.5 61t49.5 61.5t60 47.5t64 19q12 0 24 -4t21 -14.5t15 -28.5t6 -46q0 -22 -4.5 -47t-10.5 -49q15 34 38 67.5t50 60.5t57.5 44t62.5 17q38 0 57.5 -24t19.5 -66q0 -32 -6 -60.5l-13 -61.5l-65 -244h74v-26q-20 -16 -49 -26t-55 -10
q-29 0 -40 13t-11 31q0 29 14 80z" />
    <glyph glyph-name="afii10085" unicode="&#x443;" horiz-adv-x="455" 
d="M88 442l-64 8v25q5 4 16.5 10t26.5 12t31 10.5t30 4.5q21 0 30.5 -10.5t14.5 -27.5l83 -350l3 -60h2l23 59q13 28 26.5 61.5l26.5 67.5t24 67t19 61q0 11 -2.5 29t-5.5 36t-6 33.5t-5 21.5q14 6 30 9t31 3q30 0 53 -12q-31 -124 -84.5 -248t-118.5 -252
q-54 -105 -108 -157t-122 -52q-15 0 -28.5 4t-28.5 12q-1 11 2 25t9.5 28t17 26t23.5 19l81 -42q7 5 18 14.5t23 26t24 40t23 56.5z" />
    <glyph glyph-name="afii10086" unicode="&#x444;" horiz-adv-x="702" 
d="M311 -146q33 -6 70 -25v-29h-151l-9 8l55 251q-25 -32 -54.5 -53t-76.5 -21q-44 0 -74.5 32t-30.5 109q0 87 20.5 157.5t54.5 121t78.5 77.5t91.5 27q23 0 40.5 -6t30.5 -17l34 196l-70 9v25q29 13 68.5 22t73.5 14l20 -11l-55 -292q17 23 50 43t80 20q22 0 41 -7.5
t33 -24.5t22 -43.5t8 -65.5q0 -87 -20.5 -157.5t-54.5 -121t-78.5 -77.5t-91.5 -27q-29 0 -46 12t-25 26zM519 462q-35 0 -60 -19t-42 -40l-64 -349q8 -11 23 -17t39 -6q34 0 63.5 29.5t51 77.5t33.5 108t12 122q0 48 -15 71t-41 23zM183 35q12 0 26.5 6t28 15.5t25.5 21.5
t20 25l65 348q-12 8 -25 11.5t-36 3.5q-35 0 -64 -29.5t-51 -77t-34 -108t-12 -122.5q0 -48 15.5 -71t41.5 -23z" />
    <glyph glyph-name="afii10087" unicode="&#x445;" horiz-adv-x="454" 
d="M201 213q-11 -12 -25.5 -26t-28.5 -29t-26 -30t-19 -28q-2 -7 -2.5 -20t-1 -27.5t-0.5 -27t1 -18.5q-17 -7 -34.5 -10t-33.5 -3q-33 0 -55 13q9 30 37 67t62 72t66 63.5l48 42.5l-68 184l-64 8v25q6 4 17.5 10.5t26 12.5t29.5 10t29 4q22 0 32 -11.5t16 -26.5l49 -174
l50.5 52t41.5 55q1 7 1 20t-1 27.5t-2 27t-2 18.5q17 6 33.5 9.5t33.5 3.5q32 0 56 -13q-6 -20 -20 -43t-33 -46t-40.5 -45.5l-41.5 -42t-37.5 -35l-27.5 -24.5l72 -195l65 -8v-25q-6 -4 -17.5 -10t-25 -12t-29 -10t-28.5 -4q-21 0 -32 11t-16 27z" />
    <glyph glyph-name="afii10088" unicode="&#x446;" horiz-adv-x="543" 
d="M374 -6q-22 0 -33 12t-11 26q0 18 5 60.5t22 103.5h-4q-13 -28 -32.5 -64t-46.5 -68t-61.5 -54t-76.5 -22q-35 0 -59 24.5t-24 69.5q0 22 7 65t17 94l21.5 104.5l20.5 96.5l-61 9v25q16 6 34.5 12t37 11t35.5 8.5t31 4.5l22 -12q-16 -75 -32.5 -142.5t-30.5 -142.5
q-5 -24 -10.5 -53.5t-5.5 -64.5q0 -21 11.5 -34t26.5 -13q22 0 44 13t41.5 34t37 46.5t31.5 50.5t23.5 46.5t14.5 34.5l44 225h83l-82 -445h74v-31q-12 -11 -18.5 -25t-9.5 -30.5t-3.5 -34t-1.5 -34.5q-1 -27 -11.5 -44.5t-27 -29t-37.5 -17.5t-42 -10l-7 20q18 5 28.5 15
t16 21.5t6.5 24t1 22.5q-1 35 18.5 61.5t48.5 52.5l-3 3q-12 -9 -33 -17t-39 -8z" />
    <glyph glyph-name="afii10089" unicode="&#x447;" horiz-adv-x="493" 
d="M429 56v-26q-20 -16 -48 -26t-56 -10q-29 0 -41.5 13t-12.5 30q0 12 1.5 23t4.5 25l40 169h-4q-16 -21 -36.5 -39.5t-43.5 -32.5t-48 -22.5t-50 -8.5q-34 0 -58 21.5t-24 64.5q0 18 2.5 36.5t7 42t11.5 54l16 72.5l-61 9v25q16 6 34.5 12t37 11t35.5 8.5t31 4.5l22 -12
q-20 -85 -35 -142.5t-15 -96.5q0 -21 12 -34.5t35 -13.5q16 0 35 6.5t38 17.5t35.5 26t28.5 32l44 205h83l-94 -444h73z" />
    <glyph glyph-name="afii10090" unicode="&#x448;" horiz-adv-x="780" 
d="M315 80q0 41 22 116h-4l-29.5 -64t-39.5 -68t-54.5 -54t-73.5 -22q-35 0 -59 24.5t-24 69.5q0 22 7 65t17 94l21.5 104.5l20.5 96.5l-61 9v25q16 6 34.5 12t37 11t35.5 8.5t31 4.5l22 -12q-16 -75 -32.5 -142.5t-30.5 -142.5q-5 -24 -10.5 -53.5t-5.5 -64.5
q0 -21 11.5 -34t26.5 -13q22 0 42 13t37.5 34t32 46.5t26 50.5t19.5 46.5l13 34.5l46 225h83q-16 -75 -32 -142.5t-30 -142.5l-11 -53.5t-6 -64.5q0 -21 11 -34t27 -13q22 0 42 13t37.5 34t32.5 46.5t26.5 50.5t20 46.5l13.5 34.5l44 225h82l-81 -445h73v-25
q-20 -16 -48 -26t-55 -10q-29 0 -41.5 12t-12.5 26q0 18 5 60.5t22 103.5h-4l-30 -64t-41 -68t-55 -54t-72 -22q-38 0 -58 24.5t-20 67.5z" />
    <glyph glyph-name="afii10091" unicode="&#x449;" horiz-adv-x="781" 
d="M727 55v-31q-12 -11 -18.5 -25t-9.5 -30.5t-4 -34l-2 -34.5q-1 -27 -11.5 -44.5t-27 -29t-37 -17.5t-41.5 -10l-7 20q18 5 28.5 15t15.5 21.5t6 24t1 22.5q0 35 19.5 61.5t48.5 52.5l-3 3q-13 -9 -34 -17t-39 -8q-22 0 -33 12t-11 26q0 18 5 60.5t22 103.5h-4l-30 -64
t-41 -68t-55 -54t-72 -22q-38 0 -58 24.5t-20 67.5q0 41 22 116h-4l-29.5 -64t-39.5 -68t-54.5 -54t-73.5 -22q-35 0 -59 24.5t-24 69.5q0 22 7 65t17 94l21.5 104.5l20.5 96.5l-61 9v25q16 6 34.5 12t37 11t35.5 8.5t31 4.5l22 -12q-16 -75 -32.5 -142.5t-30.5 -142.5
q-5 -24 -10.5 -53.5t-5.5 -64.5q0 -21 11.5 -34t26.5 -13q22 0 42 13t37.5 34t32 46.5t26 50.5t19.5 46.5l13 34.5l46 225h83q-16 -75 -32 -142.5t-30 -142.5l-11 -53.5t-6 -64.5q0 -21 11 -34t27 -13q22 0 42 13t37.5 34t32.5 46.5t26.5 50.5t20 46.5l13.5 34.5l44 225h82
l-81 -445h75z" />
    <glyph glyph-name="afii10092" unicode="&#x44a;" horiz-adv-x="455" 
d="M180 247q37 33 74 51.5t85 18.5q15 0 31.5 -5.5t30 -17t22.5 -30t9 -45.5q0 -45 -20.5 -86.5t-54.5 -74t-76.5 -51.5t-87.5 -19q-23 0 -46.5 7t-42 23t-30 42.5t-11.5 64.5q0 39 15 81t41 83t60.5 78.5t73.5 68.5q-32 -7 -71.5 -5.5t-83.5 8.5l-46 -72l-25 6l15 101
q6 39 54 39q18 0 36.5 -3l43 -7t56.5 -8t76 -7l21.5 12l20.5 12q11 -2 20.5 -16t6.5 -31q-65 -28 -115.5 -86t-85.5 -132h4zM164 205q-9 -27 -12 -46t-3 -39q0 -37 16.5 -63t47.5 -26q28 0 52 14t42 37t28 51.5t11 58.5q-1 18 -7 30t-15 19.5t-19.5 10.5t-19.5 3
q-18 0 -36 -3.5t-34.5 -10t-29.5 -16t-21 -20.5z" />
    <glyph glyph-name="afii10093" unicode="&#x44b;" horiz-adv-x="672" 
d="M157 205q-9 -27 -13.5 -50.5t-4.5 -49.5q0 -35 12 -54.5t42 -19.5q28 0 50.5 16t38.5 40.5t24.5 55t9.5 60.5q-1 18 -7 29.5t-15 19t-19.5 10.5t-19.5 3q-35 0 -58.5 -18.5t-39.5 -41.5zM166 247q27 33 61 56.5t82 23.5q15 0 31.5 -5t30 -16.5t22.5 -30t9 -45.5
q0 -45 -19 -88t-52 -77.5t-77 -55.5t-93 -21q-22 0 -41.5 6.5t-34.5 20t-23.5 34.5t-8.5 49q0 32 8.5 73.5t22 87t29.5 92.5l31 91l-60 9v25q15 7 34.5 13t39.5 11t39.5 8t34.5 4l22 -12l-46.5 -122t-45.5 -131h4zM625 500l-95 -444h73v-26q-20 -16 -48.5 -26t-54.5 -10
q-29 0 -42 13t-13 30q0 20 3 39t8 42l84 382h85z" />
    <glyph glyph-name="afii10094" unicode="&#x44c;" horiz-adv-x="445" 
d="M157 205q-9 -27 -13.5 -50.5t-4.5 -49.5q0 -35 16.5 -54.5t47.5 -19.5q28 0 52 16t42 40.5t28 55t11 60.5q-1 18 -7 29.5t-15 19t-20 10.5t-20 3q-35 0 -68 -18.5t-49 -41.5zM166 247q27 33 71 56.5t92 23.5q15 0 31.5 -5t30 -16.5t22.5 -30t9 -45.5q0 -45 -21 -88.5
t-55.5 -77.5t-80 -55t-94.5 -21q-54 0 -86 26.5t-32 83.5q0 32 8.5 73.5t22 87t29.5 92.5l31 91l-60 9v25q15 7 34.5 13t39.5 11t39.5 8t34.5 4l22 -12l-46.5 -122t-45.5 -131h4z" />
    <glyph glyph-name="afii10095" unicode="&#x44d;" horiz-adv-x="465" 
d="M151 31q28 0 56.5 14.5t52.5 41.5t42.5 66t27.5 88l-189 -24q-5 13 -5 32t5 32h193q1 8 1.5 17.5t0.5 18.5q0 70 -28.5 111t-79.5 41q-8 0 -21.5 -1.5t-23.5 -3.5q-14 -16 -32 -42l-33 -46q-9 4 -17.5 14t-14.5 23t-8 28t2 29q19 12 61.5 27t111.5 15q79 0 128 -47
t49 -129q0 -77 -21.5 -141t-59 -110t-88 -71.5t-107.5 -25.5q-56 0 -99 12.5t-67 35.5q1 13 6 26.5t13 26.5t18 24t22 18l68 -95q8 -2 18.5 -3.5t17.5 -1.5z" />
    <glyph glyph-name="afii10096" unicode="&#x44e;" horiz-adv-x="716" 
d="M262 186q0 22 3 46h-90l-48 -232h-84l88 442l-61 9l-1 25q14 7 32.5 13.5t38 11.5t38 8t32.5 3l20 -12l-47 -225h90q10 45 31 87.5t52 75.5t72 53.5t91 20.5q78 0 117.5 -48t39.5 -142q0 -66 -19.5 -126.5t-54.5 -106.5t-83.5 -73.5t-106.5 -27.5q-70 0 -110 49.5
t-40 148.5zM499 469q-44 -1 -73 -32t-46 -77t-24.5 -99t-7.5 -97q0 -59 22 -96t59 -37q35 0 63.5 26.5t49 70t31.5 98.5t11 111q0 59 -20 95t-65 37z" />
    <glyph glyph-name="afii10097" unicode="&#x44f;" horiz-adv-x="502" 
d="M362 457q-13 2 -32 4t-31 2q-27 0 -50.5 -10t-41.5 -27.5t-28 -42t-10 -53.5q0 -38 29.5 -62.5t92.5 -24.5h25zM172 220q-18 4 -34.5 14t-29.5 25t-21 35t-8 45q0 37 18.5 67.5t50.5 52.5t75 34.5t93 12.5q13 0 31 -0.5t36 -2t35.5 -4t31.5 -6.5l-87 -437h74v-26
q-20 -16 -48.5 -26t-56.5 -10q-29 0 -41.5 12t-12.5 26q0 18 4 40.5t9 45.5l20 99l-69 -10q-21 -37 -52.5 -83.5t-67.5 -84.5q-23 -25 -43 -35t-41 -10t-38 10.5t-29 24.5v26h47q17 12 39 33.5t43.5 45t40.5 46.5t31 40z" />
    <glyph glyph-name="afii10071" unicode="&#x451;" horiz-adv-x="454" 
d="M392 89q-9 -19 -26 -37t-40 -32.5t-52 -23t-62 -8.5q-83 0 -127.5 47.5t-44.5 131.5q0 71 20 134t56 110t87.5 74t114.5 27q48 0 82.5 -24.5t34.5 -72.5q0 -71 -70.5 -112t-227.5 -53q-4 -17 -5.5 -33t-1.5 -31q0 -60 30.5 -98t89.5 -38q19 0 37.5 6t35 15t30 19l23.5 18
zM287 469q-43 -1 -80 -40.5t-63 -135.5q97 3 151 33.5t54 84.5q0 21 -12.5 39t-49.5 19zM166 662q0 24 15 38.5t40 14.5q24 0 39 -14.5t15 -38.5q0 -23 -15 -37t-39 -14q-25 0 -40 14t-15 37zM368 662q0 24 15 38.5t39 14.5q25 0 40 -14.5t15 -38.5q0 -23 -15 -37t-40 -14
q-24 0 -39 14t-15 37z" />
    <glyph glyph-name="afii10099" unicode="&#x452;" 
d="M74 593h79l19 89l-68 9v23q15 6 33.5 12.5t38 12t39 9t36.5 4.5l21 -9l-33 -150h170l-12 -52h-168l-47 -218h5q39 80 90.5 119.5t106.5 39.5q46 0 68.5 -25t22.5 -65q0 -26 -2 -44t-8 -46l-65 -302q-15 -55 -39.5 -93t-51.5 -63t-52.5 -38.5t-41.5 -17.5l-12 22
q12 6 28.5 21t32.5 38.5t30 56t23 74.5l61 285q6 30 8.5 47.5t2.5 35.5q0 23 -12 37.5t-29 14.5q-27 0 -54.5 -17.5t-51 -43t-42 -54t-28.5 -50.5l-53 -255h-84l108 541h-82z" />
    <glyph glyph-name="afii10100" unicode="&#x453;" horiz-adv-x="390" 
d="M16 94q0 34 19 62t47.5 52.5t61.5 46t61.5 42.5t47.5 43t19 46q0 26 -10.5 45t-45.5 19t-66.5 -18.5t-50.5 -37.5l-15 17q8 15 24 32.5t38.5 33t49 25.5t55.5 10q58 0 86.5 -28.5t28.5 -65.5t-19 -66t-47.5 -53.5t-61.5 -46t-61.5 -43t-47.5 -45t-19 -50.5q0 -26 17 -45
t59 -19q37 0 69.5 16.5t57.5 36.5l14 -15q-13 -18 -32.5 -36t-45 -32.5t-55.5 -23t-63 -8.5q-23 0 -44 8t-37 22t-25 33.5t-9 42.5zM377 767q8 1 21 -0.5t27 -4.5t26 -7.5t18 -9.5v-19l-197 -151l-22 18z" />
    <glyph glyph-name="afii10101" unicode="&#x454;" horiz-adv-x="438" 
d="M393 89q-11 -19 -28 -37t-40.5 -32.5t-52 -23t-62.5 -8.5q-36 0 -67.5 12t-54 35t-35.5 55.5t-13 73.5q0 71 20 130.5t55 104t82 72.5t101 37q23 4 49 4q38 -1 60.5 -6.5t34.5 -16.5q1 -11 -1.5 -24.5t-8.5 -26.5t-14 -24t-17 -15l-68 70q-29 0 -58.5 -12.5t-55.5 -36.5
t-46 -60.5t-30 -86.5l186 14q2 -13 -0.5 -27t-10.5 -27h-180q-1 -12 -1.5 -24t-0.5 -26q-1 -69 33 -101t83 -32q21 0 39.5 6t34.5 15t29 19l23 18z" />
    <glyph glyph-name="afii10102" unicode="&#x455;" horiz-adv-x="418" 
d="M255 118q-1 24 -13.5 41.5t-32 33.5t-41.5 32t-41.5 35.5t-32 45t-12.5 61.5t14 63t38.5 45t59 27.5t75.5 9.5q26 0 58.5 -4.5t61.5 -21.5q0 -11 -4 -25.5t-10.5 -28t-14.5 -25t-17 -15.5l-74 77q-21 -1 -39 -5t-31.5 -13t-21 -23.5t-7.5 -36.5q0 -26 13 -44.5t32.5 -35
t42 -32t42 -35t32.5 -45t13 -60.5q0 -36 -16.5 -64t-45 -47.5t-66 -29.5t-79.5 -10t-76.5 8.5t-54.5 21.5q5 26 12 50.5t29 45.5l90 -83q21 0 41.5 5t37 16t27 27t11.5 39z" />
    <glyph glyph-name="afii10103" unicode="&#x456;" horiz-adv-x="277" 
d="M71 451v25q15 6 34 12.5t39 11.5t38 8.5t32 3.5l18 -12l-94 -444h74v-26q-21 -16 -49 -26t-55 -10q-29 0 -41.5 13t-12.5 30q0 20 3 39t8 42l70 323zM151 673q0 26 16 41t42 15q28 0 44 -15t16 -41q0 -25 -16 -39t-44 -14q-26 0 -42 14t-16 39z" />
    <glyph glyph-name="afii10104" unicode="&#x457;" horiz-adv-x="309" 
d="M70 676q0 24 15 38.5t38 14.5q25 0 39.5 -14.5t14.5 -38.5q0 -23 -15 -37t-39 -14t-38.5 14t-14.5 37zM232 676q0 24 14.5 38.5t38.5 14.5t39 -14.5t15 -38.5q0 -23 -15 -37t-39 -14t-38.5 14t-14.5 37zM80 451v25q15 6 34 12.5t39 11.5t38 8.5t32 3.5l18 -12l-93 -444
h73v-26q-20 -16 -48.5 -26t-54.5 -10q-29 0 -42 13t-13 30q0 20 3 39t8 42l71 323z" />
    <glyph glyph-name="afii10105" unicode="&#x458;" horiz-adv-x="275" 
d="M133 442l-60 9v25q31 14 69 25t69 11l20 -12l-97 -457q-15 -71 -41.5 -118t-55.5 -76t-55.5 -43t-42.5 -18l-12 22q12 6 28 20.5t32 40t31.5 63.5t26.5 90zM146 673q0 26 16 41t42 15q28 0 44 -15t16 -41q0 -25 -16 -39t-44 -14q-26 0 -42 14t-16 39z" />
    <glyph glyph-name="afii10106" unicode="&#x459;" horiz-adv-x="701" 
d="M484 500q-18 -61 -34 -121t-32 -132h4q27 33 70.5 56.5t91.5 23.5q15 0 32 -5t30.5 -16.5t22.5 -30t9 -45.5q0 -45 -21 -88.5t-55.5 -77.5t-80 -55t-94.5 -21q-54 0 -86 26.5t-32 83.5q0 32 7.5 76.5t19 93t25 97.5l25.5 92h-124q-12 -54 -28.5 -113.5t-37 -116.5
t-45 -106.5t-53.5 -83.5q-24 -29 -51 -39.5t-59 -9.5q-8 10 -13 26.5t-4 35.5q0 16 4 31t14 28l82 -34q19 24 39.5 66t39 92.5t34.5 104.5t26 102q-21 5 -44 14.5t-34 19.5v26h352zM413 205q-9 -27 -13.5 -50.5t-4.5 -49.5q0 -35 16.5 -54.5t47.5 -19.5q28 0 52 16t42 40.5
t28 55t11 60.5q-1 18 -7 29.5t-15.5 19t-20 10.5t-19.5 3q-35 0 -68 -18.5t-49 -41.5z" />
    <glyph glyph-name="afii10107" unicode="&#x45a;" horiz-adv-x="741" 
d="M511 500l-26.5 -120.5t-25.5 -132.5h4q26 33 70 56.5t92 23.5q15 0 31.5 -5t30 -16.5t22.5 -30t9 -45.5q0 -45 -21 -88.5t-55.5 -77.5t-80 -55t-94.5 -21q-54 0 -86 26.5t-32 83.5q0 6 3 23.5l6.5 38t7.5 40.5t7 32h-198l-48 -232h-84l88 442l-61 9l-1 25q14 7 32.5 13.5
t38 11.5t38 8t32.5 3l20 -12l-47 -225h194l45 225h89zM453 205q-9 -27 -13.5 -50.5t-4.5 -49.5q0 -35 16.5 -54.5t47.5 -19.5q28 0 52 16t42 40.5t28 55t11 60.5q-1 18 -7 29.5t-15 19t-19.5 10.5t-19.5 3q-18 0 -35.5 -5t-33.5 -13.5t-28.5 -19.5t-20.5 -22z" />
    <glyph glyph-name="afii10108" unicode="&#x45b;" horiz-adv-x="543" 
d="M73 593h80l18 89l-68 9v23q15 6 33.5 12.5t38.5 12t39 9t36 4.5l21 -9l-32 -150h170l-13 -52h-168l-47 -218h5q39 80 90 119.5t111 39.5q46 0 67 -26.5t21 -65.5q0 -18 -2 -39t-9 -49l-57 -246h74v-26q-20 -16 -48 -26t-56 -10q-29 0 -40 12t-11 26q0 18 5 40.5l10 45.5
l36 167q7 30 9.5 46t2.5 34q0 23 -10 39t-28 16q-31 0 -59 -17.5t-51.5 -43t-41.5 -54t-28 -50.5l-53 -255h-84l109 541h-82z" />
    <glyph glyph-name="afii10109" unicode="&#x45c;" horiz-adv-x="511" 
d="M310 47q-32 54 -55 101.5l-43 89.5l-36 10l-47 -248h-86l87 442l-70 9v25q29 13 70.5 23.5t76.5 12.5l21 -11l-45 -227h29q21 13 45 32t46 39t40 38.5t27 31.5q1 7 1.5 19t0 24.5l-1 24t-1.5 17.5q37 13 72 13t59 -13q-14 -31 -42.5 -63.5t-61 -62t-63.5 -53.5l-49 -37
q7 -19 23.5 -49.5l36 -63.5l39.5 -64l34 -52h63v-25q-20 -16 -43.5 -26t-49.5 -10q-24 0 -41.5 12t-35.5 41zM401 767q8 1 21 -0.5t27 -4.5t26 -7.5t18 -9.5v-19l-197 -151l-22 18z" />
    <glyph glyph-name="afii10110" unicode="&#x45e;" horiz-adv-x="455" 
d="M88 442l-64 8v25q5 4 16.5 10t26.5 12t31 10.5t30 4.5q21 0 30.5 -10.5t14.5 -27.5l83 -350l3 -60h2l23 59q13 28 26.5 61.5l26.5 67.5t24 67t19 61q0 11 -2.5 29t-5.5 36t-6 33.5t-5 21.5q14 6 30 9t31 3q30 0 53 -12q-31 -124 -84.5 -248t-118.5 -252
q-54 -105 -108 -157t-122 -52q-15 0 -28.5 4t-28.5 12q-1 11 2 25t9.5 28t17 26t23.5 19l81 -42q7 5 18 14.5t23 26t24 40t23 56.5zM288 560q-45 0 -72 13.5t-41 32.5t-17.5 40t-1.5 37q16 12 35 19t40 9l25 -13v-77q6 -5 15.5 -9t25.5 -4q44 0 77 27.5t46 65.5
q9 0 19.5 -4.5t15.5 -11.5q-6 -21 -19.5 -43t-34.5 -40t-49 -30t-64 -12z" />
    <glyph glyph-name="afii10193" unicode="&#x45f;" horiz-adv-x="542" 
d="M488 56v-26q-20 -16 -48.5 -26t-55.5 -10q-29 0 -41.5 12t-12.5 26q0 18 5 60.5t22 103.5h-4q-13 -28 -32.5 -64t-46.5 -68t-61.5 -54t-76.5 -22q-35 0 -59 24.5t-24 69.5q0 22 7 65t17 94l21.5 104.5l20.5 96.5l-61 9v25q16 6 34.5 12t37 11t35.5 8.5t31 4.5l22 -12
q-16 -75 -32.5 -142.5t-30.5 -142.5q-5 -24 -10.5 -53.5t-5.5 -64.5q0 -21 11.5 -34t26.5 -13q22 0 44 13t41.5 34t37 46.5t31.5 50.5t23.5 46.5t14.5 34.5l44 225h83l-82 -444h74zM293 -6q-16 -12 -19.5 -27.5t-1 -32.5t7 -35t5.5 -35q-1 -41 -28 -62t-68 -29l-7 18
q18 9 23 22t3.5 28.5t-5.5 33.5t-4 36q-1 35 16.5 57t63.5 41z" />
    <glyph glyph-name="afii10146" unicode="&#x462;" horiz-adv-x="714" 
d="M412 564l-34 -158q19 3 45 5t46 2q49 0 89.5 -9t69.5 -28.5t44.5 -51t15.5 -76.5q0 -60 -23.5 -107t-65.5 -79t-101.5 -48.5t-131.5 -16.5q-5 0 -19 0.5t-32.5 1l-38 1t-34.5 0.5h-128l5 29q43 18 88 24l109 511h-129l-82 -141h-26q1 20 4 45.5t7 51.5t8.5 51t9.5 45h218
l11 52q-20 4 -39.5 10t-36.5 15l6 28h266l-6 -28q-43 -17 -94 -25l-11 -52h255q-8 -39 -20.5 -84.5t-26.5 -86.5h-26l-26 119h-166zM437 361q-24 0 -40 -1.5t-30 -4.5l-64 -301q4 -2 13.5 -2.5t20 -1.5t20.5 -1h16q35 0 72 9t67.5 32t50 62.5t18.5 99.5q1 24 -6.5 44
t-24.5 34.5t-45 22.5t-68 8z" />
    <glyph glyph-name="afii10194" unicode="&#x463;" horiz-adv-x="681" 
d="M402 247q27 33 71 56.5t92 23.5q15 0 31.5 -5t30 -16.5t22.5 -30t9 -45.5q0 -45 -21 -88.5t-55.5 -77.5t-80 -55t-94.5 -21q-54 0 -86 25.5t-32 73.5q0 30 11.5 77t26 94.5l26 88t11.5 57.5q0 24 -8 35t-28 11q-17 0 -37.5 -19t-41 -48t-38 -63t-29.5 -65l-53 -255h-86
l93 442l-61 9v25q33 17 71.5 26.5t66.5 9.5l21 -12l-44 -177h4q12 28 30.5 61t43 61.5t53.5 47.5t61 19q12 0 24 -4t21 -13.5t15 -25t6 -38.5q0 -16 -5.5 -38.5t-13 -47.5t-16.5 -50.5t-15 -47.5h4zM393 205q-9 -27 -16 -52t-7 -61q0 -25 19 -43t50 -18q27 0 51 16t42 40.5
t28.5 55t11.5 60.5q-1 18 -7 29.5t-15 19t-20 10.5t-20 3q-35 0 -68 -18.5t-49 -41.5z" />
    <glyph glyph-name="afii10147" unicode="&#x472;" horiz-adv-x="730" 
d="M66 278q0 91 27.5 170t79.5 137.5t125 92.5t165 34q73 0 123 -24t80.5 -63t44 -89.5t13.5 -104.5q0 -80 -22.5 -159.5t-69.5 -142.5t-118.5 -102t-169.5 -39q-72 0 -124.5 23.5t-86.5 63t-50.5 92t-16.5 111.5zM173 277q0 -55 14.5 -99t40 -75t60 -47.5t75.5 -15.5
q59 -1 102.5 24t73 65.5t46.5 93t24 108.5q-33 -30 -70 -41t-60 -11q-27 0 -50 11t-45.5 23.5t-45 23.5t-48.5 11q-21 0 -54 -6.5t-62 -30.5q-1 -8 -1 -17v-17zM520 352q16 0 43.5 2.5t50.5 13.5q3 33 3 64q0 51 -11.5 93t-34.5 72t-56.5 46.5t-77.5 16.5
q-60 0 -105.5 -27.5t-77.5 -72t-50.5 -100.5t-25.5 -113q30 26 61 42t54 24q12 4 23 5.5t20 1.5q27 0 49 -11t43.5 -23.5t43.5 -23t48 -10.5z" />
    <glyph glyph-name="afii10195" unicode="&#x473;" horiz-adv-x="509" 
d="M41 186q0 53 16.5 110.5t50.5 105.5t85 79t119 31q78 0 117.5 -48t39.5 -142q0 -66 -19 -126.5t-53 -106.5t-82 -73.5t-106 -27.5q-77 0 -122.5 49.5t-45.5 148.5zM292 469q-36 -1 -62 -18t-44 -44.5t-29 -62.5t-17 -72q28 17 50.5 23.5t38.5 6.5t28.5 -5t24 -11.5
t23 -11.5t25.5 -5q8 0 20 2.5t24 9.5q3 27 3 56q0 59 -20.5 95t-64.5 37zM180 248q-19 0 -46 -15q-3 -36 -3 -69q0 -59 26 -96t70 -37q28 0 51 17t41 46t30.5 67.5t19.5 81.5q-26 -17 -47 -23.5t-39 -6.5q-16 0 -29 5.5t-25 12t-24 12t-25 5.5z" />
    <glyph glyph-name="afii10148" unicode="&#x474;" horiz-adv-x="688" 
d="M765 712q8 -3 14 -13.5t10.5 -24t7 -28.5t2.5 -29q0 -6 -0.5 -12.5t-1.5 -11.5l-21 -24l-90 27q-41 -46 -91.5 -115.5t-101 -151t-96.5 -170t-79 -171.5h-39l-113 658l-36 10.5t-35 14.5l6 29h266l-6 -29q-20 -8 -42 -14t-46 -11l64 -430l5 -80h2l29 80q34 71 75.5 141.5
t83.5 132t63.5 87.5t23.5 29q37 45 66 71q22 19 41.5 26t38.5 9z" />
    <glyph glyph-name="afii10196" unicode="&#x475;" horiz-adv-x="482" 
d="M443 409q-36 -45 -68.5 -99.5t-61.5 -110t-53.5 -108l-43.5 -91.5l-63 -12l-74 454l-64 8v25q6 4 18 10.5t26.5 12.5t30 10t29.5 4q22 0 31.5 -11t12.5 -27l46 -325l5 -63h2l29 69l37 80t40.5 81t46 76.5t52.5 68.5q22 25 49 36.5t47 12.5q8 0 11 -1q12 -11 18.5 -33.5
t6.5 -45.5v-8t-1 -8l-19 -26l-90 21v0z" />
    <glyph glyph-name="uni048A" unicode="&#x48a;" horiz-adv-x="748" 
d="M233 0h-253l5 29q44 18 88 24l125 593l-39 10.5t-38 14.5l7 29h253l-6 -29q-17 -8 -37.5 -14t-43.5 -11l-92 -434l-26 -75l61 81l382 404l5 24q-22 5 -41 11t-34 14l6 29h253l-6 -29q-20 -8 -42 -14t-45 -11l-126 -594h108l9 -7q-4 -20 -20 -48t-38.5 -57t-49.5 -54
t-52 -37h-27l79 151h-191l5 29q17 7 38 13.5t44 10.5l92 433l26 75l-56 -76l-389 -410l-4 -22q22 -4 41 -10t34 -14zM469 731q-41 0 -69 11.5t-44.5 29t-22.5 37t-4 34.5q16 13 44.5 19.5t49.5 8.5l25 -13v-66q7 -5 16 -9t25 -4q22 0 45 6t42.5 16.5t34.5 25.5t21 34
q10 0 20.5 -4t15.5 -11q-7 -21 -24 -41.5t-42.5 -37t-59 -26.5t-73.5 -10z" />
    <glyph glyph-name="uni048B" unicode="&#x48b;" horiz-adv-x="543" 
d="M374 -6q-22 0 -33 12t-11 26q0 18 5 60.5t22 103.5h-4q-13 -28 -32.5 -64t-46.5 -68t-61.5 -54t-76.5 -22q-35 0 -59 24.5t-24 69.5q0 22 7 65t17 94l21.5 104.5l20.5 96.5l-61 9v25q16 6 34.5 12t37 11t35.5 8.5t31 4.5l22 -12q-16 -75 -32.5 -142.5t-30.5 -142.5
q-5 -24 -10.5 -53.5t-5.5 -64.5q0 -21 11.5 -34t26.5 -13q22 0 44 13t41.5 34t37 46.5t31.5 50.5t23.5 46.5t14.5 34.5l44 225h83l-82 -445h74v-31q-12 -11 -18.5 -25t-9.5 -30.5t-3.5 -34t-1.5 -34.5q-1 -27 -11.5 -44.5t-27 -29t-37.5 -17.5t-42 -10l-7 20q18 5 28.5 15
t16 21.5t6.5 24t1 22.5q-1 35 18.5 61.5t48.5 52.5l-3 3q-12 -9 -33 -17t-39 -8zM340 560q-45 0 -72 13.5t-41 32.5t-17.5 40t-1.5 37q16 12 35 19t40 9l25 -13v-77q6 -5 15.5 -9t25.5 -4q44 0 77 27.5t46 65.5q9 0 19.5 -4.5t15.5 -11.5q-6 -21 -19.5 -43t-34.5 -40
t-49 -30t-64 -12z" />
    <glyph glyph-name="uni048C" unicode="&#x48c;" horiz-adv-x="617" 
d="M90 568h129l16 78q-20 4 -39 10.5t-38 14.5l7 29h266l-6 -29q-20 -8 -44 -15t-50 -10l-16 -78h194l-10 -52h-196l-20 -99q19 4 45.5 5.5t46.5 1.5q100 0 158 -41t58 -117q0 -72 -25.5 -123t-69 -83.5t-102 -47.5t-125.5 -15q-5 0 -19 0.5t-32.5 1l-38 1t-34.5 0.5h-128
l5 29q43 18 88 24l97 463h-127zM344 372q-24 0 -41 -1.5t-31 -4.5l-66 -312q4 -2 13.5 -2.5t20 -1.5t20.5 -1h15q46 -1 84.5 12t66.5 40t43.5 68.5t14.5 98.5q1 21 -6 40t-23 33.5t-43.5 22.5t-67.5 8z" />
    <glyph glyph-name="uni048D" unicode="&#x48d;" horiz-adv-x="445" 
d="M48 501h84l26.5 111t18.5 80l-61 9v25q15 7 34 13t38.5 11t38 8t33.5 4l20 -12q-5 -16 -12 -42t-15 -59l-17 -71l-18 -77h166l-12 -52h-166l-25.5 -118l-17.5 -84h4q27 33 70.5 56.5t91.5 23.5q15 0 31.5 -5t30 -16.5t22.5 -30t9 -45.5q0 -45 -21 -88.5t-55.5 -77.5
t-80 -55t-94.5 -21q-54 0 -86 26.5t-32 83.5q0 19 6 56t15.5 85t21.5 102.5l24 107.5h-85zM157 205q-9 -27 -13.5 -50.5t-4.5 -49.5q0 -35 16.5 -54.5t47.5 -19.5q28 0 52 16t42 40.5t28 55t11 60.5q-1 18 -7 29.5t-15 19t-19.5 10.5t-19.5 3q-18 0 -35.5 -5t-33.5 -13.5
t-28.5 -19.5t-20.5 -22z" />
    <glyph glyph-name="uni048E" unicode="&#x48e;" horiz-adv-x="585" 
d="M169 53q26 -3 48.5 -9.5t41.5 -14.5l-5 -29h-274l5 29q23 10 44.5 15t43.5 9l125 593q-22 4 -41 10.5t-36 14.5l7 29h90q40 0 87.5 4t90.5 4q48 0 88.5 -9.5t69 -30t44.5 -51t16 -72.5q0 -88 -46.5 -154.5t-130.5 -97.5l34 -81l-56 -23l-37 88q-17 -4 -35.5 -5.5
t-38.5 -1.5h-16t-24.5 0.5t-26.5 1.5t-22 2zM370 656q-24 0 -42.5 -1.5t-32.5 -3.5l-68 -324q5 -1 14.5 -2t20 -1.5t20 -1t15.5 -0.5q33 0 62 6l-52 129l51 21l53 -130q48 26 72 76.5t24 119.5q0 25 -5.5 45.5t-21 35.5t-42 23t-68.5 8z" />
    <glyph glyph-name="uni048F" unicode="&#x48f;" horiz-adv-x="542" 
d="M97 -146q35 -6 70 -25v-29h-157l-9 9l43 199l93 434l-61 9v25q33 14 69.5 25t68.5 11l20 -12l-41 -176h4q18 40 39.5 74t46.5 59.5t54 40t62 14.5q22 0 42 -8.5t35 -26t23.5 -43.5t8.5 -60q0 -50 -10 -97t-28 -89t-43 -77.5t-56 -61.5l66 -93l-43 -29l-66 93
q-52 -32 -112 -32q-17 0 -29 1t-21 3.5t-17.5 6.5l-18.5 9zM352 450q-29 0 -55 -22.5t-48.5 -54.5t-40.5 -67.5t-29 -62.5l-39 -189q14 -12 29.5 -17.5t49.5 -5.5q40 0 79 33l-65 93l40 30l60 -86q18 24 33 53.5t25.5 62t16.5 66.5t6 67q0 48 -16.5 74t-45.5 26z" />
    <glyph glyph-name="afii10050" unicode="&#x490;" horiz-adv-x="497" 
d="M169 53q23 -2 46 -8.5t44 -15.5l-5 -29h-274l5 29q23 11 44.5 16.5t43.5 7.5l125 593l-40 10t-37 15l7 29h380l82 136h26q-2 -21 -5 -45.5t-7.5 -50l-9 -49.5t-9.5 -43h-290z" />
    <glyph glyph-name="afii10098" unicode="&#x491;" horiz-adv-x="413" 
d="M366 500l70 121h26q-3 -42 -10 -88.5t-16 -82.5h-204l-98 -450h-90l96 451q-34 6 -60 23v26h286z" />
    <glyph glyph-name="uni0492" unicode="&#x492;" horiz-adv-x="507" 
d="M228 382h151l-11 -52h-150l-59 -277q23 -4 46.5 -10t43.5 -14l-5 -29h-274l5 29q45 17 88 24l59 277h-89l11 52h88l57 264q-20 4 -39 10.5t-38 14.5l6 29h468q-4 -20 -10 -46t-13.5 -54t-15.5 -54.5t-15 -47.5h-25l-20 150h-202z" />
    <glyph glyph-name="uni0493" unicode="&#x493;" horiz-adv-x="469" 
d="M36 253h82l40 189q-17 3 -35.5 13t-26.5 19v26h374q-9 -39 -20.5 -79.5t-25.5 -81.5h-26l-19 118h-136l-43 -204h143l-13 -52h-140l-43 -201h-83l42 201h-83z" />
    <glyph glyph-name="uni0494" unicode="&#x494;" horiz-adv-x="610" 
d="M235 368q30 15 73 30t100 15q46 0 77 -10.5t50.5 -30t28 -47t8.5 -60.5q0 -72 -20.5 -137.5t-59 -116t-93 -83t-123.5 -38.5v27q51 18 88.5 51.5t62.5 77t37 95.5t12 109q0 54 -20.5 82.5t-79.5 28.5q-42 0 -80.5 -12t-70.5 -29l-56 -267q23 -4 45.5 -10t42.5 -14l-6 -29
h-271l5 29q45 17 88 24l125 593q-20 4 -39 10.5t-38 14.5l7 29h468l-11 -46t-13 -53t-15 -54t-15 -48h-26l-20 149h-202z" />
    <glyph glyph-name="uni0495" unicode="&#x495;" horiz-adv-x="487" 
d="M456 500q-8 -39 -19.5 -79.5t-25.5 -81.5h-25l-21 118h-135l-60 -277q33 41 71 66.5t90 25.5q48 0 74.5 -28t26.5 -76q0 -53 -16.5 -113t-49 -114t-81 -95.5t-111.5 -57.5l-12 22q40 21 74 59.5t58.5 85t38 96t13.5 93.5q0 29 -13.5 47.5t-39.5 18.5q-37 0 -72 -18.5
t-59 -52.5l-29 -139h-90l94 441q-17 3 -34 13.5t-25 19.5v26h378z" />
    <glyph glyph-name="uni0496" unicode="&#x496;" horiz-adv-x="974" 
d="M512 646q-20 6 -36 12t-30 13l6 29h231l-6 -29q-13 -6 -30.5 -12.5t-39.5 -12.5l-59 -277l67 14l223 263q-18 5 -34 11t-33 14l6 29h227l-6 -29q-20 -8 -40.5 -14t-40.5 -11l-243 -271l35.5 -71t42.5 -83t49 -87t54 -83h79q-4 -20 -11.5 -46.5t-16.5 -54l-18 -54
t-17 -47.5h-26l-6 151h-64l-28 25q-23 34 -42 72t-36.5 77.5t-33.5 80t-34 80.5h-60l-60 -282q16 -5 31 -10.5t29 -13.5l-5 -29h-232l5 29q35 17 78 24l61 290l-69 -14l-51.5 -72.5l-58.5 -78.5l-64.5 -79.5t-70.5 -73.5l-39 -25h-131l5 25l52 24q45 40 87 83.5l80.5 87
l73 83.5l63.5 73l-128 270q-40 11 -65 25l6 29h213l-6 -29q-31 -15 -73 -25l114 -269h69z" />
    <glyph glyph-name="uni0497" unicode="&#x497;" horiz-adv-x="786" 
d="M58 430q26 36 57 56t72 20q21 0 37.5 -10.5t28.5 -28.5t18 -41.5t6 -48.5q0 -54 -9 -103h92l46 226h81l-47 -226h92q13 51 35 93.5t49.5 73.5t61 48t69.5 17q27 0 38 -3.5t24 -9.5q1 -11 -1.5 -24.5t-9.5 -27t-17.5 -26t-25.5 -20.5l-43 58q-18 -5 -38 -26t-37 -57.5
t-28 -88t-10 -117.5q-1 -57 16.5 -82.5t48.5 -25.5q17 0 30.5 7t27.5 21l11 -14l-12 -18q-14 -22 -18.5 -42t-4.5 -39t1.5 -37t0.5 -34q-1 -27 -11.5 -44.5t-27 -29t-37 -17.5t-41.5 -10l-7 20q18 5 28.5 15t15.5 21.5t6 24t1 22.5q0 35 13.5 60.5t44.5 53.5l-2 2
q-35 -24 -72 -24q-26 0 -44.5 10.5t-30.5 28.5t-17.5 41.5t-5.5 49.5q0 28 2 54.5t6 52.5h-90l-47 -231h-80l47 231h-92q-14 -52 -36 -95.5t-50.5 -75t-62 -49t-69.5 -17.5q-28 0 -39.5 4t-23.5 9q-2 13 1 28t10 28.5t18 25t25 17.5l43 -59q22 6 43.5 27.5t37.5 58t26 87.5
t9 116q1 57 -12 82.5t-43 25.5q-37 0 -67 -28z" />
    <glyph glyph-name="uni0498" unicode="&#x498;" horiz-adv-x="560" 
d="M150 -191q0 46 1 91t5 90q-45 4 -83 14t-63 24q3 16 9.5 37t15 43.5l17.5 45t18 40.5h25l13 -139q6 -3 17.5 -6t26 -5.5t29.5 -3.5t28 -1q43 0 79.5 12t63.5 36.5t42 62t16 88.5q-1 51 -36.5 74t-94.5 23l-79 -11q0 14 2 29t9 29h32q17 0 42 1.5t42 3.5q28 10 52 27
t41 39.5t27 48.5t11 55q-1 57 -28 80t-93 23q-30 0 -50.5 -6t-32.5 -13l-78 -122h-26l2 37t3 36t6 37t10 42q40 23 90 32t93 9q40 0 76.5 -8t64 -25.5t43.5 -44t16 -63.5q0 -26 -7 -53.5t-25.5 -53.5t-50.5 -49.5t-82 -40.5v-4q20 -3 41 -12t38 -25.5t27.5 -39.5t10.5 -53
q0 -107 -68 -172.5t-190 -77.5q-14 -42 -31.5 -87.5t-40.5 -93.5h-26v0z" />
    <glyph glyph-name="uni0499" unicode="&#x499;" horiz-adv-x="439" 
d="M-12 36q1 13 6 26.5t13 26.5t18 24t22 18l68 -95q8 -2 21 -3.5t21 -1.5q23 0 47 9t43.5 25.5t32 41t13.5 54.5q-1 40 -22 58t-71 26l-70 -18q-5 13 -4.5 27t4.5 27h71q54 17 81 51.5t26 66.5q1 30 -18 49.5t-62 20.5q-8 0 -22 -1.5t-24 -3.5q-14 -17 -31.5 -42.5
l-32.5 -45.5q-9 4 -17.5 14t-14.5 23t-8 28t2 29q9 6 24 13t37.5 13.5t51.5 11t67 4.5q28 0 53 -6t44 -18t30 -30t11 -42q0 -95 -134 -144q31 0 53.5 -9t37 -23t21.5 -32.5t7 -36.5q0 -33 -12.5 -63t-36.5 -54t-58.5 -40.5t-77.5 -22.5q-14 -12 -16 -27t0 -31.5t6.5 -34
t4.5 -34.5q0 -41 -27 -62t-68 -29l-7 18q18 9 23 22t4 28.5t-5 33.5t-4 36q-1 26 7.5 44t30.5 33q-54 1 -95 13t-64 35z" />
    <glyph glyph-name="uni049A" unicode="&#x49a;" horiz-adv-x="666" 
d="M476 0l-29 24q-45 69 -87 149t-79 162h-53l-59 -282q41 -8 69 -24l-5 -29h-253l5 29q45 18 88 24l125 593q-22 4 -41.5 10t-35.5 15l7 29h253l-6 -29q-34 -16 -81 -25l-58 -277l60 14l240 263q-20 5 -36 10.5t-31 14.5l7 29h227l-7 -29q-18 -9 -40 -15t-41 -10l-259 -270
l41 -73l49.5 -82.5l54.5 -86l56 -83.5h75q-4 -20 -11.5 -46.5t-16.5 -54l-18 -54t-17 -47.5h-26l-6 151h-61z" />
    <glyph glyph-name="uni049B" unicode="&#x49b;" 
d="M378 -6q-19 0 -34.5 12t-33.5 41q-32 54 -55 101.5l-43 89.5l-36 10l-47 -248h-86l87 442l-70 9v25q29 13 70.5 23.5t76.5 12.5l21 -11l-45 -227h29q21 13 45 32t46 39t40 38.5t27 31.5q1 7 1.5 19t0 24.5l-1 24t-1.5 17.5q37 13 72 13t59 -13q-14 -31 -42.5 -63.5
t-61 -62t-63.5 -53.5l-49 -37q7 -19 23.5 -49.5l36 -63.5l39.5 -64l34 -52h75v-31q-12 -11 -18.5 -25t-9.5 -30.5t-4 -34l-2 -34.5q-1 -27 -11.5 -44.5t-27 -29t-37 -17.5t-41.5 -10l-7 20q18 5 28 15t15.5 21.5t6.5 24t1 22.5q0 35 19 61.5t47 52.5l-3 3q-12 -9 -32 -17
t-37 -8h-1z" />
    <glyph glyph-name="uni049C" unicode="&#x49c;" horiz-adv-x="705" 
d="M544 700h227l-6 -29q-21 -9 -42 -15t-40 -10l-258 -269l41.5 -73.5l49.5 -83.5l54 -87t57 -84l42 -24l-5 -25h-119l-30 24q-45 69 -87 150t-79 163h-22l-33 -155h-51l32 155h-47l-59 -284q43 -8 69 -24l-5 -29h-253l5 29q45 17 88 24l125 593q-43 6 -77 25l7 29h253
l-6 -29q-34 -16 -81 -25l-58 -278l48 5l33 161h52l-33 -156l29 5l240 263q-20 5 -37.5 11t-29.5 14z" />
    <glyph glyph-name="uni049D" unicode="&#x49d;" horiz-adv-x="569" 
d="M279 274h23q21 13 40.5 32t36.5 39t30 38.5l22 31.5q1 7 1.5 19t0 24.5l-1 24t-1.5 17.5q37 13 72 13q36 0 60 -13q-14 -31 -39 -64t-53 -62.5t-55.5 -53.5t-45.5 -37q7 -19 19.5 -49.5t28 -63l31.5 -63.5t31 -52h63v-25q-20 -16 -43.5 -26t-50.5 -10q-24 0 -41.5 12
t-34.5 41q-16 27 -27.5 55.5t-20 54.5t-13.5 47t-9 34l-31 2l-27 -128h-47l28 132l-49 4l-47 -248h-86l87 442l-70 9v25q29 13 70.5 23.5t76.5 12.5l21 -11l-45 -227h48l29 132h47z" />
    <glyph glyph-name="uni049E" unicode="&#x49e;" horiz-adv-x="659" 
d="M80 581h124l14 65q-43 6 -77 25l6 29h254l-7 -29q-17 -8 -37 -14t-43 -11l-14 -65h110l-11 -48h-109l-35 -164l64 14l241 263q-20 5 -36.5 11t-30.5 14l6 29h226l-6 -29q-21 -9 -42 -15t-40 -10l-257 -269l41.5 -73l49.5 -83.5l54 -87.5t57 -84l43 -24l-5 -25h-122
l-28 24q-45 69 -86.5 149t-79.5 162h-56l-60 -282q20 -4 38 -10t32 -14l-5 -29h-254l5 29q23 9 44.5 14.5t43.5 9.5l102 480h-124z" />
    <glyph glyph-name="uni049F" unicode="&#x49f;" horiz-adv-x="481" 
d="M73 612h82l15 70l-70 9v25q29 13 70.5 23.5t76.5 12.5l21 -11l-27 -129h168l-13 -52h-165l-57 -286h29q21 13 43.5 32t43 39t36.5 38.5t25 31.5q1 7 1.5 19t0 24.5l-1 24t-1.5 17.5q37 13 72 13q36 0 60 -13q-13 -33 -40 -66t-58 -61.5t-61 -52t-48 -36.5
q7 -19 22.5 -49.5t34 -63.5t39 -64t37.5 -51h63v-26q-20 -16 -43.5 -26t-49.5 -10q-24 0 -43 11t-36 40q-32 54 -54 102.5l-42 90.5l-36 10l-47 -248h-86l111 560h-84z" />
    <glyph glyph-name="uni04A0" unicode="&#x4a0;" horiz-adv-x="761" 
d="M601 700h226l-6 -29q-21 -9 -41.5 -15t-39.5 -10l-258 -269l41.5 -73.5l49.5 -83.5l54 -87t57 -84l43 -24l-6 -25h-120l-29 24q-45 69 -86.5 149t-79.5 162h-52l-60 -282q20 -4 38 -10t32 -14l-5 -29h-254l5 29q45 18 88 24l126 595h-129l-81 -141h-26q1 21 4.5 46.5
t8 51.5l9 50.5l8.5 44.5h389l-7 -29q-17 -8 -37 -14t-43 -11l-59 -277l60 14l241 263q-20 5 -37 11t-30 14z" />
    <glyph glyph-name="uni04A1" unicode="&#x4a1;" horiz-adv-x="563" 
d="M186 457h-81l-68 -111h-25q3 38 8 77t13 77h247l-46 -226h30q21 13 44.5 32l46 39t40.5 38.5t27 31.5q1 7 1.5 19t0 24.5l-1 24t-1.5 17.5q37 13 71 13q36 0 60 -13q-14 -31 -42.5 -63.5t-61 -62t-63.5 -53.5l-49 -37q7 -19 23.5 -49.5l36 -63.5l39.5 -64l34 -51h63v-26
q-20 -16 -43.5 -26t-49.5 -10q-24 0 -42 12t-35 41q-32 54 -55 101.5l-43 89.5l-36 10l-47 -248h-86z" />
    </font>
</defs>
</svg>
